<?xml version="1.0" encoding="utf-8"?>
<!-- Generator: $$$/GeneralStr/196=Adobe Illustrator 27.6.0, SVG Export Plug-In . SVG Version: 6.00 Build 0)  -->
<svg version="1.1" id="Calque_1" xmlns="http://www.w3.org/2000/svg" xmlns:xlink="http://www.w3.org/1999/xlink" x="0px" y="0px"
	 viewBox="0 0 323.16 613.23" style="enable-background:new 0 0 323.16 613.23;" xml:space="preserve">
<style type="text/css">
	.st0{fill:url(#SVGID_1_);}
	.st1{opacity:0.69;fill:#FFFFFF;}
	.st2{fill:url(#SVGID_00000067925021562326608510000013993412533232529846_);}
	.st3{fill:url(#SVGID_00000152234308406727564840000006766854846091056779_);}
</style>
<g>
	<g>
		<linearGradient id="SVGID_1_" gradientUnits="userSpaceOnUse" x1="74.882" y1="532.0093" x2="208.882" y2="351.0092">
			<stop  offset="0" style="stop-color:#CB236D"/>
			<stop  offset="1" style="stop-color:#4C246D"/>
		</linearGradient>
		<path class="st0" d="M233.01,613.23c0,0,13.77-160.75-75.36-210.24C72.14,355.52,48.27,397.55,9.02,334.5
			c-1.79-2.88-6.21-1.94-6.65,1.42c-4.71,36.06-12.67,158.19,90.55,182.52C212.19,546.55,233.01,613.23,233.01,613.23z"/>
		<path class="st1" d="M18.25,371.24c0,0,0.08,0.31,0.27,0.86c0.19,0.55,0.45,1.37,0.9,2.43c0.81,2.15,2.28,5.2,4.34,8.97
			c0.53,0.94,1.15,1.89,1.76,2.91c0.64,1,1.22,2.11,2,3.15c1.52,2.1,3.02,4.49,4.96,6.79c0.94,1.17,1.91,2.38,2.9,3.63
			c1.03,1.21,2.17,2.4,3.3,3.65c0.57,0.62,1.14,1.25,1.73,1.89c0.58,0.64,1.16,1.29,1.82,1.89c1.28,1.23,2.58,2.48,3.92,3.76
			c0.67,0.64,1.34,1.29,2.02,1.94c0.68,0.65,1.44,1.23,2.17,1.86c1.47,1.24,2.97,2.5,4.5,3.78c0.77,0.63,1.5,1.32,2.33,1.91
			c0.82,0.6,1.64,1.21,2.47,1.82c1.66,1.22,3.34,2.46,5.05,3.71l1.28,0.94c0.44,0.3,0.9,0.58,1.35,0.87
			c0.91,0.58,1.82,1.16,2.73,1.75c1.83,1.17,3.69,2.36,5.56,3.56l1.41,0.9l1.47,0.82c0.98,0.54,1.97,1.09,2.97,1.64
			c1.99,1.1,4,2.21,6.02,3.33c1.99,1.18,4.15,2.08,6.26,3.12c2.12,1.01,4.26,2.03,6.41,3.05c1.08,0.51,2.15,1.04,3.24,1.53
			c1.11,0.45,2.23,0.9,3.34,1.35c2.23,0.9,4.48,1.81,6.73,2.72c2.27,0.91,4.47,1.83,6.83,2.74c2.3,0.9,4.6,1.8,6.9,2.7
			c2.3,0.98,4.61,1.97,6.92,2.95l6.82,3.16c9.04,4.36,17.81,9.31,26.02,14.89c8.2,5.59,15.78,11.85,22.49,18.55
			c3.39,3.32,6.47,6.84,9.42,10.33c2.86,3.57,5.58,7.13,7.98,10.77c4.87,7.23,8.82,14.49,11.99,21.38
			c3.19,6.88,5.67,13.37,7.71,19.15c2.03,5.78,3.61,10.87,4.89,15.05c2.49,8.35,3.91,13.12,3.91,13.12c0.55,1.83-0.5,3.76-2.33,4.31
			c-1.83,0.55-3.76-0.5-4.31-2.33c0-0.01-0.01-0.03-0.01-0.04l-0.01-0.02c0,0-1.34-4.78-3.68-13.14c-1.19-4.16-2.67-9.18-4.56-14.87
			c-1.89-5.68-4.2-12.01-7.16-18.71c-2.95-6.7-6.63-13.74-11.19-20.76c-2.25-3.53-4.81-6.99-7.49-10.47
			c-2.78-3.4-5.68-6.84-8.9-10.09c-6.37-6.57-13.6-12.75-21.48-18.32c-7.89-5.56-16.39-10.56-25.18-14.98l-6.65-3.22
			c-2.24-1-4.48-2-6.71-3c-2.29-0.94-4.57-1.88-6.85-2.81c-2.22-0.9-4.54-1.92-6.8-2.86c-2.27-0.96-4.52-1.92-6.77-2.87
			c-1.12-0.48-2.24-0.95-3.36-1.43c-1.1-0.51-2.18-1.07-3.26-1.6c-2.16-1.07-4.31-2.14-6.44-3.2c-2.12-1.09-4.29-2.04-6.29-3.27
			c-2.03-1.17-4.05-2.33-6.05-3.48c-1-0.57-1.99-1.15-2.98-1.72l-1.48-0.85l-1.42-0.93c-1.88-1.25-3.74-2.48-5.58-3.71
			c-0.92-0.61-1.83-1.22-2.74-1.82c-0.45-0.3-0.91-0.59-1.35-0.91l-1.29-0.98c-1.71-1.3-3.4-2.59-5.07-3.86
			c-0.83-0.63-1.66-1.26-2.47-1.88c-0.83-0.61-1.56-1.33-2.34-1.98c-1.53-1.33-3.03-2.64-4.5-3.92c-0.73-0.65-1.48-1.26-2.17-1.93
			c-0.68-0.68-1.35-1.34-2.02-2.01c-1.33-1.32-2.64-2.62-3.91-3.89c-0.65-0.62-1.23-1.29-1.81-1.95c-0.58-0.66-1.16-1.31-1.72-1.95
			c-1.12-1.29-2.26-2.52-3.29-3.77c-0.99-1.28-1.96-2.53-2.89-3.74c-1.94-2.36-3.42-4.82-4.93-6.99c-0.77-1.07-1.35-2.21-1.99-3.24
			c-0.61-1.05-1.22-2.03-1.74-3c-2.05-3.89-3.49-7.03-4.29-9.26c-0.44-1.09-0.71-1.98-0.9-2.57c-0.19-0.59-0.26-0.89-0.26-0.89
			l-0.01-0.05c-0.09-0.42,0.17-0.83,0.58-0.93C17.74,370.58,18.15,370.83,18.25,371.24z"/>
	</g>
	<g>
		
			<linearGradient id="SVGID_00000145048652922323932840000008285612075253862583_" gradientUnits="userSpaceOnUse" x1="55.2537" y1="375.1924" x2="243.6106" y2="375.1924">
			<stop  offset="0" style="stop-color:#A737D5"/>
			<stop  offset="1" style="stop-color:#EF497A"/>
		</linearGradient>
		<path style="fill:url(#SVGID_00000145048652922323932840000008285612075253862583_);" d="M239.37,609.59l-9.87-5.85
			c4.99-76.77-8.99-217.78-85.71-256.2c-51.96-26.02-71.29-55.04-67.41-117.02c2.58-41.35-11.13-69.93-20.55-84.38
			c-1.91-2.94,1.26-6.52,4.4-4.97c31.68,15.62,114.2,61.85,151.96,135.33C259.45,368.5,239.37,609.59,239.37,609.59z"/>
		<path class="st1" d="M109.29,192.39c0,0,0.09,0.05,0.27,0.15c0.18,0.09,0.45,0.24,0.81,0.47c0.36,0.22,0.81,0.49,1.35,0.8
			c0.51,0.33,1.1,0.72,1.76,1.15c1.35,0.85,2.9,2.02,4.76,3.36c0.94,0.66,1.87,1.46,2.9,2.27c1.01,0.83,2.14,1.65,3.24,2.63
			c2.18,1.96,4.72,4.01,7.21,6.52c1.27,1.23,2.59,2.51,3.97,3.83c1.31,1.39,2.66,2.82,4.07,4.31c5.63,5.92,11.44,13.07,17.49,21.07
			c0.79,0.98,1.5,2.03,2.23,3.08c0.73,1.05,1.47,2.11,2.21,3.18c1.49,2.14,3.01,4.32,4.55,6.54c2.85,4.59,5.88,9.29,8.83,14.21
			c1.41,2.5,2.83,5.04,4.27,7.61c0.72,1.28,1.45,2.58,2.18,3.88c0.73,1.3,1.49,2.6,2.13,3.96c1.35,2.69,2.71,5.42,4.09,8.16
			c0.69,1.37,1.38,2.76,2.08,4.14c0.68,1.39,1.43,2.76,2.04,4.21c2.54,5.72,5.12,11.53,7.74,17.42c2.35,5.99,4.73,12.06,7.13,18.17
			c0.31,0.79,0.59,1.47,0.91,2.35l0.79,2.33c0.53,1.55,1.05,3.11,1.58,4.67c1.06,3.12,2.11,6.24,3.17,9.38l1.59,4.7
			c0.49,1.59,0.93,3.21,1.4,4.81c0.92,3.21,1.84,6.43,2.77,9.65l1.38,4.83c0.47,1.61,0.94,3.21,1.3,4.84
			c0.78,3.24,1.57,6.47,2.35,9.7c0.78,3.23,1.56,6.45,2.34,9.67c0.7,3.23,1.33,6.47,1.99,9.68c1.3,6.44,2.68,12.8,3.66,19.16
			c0.54,3.17,1.07,6.33,1.6,9.46c0.26,1.57,0.53,3.12,0.79,4.68c0.22,1.56,0.44,3.11,0.65,4.66c0.83,6.19,1.76,12.27,2.47,18.25
			c0.67,5.98,1.32,11.83,1.95,17.52c0.5,5.71,0.98,11.26,1.45,16.63c0.42,5.37,0.71,10.57,1.05,15.56
			c0.57,9.98,0.97,19.14,1.15,27.27c0.14,4.06,0.18,7.87,0.21,11.38c0.05,3.52,0.07,6.75,0.04,9.67c0,5.84-0.11,10.43-0.19,13.57
			c-0.11,3.16-0.17,4.84-0.17,4.84c-0.07,1.91-1.67,3.41-3.58,3.34c-1.91-0.07-3.41-1.67-3.34-3.58l0-0.03l0-0.1
			c0,0,0.07-1.63,0.2-4.7c0.1-3.08,0.25-7.62,0.3-13.4c0.06-2.89,0.06-6.09,0.04-9.58c0-3.49-0.01-7.26-0.11-11.29
			c-0.11-8.06-0.43-17.15-0.9-27.06c-0.3-4.95-0.54-10.12-0.91-15.45c-0.42-5.33-0.85-10.85-1.3-16.51
			c-0.58-5.66-1.18-11.46-1.79-17.4c-0.65-5.93-1.52-11.97-2.3-18.12c-0.2-1.54-0.4-3.08-0.61-4.63c-0.25-1.54-0.5-3.09-0.74-4.65
			c-0.5-3.11-1-6.24-1.5-9.39c-0.92-6.32-2.24-12.64-3.47-19.03c-0.63-3.19-1.22-6.41-1.89-9.62c-0.74-3.19-1.49-6.39-2.24-9.6
			c-0.75-3.21-1.5-6.42-2.25-9.64c-0.35-1.62-0.8-3.2-1.24-4.79l-1.32-4.76c-0.88-3.18-1.76-6.35-2.64-9.52
			c-0.45-1.59-0.87-3.17-1.33-4.75l-1.55-4.72c-1.03-3.14-2.07-6.28-3.09-9.4c-0.51-1.56-1.03-3.12-1.54-4.68l-0.77-2.34l-0.85-2.23
			c-2.32-6.08-4.63-12.11-6.9-18.06c-2.54-5.85-5.05-11.62-7.51-17.31c-0.59-1.43-1.32-2.79-1.98-4.18
			c-0.68-1.38-1.35-2.75-2.02-4.11c-1.34-2.73-2.67-5.44-3.98-8.11c-0.63-1.35-1.37-2.64-2.08-3.93c-0.71-1.29-1.42-2.57-2.12-3.85
			c-1.4-2.55-2.79-5.07-4.16-7.56c-2.88-4.88-5.83-9.55-8.6-14.11c-1.5-2.2-2.98-4.37-4.43-6.49c-0.73-1.06-1.44-2.12-2.16-3.16
			c-0.71-1.04-1.4-2.09-2.17-3.06c-5.9-7.94-11.56-15.03-17.04-20.89c-1.36-1.47-2.68-2.9-3.96-4.27c-1.34-1.31-2.62-2.58-3.86-3.79
			c-2.43-2.49-4.88-4.51-7-6.45c-1.06-0.97-2.15-1.78-3.13-2.6c-1-0.79-1.9-1.59-2.8-2.23c-1.79-1.31-3.29-2.47-4.57-3.29
			c-0.63-0.42-1.19-0.79-1.67-1.12c-0.48-0.29-0.89-0.54-1.21-0.74c-0.32-0.2-0.58-0.35-0.76-0.45c-0.18-0.1-0.27-0.15-0.27-0.15
			l-0.02-0.01c-0.79-0.44-1.07-1.43-0.63-2.22C107.52,192.24,108.5,191.96,109.29,192.39z"/>
	</g>
	<g>
		
			<linearGradient id="SVGID_00000177463317514464438680000014486644311177615550_" gradientUnits="userSpaceOnUse" x1="271.2392" y1="296.4385" x2="371.2392" y2="218.4386">
			<stop  offset="0" style="stop-color:#CB236D"/>
			<stop  offset="1" style="stop-color:#4C246D"/>
		</linearGradient>
		<path style="fill:url(#SVGID_00000177463317514464438680000014486644311177615550_);" d="M248.72,599.68
			c-1.15,2.04-4.28,1-3.98-1.32c5.21-41.31,25.42-222.29-7.57-316.49C200.21,176.34,128.32,70.45,304.72,0.19
			c2.17-0.87,4.32,1.33,3.39,3.48c-5.26,12.19-14.26,41.92,2,78.15c21.39,47.68,21.14,128.92-36.51,210.22
			C273.6,292.05,282.83,539.45,248.72,599.68z"/>
		<path class="st1" d="M281.61,30.42c0,0-0.24,0.12-0.69,0.36c-0.44,0.23-1.11,0.63-1.98,1.14c-1.73,1.04-4.2,2.71-7.18,5.05
			c-3,2.32-6.42,5.42-10.06,9.24c-1.85,1.88-3.64,4.06-5.56,6.31c-1.79,2.36-3.74,4.8-5.51,7.53c-0.46,0.67-0.92,1.35-1.39,2.04
			c-0.46,0.69-0.87,1.42-1.31,2.14c-0.86,1.46-1.79,2.91-2.63,4.44c-0.82,1.55-1.65,3.13-2.49,4.73c-0.44,0.79-0.81,1.62-1.19,2.46
			c-0.38,0.84-0.76,1.68-1.15,2.53c-0.39,0.85-0.77,1.7-1.16,2.56c-0.38,0.87-0.69,1.76-1.04,2.65c-0.68,1.79-1.4,3.58-2.07,5.42
			c-1.15,3.74-2.53,7.5-3.43,11.47c-2.18,7.84-3.42,16.18-4.49,24.65c-0.17,2.13-0.34,4.27-0.51,6.42
			c-0.16,2.15-0.38,4.29-0.38,6.46c-0.05,2.16-0.11,4.33-0.16,6.5c-0.01,1.08-0.09,2.17-0.05,3.25l0.09,3.26
			c0.13,4.35,0.17,8.69,0.6,13.01c0.35,4.32,0.6,8.62,1.24,12.87c0.94,8.51,2.47,16.82,3.96,24.84c0.88,3.99,1.74,7.91,2.59,11.75
			c0.22,0.96,0.41,1.92,0.65,2.86c0.25,0.94,0.5,1.87,0.74,2.8c0.49,1.86,0.98,3.69,1.46,5.5c1.8,7.27,4.01,14.01,5.91,20.26
			c0.48,1.56,0.96,3.09,1.42,4.58c0.52,1.48,1.02,2.92,1.51,4.33c0.98,2.82,1.91,5.49,2.79,8c1.68,5.04,3.42,9.34,4.8,12.9
			c2.76,7.12,4.34,11.18,4.34,11.18l0.04,0.11c0.69,1.78-0.19,3.79-1.97,4.48c-1.78,0.69-3.79-0.19-4.48-1.97
			c-0.01-0.01-0.02-0.04-0.02-0.06c0,0-1.53-4.14-4.2-11.39c-1.33-3.62-3.01-8-4.63-13.14c-0.84-2.56-1.74-5.27-2.68-8.14
			c-0.47-1.43-0.96-2.9-1.45-4.41c-0.44-1.52-0.9-3.08-1.36-4.67c-1.82-6.37-3.93-13.23-5.63-20.64c-0.45-1.84-0.91-3.71-1.38-5.6
			c-0.23-0.95-0.47-1.9-0.7-2.85c-0.23-0.96-0.4-1.94-0.61-2.91c-0.79-3.91-1.6-7.9-2.42-11.97c-1.37-8.18-2.78-16.63-3.59-25.31
			c-0.57-4.32-0.75-8.71-1.03-13.11c-0.36-4.39-0.33-8.83-0.38-13.26l-0.03-3.32c-0.02-1.11,0.07-2.21,0.11-3.32
			c0.09-2.21,0.19-4.42,0.28-6.63c0.04-2.21,0.3-4.4,0.51-6.59c0.21-2.19,0.42-4.37,0.63-6.54c1.24-8.64,2.66-17.14,5.03-25.13
			c1-4.04,2.47-7.88,3.71-11.68c0.72-1.87,1.49-3.7,2.22-5.51c0.38-0.9,0.72-1.82,1.12-2.7c0.42-0.87,0.83-1.74,1.24-2.6
			c0.41-0.86,0.82-1.72,1.22-2.57c0.4-0.85,0.8-1.7,1.26-2.5c0.89-1.62,1.77-3.23,2.64-4.8c0.89-1.56,1.87-3.03,2.78-4.51
			c0.47-0.73,0.9-1.47,1.38-2.17c0.49-0.69,0.98-1.38,1.46-2.06c1.86-2.76,3.9-5.23,5.78-7.61c2.01-2.28,3.88-4.47,5.81-6.37
			c3.8-3.86,7.36-6.97,10.48-9.29c3.1-2.35,5.67-4.01,7.48-5.07c0.91-0.52,1.6-0.91,2.11-1.17c0.49-0.25,0.74-0.37,0.74-0.37
			c0.51-0.25,1.12-0.05,1.38,0.46c0.25,0.5,0.05,1.11-0.44,1.37L281.61,30.42z"/>
	</g>
</g>
</svg>
