<?xml version="1.0" encoding="utf-8"?>
<!-- Generator: $$$/GeneralStr/196=Adobe Illustrator 27.6.0, SVG Export Plug-In . SVG Version: 6.00 Build 0)  -->
<svg version="1.1" id="Calque_1" xmlns="http://www.w3.org/2000/svg" xmlns:xlink="http://www.w3.org/1999/xlink" x="0px" y="0px"
	 viewBox="0 0 457.2 275.46" style="enable-background:new 0 0 457.2 275.46;" xml:space="preserve">
<style type="text/css">
	.st0{fill:#E2F2F8;}
	.st1{fill:url(#SVGID_1_);}
	.st2{fill:url(#SVGID_00000106148307925887941460000007812786145242128572_);}
	.st3{fill:url(#SVGID_00000103247186309115692760000013865778725496736640_);}
	.st4{fill:url(#SVGID_00000181797349740738526120000000635584329249948092_);}
	.st5{fill:url(#SVGID_00000049196993066539362720000015685246227914542995_);}
	.st6{fill:url(#SVGID_00000085213276802727914600000008570823251896449174_);}
	.st7{fill:url(#SVGID_00000011019564367770125810000005657113828728427413_);}
	.st8{fill:#6943D6;}
	.st9{fill:url(#SVGID_00000071541151381944067290000017739716546620835230_);}
	.st10{fill:url(#SVGID_00000073680366902320072110000015710350416622135206_);}
	.st11{fill:url(#SVGID_00000018209839157739615490000009595588902904477341_);}
	.st12{fill:url(#SVGID_00000105404578776859917370000011368216625018935449_);}
	.st13{fill:url(#SVGID_00000086663604597276982420000004665931268157392266_);}
	.st14{fill:url(#SVGID_00000005239698251719839760000010282774077838565044_);}
	.st15{fill:url(#SVGID_00000030460857545136446580000000480400803914305933_);}
	.st16{fill:#5247FD;}
	.st17{fill:url(#SVGID_00000048478171879705319010000008389965513776550295_);}
	.st18{fill:url(#SVGID_00000181796052501404282810000012520282926665651586_);}
	.st19{fill:url(#SVGID_00000000936348737184982720000017315806027770134954_);}
	.st20{fill:url(#SVGID_00000128481895037567962650000016702027476274299835_);}
	.st21{fill:url(#SVGID_00000069366170282364397870000010450446485905511855_);}
	.st22{fill:url(#SVGID_00000003823970662150894410000016875669229172649650_);}
	.st23{fill:url(#SVGID_00000080890178389881845320000000071009034804086171_);}
	.st24{fill:url(#SVGID_00000142170199389572767200000015177951363431683739_);}
	.st25{fill:url(#SVGID_00000123416471300014255910000015202257991670324142_);}
	.st26{fill:url(#SVGID_00000099649265000962721830000017803199041762820278_);}
	.st27{fill:url(#SVGID_00000114075011899617431590000013777396796229835445_);}
	.st28{fill:url(#SVGID_00000135659439021750030350000006997469073467336586_);}
	.st29{fill:url(#SVGID_00000160158446927832628030000002897828010216123541_);}
	.st30{fill:url(#SVGID_00000065070428926657744350000005279151423697456520_);}
	.st31{fill:url(#SVGID_00000109752317454451381110000003300917104848151938_);}
	.st32{fill:url(#SVGID_00000149384020079065932700000007968380197073071021_);}
	.st33{fill:url(#SVGID_00000034779873435761113160000000071762104270781367_);}
	.st34{fill:url(#SVGID_00000021828568953454751100000013106834622020341922_);}
	.st35{fill:url(#SVGID_00000132050388134305978980000014833603062539100862_);}
	.st36{fill:#FDC6AD;}
	.st37{fill:#3E3E7A;}
	.st38{fill:url(#SVGID_00000096037092589468178590000003761948154479939256_);}
	.st39{fill:url(#SVGID_00000170259369520106395940000010053256510245145239_);}
	.st40{fill:#200BB6;}
	.st41{fill:url(#SVGID_00000068647410184213772070000015346121034410842516_);}
	.st42{fill:#BA864D;}
	.st43{fill:#F0B29A;}
	.st44{fill:#414042;}
	.st45{fill:url(#SVGID_00000001654859943461163000000001007308546607833782_);}
	.st46{fill:url(#SVGID_00000008117909749465968500000000236789928161477529_);}
	.st47{fill:url(#SVGID_00000072963249333874431760000003946121139814328483_);}
	.st48{fill:#5353AB;}
	.st49{fill:#6D6DC9;}
	.st50{fill:url(#SVGID_00000044180281659383628730000008378272426552166296_);}
	.st51{fill:#CED1D2;}
	.st52{fill:#122B46;}
	.st53{fill:url(#SVGID_00000020370160779177012530000011901728083084268730_);}
	.st54{fill:url(#SVGID_00000080166550369338526950000010207064355937111475_);}
	.st55{fill:url(#SVGID_00000134933453714625700840000014225566987582076598_);}
	.st56{fill:url(#SVGID_00000165227265506405090480000001847971545559899527_);}
	.st57{fill:url(#SVGID_00000051347976441024213740000000635187648341564313_);}
	.st58{fill:url(#SVGID_00000032629902790805009900000011213877228355319461_);}
	.st59{fill:url(#SVGID_00000031175914274727489170000000379293204212383677_);}
	.st60{fill:url(#SVGID_00000072274809210747737930000009340060250279622580_);}
	.st61{fill:none;}
	.st62{fill:url(#SVGID_00000165206378704517207740000005649567204856332976_);}
	.st63{fill:url(#SVGID_00000066496503614415479020000006635241650173378983_);}
	.st64{fill:url(#SVGID_00000118375489208754090810000009226245460833413292_);}
	.st65{fill:url(#SVGID_00000033330621329778521970000000914823307005098398_);}
	.st66{fill:url(#SVGID_00000082370014125574215290000006207491777731401386_);}
	.st67{fill:url(#SVGID_00000064326373485686888510000013920097975987867815_);}
	.st68{fill:url(#SVGID_00000005971444689319277670000009395242678355407769_);}
	.st69{fill:url(#SVGID_00000147928853728848603500000005190412993825575592_);}
	.st70{fill:#9C61BA;}
	.st71{fill:url(#SVGID_00000158749421672602882780000001715609445829072269_);}
	.st72{fill:url(#SVGID_00000086681987673187911600000003494261989490929299_);}
	.st73{fill:url(#SVGID_00000060737277499551422220000012380100828338869933_);}
	.st74{fill:url(#SVGID_00000170278822020578872950000010253752182583855233_);}
	.st75{fill:#1D262C;}
	.st76{fill:#A3B5C4;}
</style>
<g>
	<path class="st0" d="M4.87,275.46h438.08c2.68,0,4.87-2.19,4.87-4.87v-1.24c0-2.68-2.19-4.87-4.87-4.87H4.87
		c-2.68,0-4.87,2.19-4.87,4.87v1.24C0,273.27,2.19,275.46,4.87,275.46z"/>
	<linearGradient id="SVGID_1_" gradientUnits="userSpaceOnUse" x1="230.4963" y1="263.6603" x2="230.4963" y2="-28.7111">
		<stop  offset="0" style="stop-color:#FFFFFF"/>
		<stop  offset="1" style="stop-color:#BBDFF2"/>
	</linearGradient>
	<path class="st1" d="M131.87,0.01l122.85,4.22c10.15,0.35,17.94,9.14,17.07,19.26l-1.47,17.09l116.73,4.8
		c14.24,0.58,25.48,12.3,25.48,26.55v19.61l10.25,1.44c12.62,1.77,22.01,12.57,22.01,25.31v55.38c0,14.19-11.11,25.89-25.28,26.62
		l-115.91,5.99l-6.1,27.12c-2.81,12.49-14.09,21.22-26.88,20.82l-122.2-3.85c-8.48-0.27-15.43-6.8-16.23-15.24l-1.27-13.44
		l-92.02,2.6c-12.75,0.36-23.15-10.13-22.68-22.88l1.71-46.35c0.37-9.9,7.76-18.12,17.57-19.53l9.38-1.34L43,68.61
		c-0.4-13.91,9.35-26.06,23.03-28.68l47.49-9.09V17.75C113.52,7.71,121.84-0.33,131.87,0.01z"/>
	
		<linearGradient id="SVGID_00000102531751209810546870000007929318843284018831_" gradientUnits="userSpaceOnUse" x1="227.3709" y1="159.2346" x2="227.3709" y2="-114.9558">
		<stop  offset="0" style="stop-color:#FFFFFF"/>
		<stop  offset="1" style="stop-color:#BBDFF2"/>
	</linearGradient>
	<path style="fill:url(#SVGID_00000102531751209810546870000007929318843284018831_);" d="M134.88,24.23l115.21,3.96
		c9.52,0.33,16.83,8.57,16.01,18.06l-1.38,16.02l109.47,4.5c13.35,0.55,23.9,11.53,23.9,24.9v18.39l9.61,1.35
		c11.84,1.66,20.64,11.78,20.64,23.73v51.94c0,13.31-10.42,24.28-23.71,24.97l-108.7,5.62l-5.72,25.43
		c-2.63,11.71-13.21,19.9-25.21,19.52l-114.6-3.61c-7.95-0.25-14.47-6.38-15.22-14.3l-1.19-12.61l-86.3,2.44
		c-11.96,0.34-21.71-9.5-21.27-21.46l1.6-43.47c0.34-9.28,7.28-16.99,16.48-18.31l8.8-1.26l-1.76-61.5
		c-0.37-13.05,8.77-24.44,21.59-26.89l44.54-8.53V40.86C117.67,31.45,125.47,23.91,134.88,24.23z"/>
	<g>
		
			<linearGradient id="SVGID_00000051381572188978941900000013588735550231309230_" gradientUnits="userSpaceOnUse" x1="81.3081" y1="129.3551" x2="377.7174" y2="129.3551">
			<stop  offset="0" style="stop-color:#FFFFFF"/>
			<stop  offset="1" style="stop-color:#BBDFF2"/>
		</linearGradient>
		<path style="fill:url(#SVGID_00000051381572188978941900000013588735550231309230_);" d="M124.05,72.81
			c22.85-18.62-2.85-35.93,10.17-53.08c12.36-16.29,45.95-13.12,63.42-12.27c20.96,1.02,120.02,0.68,131.73,12.35
			c10.51,10.47,11.9,27.86,9.3,39.39c-3.75,16.68,12.83,16.9,21.5,28.16c18.83,24.48-7.18,51.84-1.53,72.56
			c7.41,27.16,32.31,43.91,9.97,69.48c-11.97,13.7-25.04,17.85-43.53,20.11c-31.31,3.81-66.1,2.35-97.8,2
			c-30.15-0.34-63.11-4.47-92.29-11.63c-19.75-4.85-58.06-8.61-53.28-37.65c2.87-17.4,28.7-54.97,15.46-81.6
			C89.22,104.61,105.05,88.29,124.05,72.81z"/>
		
			<linearGradient id="SVGID_00000079462959321088261150000010902261088320813745_" gradientUnits="userSpaceOnUse" x1="231.1783" y1="0.3702" x2="231.1783" y2="244.6035" gradientTransform="matrix(0.9999 0.0133 -0.0133 0.9999 1.8936 3.9348)">
			<stop  offset="0" style="stop-color:#FACF5C"/>
			<stop  offset="0.3708" style="stop-color:#FD8378"/>
			<stop  offset="1" style="stop-color:#4333EF"/>
		</linearGradient>
		<path style="fill:url(#SVGID_00000079462959321088261150000010902261088320813745_);" d="M347.73,74.03
			c-27.67-10.15-3.66-34.18-16.22-51.68C319.59,5.74,285.92,8.02,268.44,8.4c-20.98,0.46-42.88,0.58-63.66,3.42
			c-15.47,2.11-42.69,2.99-54.71,14.35c-10.78,10.18-5.39,17.83-3.21,29.45c4.45,23.73-32.19,33.61-46.9,46.55
			c-19.82,17.44,2.57,32.76-3.64,53.32c-8.13,26.95-26.36,44.07-4.7,70.22c11.6,14.01,24.56,18.51,42.98,21.26
			c31.19,4.65,66.01,4.11,97.71,4.6c30.15,0.46,63.21-2.79,92.57-9.17c19.88-4.32,58.27-7.06,54.26-36.22
			c-2.4-17.47-18.18-26.55-26.28-40.04c-9.47-15.78,0-32.17,6.46-46.73C366.57,103.07,362.61,79.62,347.73,74.03z"/>
		
			<linearGradient id="SVGID_00000150783282063963092360000002881553970468983171_" gradientUnits="userSpaceOnUse" x1="194.9387" y1="215.3031" x2="194.9387" y2="96.613">
			<stop  offset="0" style="stop-color:#FACF5C"/>
			<stop  offset="0.3708" style="stop-color:#FD8378"/>
			<stop  offset="1" style="stop-color:#4333EF"/>
		</linearGradient>
		<path style="fill:url(#SVGID_00000150783282063963092360000002881553970468983171_);" d="M105.21,138.02
			c8.23-1.57,14.16,4.61,14.56,5c0.36-1.27,3.95-12.93,15.58-17.06c7.35-2.62,13.83-0.75,16.06,0c-1.48-3.98-0.69-8.41,2.02-11.57
			c2.92-3.41,7.66-4.79,12.06-3.5c4.97-7.69,14.1-11.66,23.09-10.07c8.86,1.6,15.97,8.32,18.08,17.09c2.68-4.01,7.5-6.03,12.06-5.03
			c4.07,0.87,7.32,3.98,8.56,8.05c5.55-5.79,13.95-7.96,21.58-5.52c6.79,2.14,11.98,7.61,13.89,14.41
			c5.46-4.31,12.8-5.94,19.63-3.79c10.22,3.22,16.65,14.06,14.43,25.04c-11.19,0-22.38,0-33.58,0l-13.95,20.3H92.64
			C93.87,144.41,98.94,139.2,105.21,138.02z"/>
		
			<linearGradient id="SVGID_00000168826450790721417290000007918861911054506427_" gradientUnits="userSpaceOnUse" x1="310.467" y1="247.5138" x2="310.467" y2="93.1411">
			<stop  offset="0" style="stop-color:#FACF5C"/>
			<stop  offset="0.3708" style="stop-color:#FD8378"/>
			<stop  offset="1" style="stop-color:#4333EF"/>
		</linearGradient>
		<path style="fill:url(#SVGID_00000168826450790721417290000007918861911054506427_);" d="M220.74,140.83
			c8.23-1.57,14.16,4.61,14.56,5c0.36-1.27,3.95-12.93,15.58-17.06c7.35-2.62,13.83-0.75,16.06,0c-1.48-3.98-0.69-8.41,2.02-11.57
			c2.92-3.41,7.66-4.79,12.06-3.5c4.97-7.69,14.1-11.66,23.09-10.07c8.86,1.6,15.97,8.32,18.08,17.09c2.68-4.01,7.5-6.03,12.06-5.03
			c4.07,0.87,7.32,3.98,8.56,8.05c5.55-5.79,13.95-7.96,21.58-5.52c6.79,2.14,11.98,7.61,13.89,14.41
			c5.46-4.31,12.8-5.94,19.63-3.79c10.22,3.22,16.65,14.06,14.43,25.04c-11.37,70.07-204.26,38.72-204.16,0
			C209.4,147.22,214.47,142,220.74,140.83z"/>
		<g>
			<g>
				
					<linearGradient id="SVGID_00000071524001809954006510000010404121049897282193_" gradientUnits="userSpaceOnUse" x1="368.6787" y1="766.9536" x2="368.6787" y2="729.3589" gradientTransform="matrix(0.9813 -0.1924 0.1924 0.9813 -172.8422 -524.6151)">
					<stop  offset="0" style="stop-color:#FACF5C"/>
					<stop  offset="0.3708" style="stop-color:#FD8378"/>
					<stop  offset="1" style="stop-color:#4333EF"/>
				</linearGradient>
				<path style="fill:url(#SVGID_00000071524001809954006510000010404121049897282193_);" d="M338.52,138.37
					c0,0,9.62-10.24,6.73-12.8c-2-1.78-6.27,4.11-6.29,4.1c0,0,2.83-11.32-2.39-10.92c-3.97,0.52-3.75,10.17-3.78,10.17
					c0,0-2.56-5.57-5.06-3.96c-3.62,2.32,2.12,11.41,2.12,11.41c0,0-4.09-5.05-6.22-2.42c-2.8,3.45,2.59,11.39,2.59,11.39
					s-7.73-3.33-6.88,2.03c0.63,3.96,2.84,7.87,5.95,10.47c4.1,2.06,15.75-1.79,15.23-6.82c-0.32-3.09-5.77-1.94-5.77-1.94
					c3.87-1.5,12.11-5.72,10.89-10.71C344.78,134.78,338.53,138.37,338.52,138.37z"/>
				<path class="st8" d="M332.68,153.69c-0.89,0.22-1.78,0.36-2.66,0.43c-0.68,0.06-1.35,0.05-2.01-0.01
					c1.57-2.99,2.93-6.08,4.08-9.25c0.91-0.08,1.83-0.23,2.73-0.47c0.99-0.27,2-0.64,2.97-1.11c0.97-0.47,1.93-1.04,2.84-1.71
					c0.92-0.67,1.8-1.43,2.62-2.31c-0.83,0.85-1.74,1.57-2.66,2.2c-0.93,0.63-1.88,1.16-2.85,1.58c-0.97,0.42-1.97,0.75-2.94,0.98
					c-0.84,0.19-1.69,0.3-2.53,0.35c0.88-2.45,1.64-5,2.23-7.54c0.9-0.44,1.8-0.92,2.64-1.55c0.45-0.3,0.87-0.67,1.29-1.02
					c0.41-0.38,0.83-0.76,1.21-1.17c0.77-0.82,1.52-1.73,2.19-2.71c0.67-0.98,1.28-2.03,1.8-3.16c-0.54,1.1-1.18,2.12-1.87,3.07
					c-0.69,0.95-1.46,1.81-2.24,2.59c-0.39,0.39-0.81,0.75-1.23,1.11c-0.43,0.33-0.85,0.68-1.3,0.96c-0.76,0.53-1.56,0.94-2.36,1.31
					c1.06-5,1.67-9.92,1.89-15.03c-0.35,5.09-1.1,9.99-2.29,14.95c-0.55-0.65-1.09-1.31-1.58-2.02c-0.57-0.82-1.12-1.65-1.63-2.5
					c-0.51-0.85-1.01-1.72-1.49-2.59c-0.48-0.87-0.94-1.75-1.37-2.64c0.4,0.91,0.83,1.81,1.27,2.7c0.45,0.89,0.92,1.79,1.4,2.67
					c0.48,0.88,1.01,1.75,1.55,2.6c0.52,0.82,1.09,1.59,1.69,2.34c-0.66,2.52-1.49,5.05-2.44,7.48c-0.66-0.47-1.28-1.01-1.84-1.61
					c-0.64-0.7-1.25-1.47-1.8-2.27c-0.55-0.8-1.07-1.63-1.56-2.47c-0.49-0.84-0.95-1.7-1.37-2.57c0.39,0.89,0.82,1.76,1.28,2.63
					c0.46,0.87,0.95,1.73,1.47,2.56c0.53,0.83,1.11,1.64,1.74,2.39c0.56,0.67,1.21,1.28,1.9,1.81c-1.22,3.09-2.65,6.11-4.27,9.01
					c-0.48-0.58-0.95-1.17-1.38-1.79c-0.54-0.78-1.07-1.58-1.56-2.4c-0.49-0.82-0.97-1.65-1.43-2.49c-0.46-0.84-0.9-1.68-1.32-2.53
					c0.38,0.87,0.8,1.73,1.22,2.59c0.43,0.86,0.88,1.71,1.34,2.56c0.46,0.85,0.96,1.68,1.47,2.5c0.43,0.69,0.91,1.36,1.41,2
					c-1.91,3.4-4.15,6.63-6.58,9.68c0.4,0.31,0.6,0.46,1,0.77c2.38-3.17,4.56-6.51,6.41-10.01c0.73,0.04,1.47,0.02,2.21-0.07
					c0.9-0.11,1.8-0.29,2.7-0.56c0.9-0.26,1.79-0.59,2.68-0.98c0.88-0.39,1.76-0.84,2.62-1.36c-0.87,0.49-1.75,0.89-2.64,1.24
					C334.46,153.19,333.57,153.47,332.68,153.69z"/>
			</g>
		</g>
		<g>
			<g>
				
					<linearGradient id="SVGID_00000158736159628185411190000003094880245751966870_" gradientUnits="userSpaceOnUse" x1="-1162.5797" y1="319.5825" x2="-1162.5797" y2="284.1881" gradientTransform="matrix(-0.9255 -0.3788 -0.3788 0.9255 -815.7754 -586.0789)">
					<stop  offset="0" style="stop-color:#FACF5C"/>
					<stop  offset="0.3708" style="stop-color:#FD8378"/>
					<stop  offset="1" style="stop-color:#4333EF"/>
				</linearGradient>
				<path style="fill:url(#SVGID_00000158736159628185411190000003094880245751966870_);" d="M140.68,132.44
					c0,0-7.02-11.21-3.89-13.05c2.17-1.28,5.04,4.94,5.06,4.94c0,0-0.55-10.97,4.2-9.65c3.57,1.2,1.61,10.07,1.64,10.08
					c0,0,3.38-4.68,5.4-2.74c2.92,2.81-4.04,10.15-4.04,10.15s4.7-3.92,6.18-1.1c1.95,3.7-4.47,10.05-4.47,10.05
					s7.75-1.67,5.98,3.13c-1.3,3.54-4.05,6.75-7.41,8.59c-4.16,1.16-14.22-4.53-12.82-9.08c0.86-2.8,5.69-0.74,5.69-0.74
					c-3.3-2.09-10.14-7.49-8.11-11.88C135.55,127.99,140.68,132.44,140.68,132.44z"/>
				<path class="st8" d="M143.28,147.66c0.78,0.37,1.58,0.66,2.38,0.89c0.61,0.18,1.24,0.29,1.85,0.36c-0.9-3.04-1.6-6.15-2.08-9.29
					c-0.82-0.24-1.65-0.54-2.43-0.93c-0.86-0.43-1.73-0.96-2.54-1.57c-0.81-0.61-1.59-1.31-2.32-2.1c-0.72-0.79-1.41-1.65-2-2.61
					c0.62,0.94,1.32,1.77,2.06,2.51c0.74,0.75,1.53,1.41,2.35,1.98c0.82,0.57,1.68,1.05,2.54,1.44c0.74,0.33,1.5,0.58,2.27,0.79
					c-0.37-2.42-0.6-4.92-0.69-7.37c-0.76-0.57-1.49-1.18-2.15-1.91c-0.36-0.36-0.68-0.78-1.01-1.18c-0.31-0.43-0.63-0.85-0.91-1.31
					c-0.56-0.9-1.09-1.87-1.53-2.9c-0.44-1.03-0.82-2.11-1.08-3.24c0.3,1.12,0.71,2.18,1.17,3.18c0.47,1,1.02,1.94,1.6,2.8
					c0.29,0.43,0.62,0.84,0.93,1.25c0.34,0.38,0.66,0.78,1.02,1.12c0.6,0.63,1.27,1.15,1.94,1.64c-0.06-4.81,0.26-9.47,1-14.23
					c-0.6,4.77-0.8,9.43-0.61,14.23c0.63-0.5,1.24-1.01,1.83-1.58c0.67-0.65,1.33-1.32,1.96-2.02c0.63-0.69,1.25-1.4,1.85-2.12
					c0.6-0.72,1.19-1.44,1.74-2.19c-0.53,0.77-1.09,1.52-1.67,2.26c-0.57,0.74-1.17,1.48-1.78,2.21c-0.61,0.73-1.25,1.43-1.91,2.12
					c-0.63,0.66-1.3,1.27-1.99,1.86c0.15,2.45,0.45,4.94,0.89,7.35c0.69-0.31,1.37-0.7,1.99-1.15c0.72-0.53,1.42-1.13,2.08-1.77
					c0.65-0.63,1.29-1.31,1.89-2c0.6-0.69,1.19-1.39,1.74-2.12c-0.52,0.75-1.08,1.48-1.66,2.2c-0.58,0.72-1.19,1.42-1.83,2.09
					c-0.64,0.67-1.32,1.32-2.04,1.89c-0.64,0.51-1.35,0.96-2.08,1.33c0.56,3.08,1.33,6.12,2.31,9.1c0.55-0.44,1.09-0.91,1.6-1.4
					c0.64-0.62,1.28-1.27,1.88-1.93c0.6-0.67,1.2-1.35,1.77-2.03c0.57-0.69,1.14-1.39,1.68-2.1c-0.51,0.73-1.05,1.46-1.6,2.17
					c-0.55,0.72-1.12,1.42-1.7,2.12c-0.58,0.7-1.19,1.38-1.82,2.04c-0.53,0.56-1.09,1.09-1.66,1.59c1.15,3.49,2.62,6.88,4.31,10.14
					c-0.43,0.21-0.64,0.32-1.07,0.53c-1.62-3.36-3.03-6.84-4.09-10.42c-0.68-0.1-1.36-0.25-2.03-0.47c-0.81-0.27-1.61-0.6-2.39-1.01
					c-0.78-0.41-1.55-0.87-2.29-1.39c-0.75-0.52-1.48-1.1-2.17-1.74c0.71,0.61,1.45,1.14,2.21,1.63
					C141.73,146.87,142.5,147.3,143.28,147.66z"/>
			</g>
		</g>
		<g>
			<g>
				
					<linearGradient id="SVGID_00000137836757736104653860000010287212825579019450_" gradientUnits="userSpaceOnUse" x1="-1172.7579" y1="312.0424" x2="-1172.7579" y2="261.7827" gradientTransform="matrix(-0.9255 -0.3788 -0.3788 0.9255 -815.7754 -586.0789)">
					<stop  offset="0" style="stop-color:#FACF5C"/>
					<stop  offset="0.3708" style="stop-color:#FD8378"/>
					<stop  offset="1" style="stop-color:#4333EF"/>
				</linearGradient>
				<path style="fill:url(#SVGID_00000137836757736104653860000010287212825579019450_);" d="M153.6,121.91
					c0,0-9.97-15.92-5.52-18.54c3.08-1.81,7.16,7.01,7.19,7.01c0,0-0.79-15.58,5.96-13.71c5.07,1.71,2.28,14.31,2.32,14.32
					c0,0,4.8-6.64,7.67-3.89c4.15,3.99-5.74,14.42-5.74,14.42s6.67-5.56,8.78-1.56c2.78,5.25-6.35,14.27-6.35,14.27
					s11-2.37,8.49,4.44c-1.85,5.02-5.76,9.58-10.52,12.19c-5.91,1.65-20.19-6.43-18.21-12.89c1.22-3.97,8.08-1.05,8.08-1.05
					c-4.69-2.97-14.4-10.63-11.51-16.86C146.32,115.58,153.6,121.91,153.6,121.91z"/>
				<path class="st8" d="M157.3,143.52c1.11,0.52,2.24,0.93,3.37,1.26c0.87,0.25,1.76,0.41,2.63,0.51
					c-1.28-4.32-2.27-8.73-2.95-13.19c-1.17-0.35-2.34-0.77-3.45-1.32c-1.22-0.61-2.45-1.36-3.61-2.22
					c-1.15-0.86-2.26-1.86-3.29-2.98c-1.03-1.11-2-2.34-2.84-3.71c0.87,1.33,1.87,2.51,2.92,3.57c1.05,1.06,2.17,2,3.33,2.81
					c1.16,0.81,2.39,1.5,3.61,2.05c1.05,0.47,2.14,0.83,3.22,1.12c-0.52-3.44-0.85-6.99-0.98-10.47c-1.07-0.81-2.12-1.68-3.06-2.72
					c-0.51-0.51-0.96-1.11-1.43-1.68c-0.44-0.61-0.89-1.21-1.29-1.85c-0.8-1.27-1.55-2.66-2.18-4.12c-0.62-1.46-1.16-2.99-1.54-4.6
					c0.43,1.59,1,3.09,1.66,4.51c0.66,1.42,1.45,2.76,2.27,3.98c0.41,0.62,0.87,1.19,1.32,1.77c0.48,0.54,0.94,1.11,1.45,1.59
					c0.86,0.89,1.8,1.64,2.76,2.33c-0.09-6.83,0.37-13.45,1.41-20.2c-0.86,6.77-1.14,13.39-0.86,20.2c0.89-0.7,1.77-1.44,2.59-2.24
					c0.95-0.92,1.89-1.87,2.78-2.86c0.89-0.99,1.77-1.99,2.62-3.01c0.85-1.02,1.68-2.05,2.48-3.11c-0.76,1.09-1.55,2.15-2.37,3.21
					c-0.82,1.06-1.67,2.1-2.53,3.14c-0.86,1.03-1.78,2.03-2.71,3.01c-0.89,0.94-1.84,1.8-2.82,2.64c0.22,3.48,0.64,7.01,1.27,10.44
					c0.98-0.44,1.95-0.99,2.83-1.64c1.02-0.75,2.02-1.61,2.95-2.51c0.93-0.9,1.83-1.86,2.68-2.84c0.86-0.98,1.69-1.98,2.47-3.01
					c-0.74,1.07-1.54,2.1-2.36,3.12c-0.82,1.02-1.69,2.02-2.59,2.97c-0.9,0.95-1.88,1.87-2.9,2.68c-0.91,0.73-1.91,1.36-2.96,1.89
					c0.8,4.38,1.89,8.7,3.27,12.92c0.78-0.63,1.55-1.29,2.28-1.99c0.91-0.88,1.81-1.8,2.67-2.74c0.85-0.95,1.7-1.91,2.52-2.89
					c0.82-0.98,1.62-1.97,2.38-2.98c-0.73,1.04-1.49,2.07-2.27,3.08c-0.78,1.02-1.59,2.02-2.42,3.01c-0.82,0.99-1.69,1.96-2.58,2.9
					c-0.75,0.8-1.55,1.54-2.36,2.26c1.63,4.96,3.73,9.77,6.12,14.41c-0.61,0.3-0.91,0.45-1.52,0.75c-2.3-4.77-4.3-9.72-5.81-14.8
					c-0.97-0.14-1.94-0.35-2.89-0.67c-1.14-0.38-2.29-0.85-3.39-1.43c-1.11-0.58-2.2-1.23-3.26-1.97c-1.06-0.74-2.1-1.56-3.08-2.47
					c1.01,0.86,2.07,1.62,3.14,2.31C155.09,142.4,156.19,143,157.3,143.52z"/>
			</g>
		</g>
		<g>
			<g>
				
					<linearGradient id="SVGID_00000128486834578819620860000003462679430703640214_" gradientUnits="userSpaceOnUse" x1="-241.199" y1="689.652" x2="-241.199" y2="632.5555" gradientTransform="matrix(0.9255 -0.3788 0.3788 0.9255 228.2976 -586.0789)">
					<stop  offset="0" style="stop-color:#FACF5C"/>
					<stop  offset="0.3708" style="stop-color:#FD8378"/>
					<stop  offset="1" style="stop-color:#4333EF"/>
				</linearGradient>
				<path style="fill:url(#SVGID_00000128486834578819620860000003462679430703640214_);" d="M263.82,115.11
					c0,0,11.32-18.08,6.27-21.06c-3.5-2.06-8.14,7.97-8.17,7.96c0,0,0.89-17.7-6.77-15.57c-5.76,1.94-2.59,16.25-2.64,16.27
					c0,0-5.45-7.54-8.71-4.42c-4.72,4.53,6.52,16.38,6.52,16.38s-7.57-6.32-9.98-1.78c-3.15,5.96,7.22,16.21,7.22,16.21
					s-12.5-2.7-9.65,5.05c2.1,5.71,6.54,10.89,11.95,13.85c6.71,1.87,22.94-7.3,20.68-14.65c-1.39-4.51-9.18-1.2-9.18-1.2
					c5.32-3.37,16.36-12.08,13.08-19.16C272.09,107.92,263.82,115.11,263.82,115.11z"/>
				<path class="st8" d="M259.62,139.66c-1.26,0.59-2.55,1.06-3.83,1.43c-0.99,0.28-1.99,0.47-2.99,0.58
					c1.46-4.91,2.58-9.92,3.36-14.98c1.33-0.39,2.66-0.88,3.92-1.5c1.39-0.69,2.79-1.54,4.1-2.53c1.31-0.98,2.57-2.12,3.74-3.38
					c1.17-1.27,2.27-2.66,3.22-4.22c-0.99,1.51-2.12,2.85-3.32,4.05c-1.19,1.21-2.47,2.28-3.79,3.19c-1.32,0.92-2.72,1.7-4.1,2.32
					c-1.19,0.53-2.43,0.94-3.66,1.27c0.6-3.91,0.97-7.94,1.11-11.89c1.22-0.92,2.41-1.91,3.47-3.09c0.58-0.58,1.09-1.26,1.62-1.91
					c0.5-0.69,1.01-1.38,1.47-2.11c0.91-1.45,1.76-3.02,2.47-4.68c0.71-1.66,1.32-3.4,1.75-5.23c-0.48,1.81-1.14,3.51-1.89,5.12
					c-0.75,1.61-1.64,3.13-2.58,4.52c-0.47,0.7-0.99,1.36-1.5,2.01c-0.54,0.61-1.07,1.26-1.65,1.81c-0.97,1.01-2.04,1.86-3.13,2.64
					c0.1-7.76-0.42-15.28-1.61-22.95c0.97,7.69,1.29,15.21,0.98,22.95c-1.01-0.8-2.01-1.64-2.95-2.55
					c-1.08-1.05-2.15-2.13-3.16-3.25c-1.01-1.12-2.02-2.26-2.98-3.42c-0.96-1.16-1.91-2.33-2.81-3.53c0.86,1.24,1.77,2.45,2.69,3.65
					c0.93,1.2,1.89,2.39,2.87,3.56c0.98,1.17,2.02,2.31,3.08,3.42c1.01,1.06,2.09,2.05,3.21,3c-0.25,3.95-0.73,7.97-1.44,11.86
					c-1.12-0.5-2.21-1.12-3.22-1.86c-1.16-0.85-2.29-1.83-3.35-2.85c-1.06-1.02-2.07-2.11-3.05-3.22c-0.97-1.11-1.92-2.25-2.8-3.42
					c0.84,1.21,1.75,2.39,2.68,3.54c0.94,1.15,1.92,2.29,2.95,3.37c1.03,1.08,2.13,2.12,3.29,3.05c1.03,0.83,2.18,1.55,3.36,2.14
					c-0.91,4.97-2.15,9.88-3.72,14.68c-0.89-0.71-1.76-1.46-2.59-2.26c-1.04-1-2.06-2.04-3.03-3.12c-0.97-1.07-1.93-2.17-2.86-3.28
					c-0.93-1.11-1.84-2.24-2.71-3.39c0.83,1.18,1.7,2.35,2.58,3.5c0.89,1.15,1.81,2.3,2.74,3.42c0.94,1.13,1.92,2.22,2.93,3.29
					c0.85,0.9,1.76,1.75,2.68,2.57c-1.85,5.63-4.23,11.1-6.95,16.36c0.69,0.34,1.03,0.51,1.72,0.86c2.61-5.42,4.88-11.04,6.6-16.81
					c1.1-0.16,2.2-0.4,3.28-0.76c1.3-0.43,2.6-0.97,3.85-1.63c1.26-0.66,2.5-1.4,3.7-2.24c1.2-0.84,2.38-1.77,3.5-2.8
					c-1.15,0.98-2.35,1.84-3.56,2.62C262.13,138.39,260.87,139.07,259.62,139.66z"/>
			</g>
		</g>
		
			<linearGradient id="SVGID_00000117674625402783260350000005079097220056961922_" gradientUnits="userSpaceOnUse" x1="206.3426" y1="274.806" x2="206.3426" y2="122.66">
			<stop  offset="0" style="stop-color:#FACF5C"/>
			<stop  offset="0.3708" style="stop-color:#FD8378"/>
			<stop  offset="1" style="stop-color:#4333EF"/>
		</linearGradient>
		<path style="fill:url(#SVGID_00000117674625402783260350000005079097220056961922_);" d="M94.45,163.33
			c10.3-1.96,17.72,5.77,18.22,6.26c0.45-1.58,4.94-16.18,19.5-21.34c9.2-3.28,17.31-0.94,20.1,0c-1.85-4.98-0.87-10.52,2.53-14.48
			c3.66-4.26,9.58-6,15.09-4.37c6.22-9.62,17.65-14.59,28.89-12.6c11.09,2,19.99,10.41,22.63,21.38c3.36-5.02,9.39-7.54,15.09-6.3
			c5.09,1.09,9.16,4.98,10.71,10.07c6.94-7.24,17.46-9.96,27-6.9c8.5,2.67,14.99,9.53,17.38,18.03c6.83-5.4,16.02-7.43,24.57-4.74
			c12.79,4.03,20.84,17.6,18.05,31.33c-2.68,13.3-70.63,27.57-132.44,27.57c-62.46,0-108.47,0.39-123.03-27.57
			C74.81,172.14,86.6,164.8,94.45,163.33z"/>
		<g>
			<g>
				
					<linearGradient id="SVGID_00000175290101389218927660000008420925385467034531_" gradientUnits="userSpaceOnUse" x1="-302.1234" y1="712.5873" x2="-302.1234" y2="616.9148" gradientTransform="matrix(0.9255 -0.3788 0.3788 0.9255 228.2976 -586.0789)">
					<stop  offset="0" style="stop-color:#FACF5C"/>
					<stop  offset="0.3708" style="stop-color:#FD8378"/>
					<stop  offset="1" style="stop-color:#4333EF"/>
				</linearGradient>
				<path style="fill:url(#SVGID_00000175290101389218927660000008420925385467034531_);" d="M214.44,140.19
					c0,0,18.98-30.3,10.5-35.28c-5.86-3.45-13.63,13.35-13.69,13.34c0,0,1.5-29.65-11.35-26.09c-9.65,3.25-4.34,27.23-4.42,27.26
					c0,0-9.14-12.64-14.6-7.4c-7.9,7.59,10.93,27.44,10.93,27.44c0,0-12.69-10.58-16.72-2.97c-5.28,9.99,12.09,27.16,12.09,27.16
					s-20.94-4.52-16.17,8.46c3.52,9.56,10.96,18.24,20.02,23.21c11.24,3.13,38.44-12.24,34.66-24.54
					c-2.32-7.56-15.38-2.01-15.38-2.01c8.92-5.65,27.41-20.24,21.92-32.1C228.3,128.14,214.44,140.19,214.44,140.19z"/>
				<path class="st8" d="M207.4,181.33c-2.11,0.99-4.27,1.78-6.42,2.39c-1.66,0.48-3.34,0.78-5.01,0.97
					c2.44-8.23,4.32-16.62,5.62-25.1c2.23-0.66,4.45-1.47,6.57-2.52c2.33-1.15,4.67-2.59,6.87-4.23c2.19-1.64,4.3-3.55,6.26-5.67
					c1.96-2.12,3.8-4.45,5.4-7.07c-1.66,2.54-3.56,4.77-5.56,6.79c-2,2.02-4.13,3.82-6.34,5.35c-2.21,1.53-4.55,2.85-6.87,3.89
					c-1.99,0.9-4.07,1.58-6.13,2.13c1-6.55,1.63-13.3,1.86-19.93c2.04-1.54,4.03-3.19,5.82-5.18c0.97-0.98,1.83-2.11,2.72-3.19
					c0.84-1.16,1.69-2.31,2.46-3.53c1.52-2.43,2.95-5.06,4.14-7.84c1.19-2.78,2.21-5.7,2.93-8.77c-0.81,3.03-1.91,5.88-3.16,8.59
					c-1.26,2.7-2.76,5.25-4.32,7.58c-0.79,1.17-1.66,2.27-2.52,3.38c-0.91,1.03-1.79,2.11-2.76,3.03c-1.63,1.7-3.42,3.12-5.25,4.43
					c0.17-13-0.71-25.6-2.69-38.45c1.63,12.89,2.17,25.48,1.64,38.45c-1.7-1.34-3.36-2.74-4.94-4.27c-1.82-1.76-3.6-3.57-5.3-5.45
					c-1.7-1.88-3.38-3.79-4.99-5.74c-1.62-1.94-3.2-3.91-4.71-5.92c1.44,2.07,2.96,4.1,4.51,6.11c1.55,2.01,3.17,4,4.81,5.97
					c1.64,1.97,3.38,3.87,5.16,5.74c1.7,1.78,3.51,3.43,5.37,5.02c-0.41,6.62-1.23,13.35-2.41,19.87c-1.87-0.84-3.7-1.88-5.39-3.11
					c-1.95-1.42-3.85-3.06-5.61-4.78c-1.77-1.72-3.48-3.54-5.11-5.4c-1.63-1.86-3.22-3.76-4.69-5.74c1.41,2.03,2.93,4,4.49,5.93
					c1.57,1.94,3.22,3.84,4.94,5.65c1.72,1.81,3.58,3.56,5.51,5.11c1.73,1.39,3.64,2.59,5.63,3.59c-1.52,8.33-3.6,16.55-6.23,24.6
					c-1.49-1.2-2.95-2.45-4.33-3.8c-1.74-1.68-3.45-3.42-5.08-5.22c-1.63-1.8-3.24-3.64-4.79-5.5c-1.55-1.86-3.08-3.75-4.54-5.67
					c1.38,1.98,2.84,3.93,4.33,5.87c1.49,1.93,3.03,3.85,4.6,5.74c1.57,1.89,3.22,3.72,4.91,5.51c1.43,1.51,2.94,2.94,4.5,4.31
					c-3.1,9.44-7.09,18.6-11.65,27.42c1.15,0.57,1.73,0.86,2.89,1.44c4.38-9.08,8.18-18.49,11.07-28.16
					c1.84-0.27,3.69-0.68,5.49-1.28c2.18-0.73,4.35-1.62,6.46-2.72c2.1-1.1,4.19-2.35,6.2-3.76c2.02-1.41,3.99-2.96,5.87-4.7
					c-1.93,1.64-3.93,3.09-5.97,4.4C211.6,179.2,209.5,180.34,207.4,181.33z"/>
			</g>
		</g>
		<g>
			<g>
				
					<linearGradient id="SVGID_00000158731796642534838690000004178088500167202718_" gradientUnits="userSpaceOnUse" x1="296.8939" y1="797.7033" x2="296.8939" y2="742.9825" gradientTransform="matrix(0.9813 -0.1924 0.1924 0.9813 -172.8422 -524.6151)">
					<stop  offset="0" style="stop-color:#FACF5C"/>
					<stop  offset="0.3708" style="stop-color:#FD8378"/>
					<stop  offset="1" style="stop-color:#4333EF"/>
				</linearGradient>
				<path style="fill:url(#SVGID_00000158731796642534838690000004178088500167202718_);" d="M274.92,173.84c0,0,14-14.9,9.8-18.63
					c-2.91-2.59-9.13,5.98-9.16,5.97c0,0,4.12-16.47-3.48-15.9c-5.77,0.75-5.45,14.8-5.5,14.81c0,0-3.73-8.11-7.37-5.77
					c-5.28,3.38,3.09,16.61,3.09,16.61c0,0-5.95-7.34-9.05-3.52c-4.07,5.02,3.78,16.58,3.78,16.58s-11.25-4.85-10.01,2.96
					c0.92,5.76,4.13,11.45,8.66,15.24c5.96,3,22.92-2.61,22.16-9.93c-0.47-4.5-8.41-2.83-8.41-2.83
					c5.63-2.18,17.62-8.32,15.85-15.58C284.03,168.61,274.92,173.84,274.92,173.84z"/>
				<path class="st8" d="M266.41,196.14c-1.29,0.32-2.59,0.52-3.87,0.63c-0.99,0.08-1.96,0.07-2.92-0.01
					c2.28-4.35,4.26-8.85,5.94-13.46c1.32-0.12,2.66-0.33,3.97-0.68c1.44-0.39,2.91-0.93,4.32-1.61c1.41-0.68,2.8-1.51,4.14-2.49
					c1.33-0.97,2.63-2.08,3.81-3.37c-1.21,1.24-2.53,2.28-3.87,3.2c-1.35,0.91-2.74,1.68-4.15,2.3c-1.41,0.62-2.87,1.1-4.28,1.42
					c-1.22,0.28-2.46,0.44-3.68,0.51c1.29-3.57,2.39-7.28,3.25-10.98c1.32-0.64,2.62-1.34,3.84-2.26c0.65-0.44,1.26-0.98,1.88-1.49
					c0.6-0.56,1.2-1.11,1.77-1.71c1.12-1.19,2.22-2.51,3.19-3.94c0.97-1.43,1.87-2.95,2.62-4.59c-0.79,1.61-1.72,3.09-2.73,4.47
					c-1.01,1.38-2.13,2.64-3.26,3.77c-0.57,0.57-1.19,1.09-1.79,1.62c-0.63,0.48-1.23,0.98-1.89,1.39c-1.1,0.77-2.26,1.37-3.44,1.9
					c1.54-7.28,2.44-14.44,2.75-21.88c-0.51,7.41-1.61,14.54-3.34,21.76c-0.8-0.94-1.58-1.91-2.3-2.94
					c-0.82-1.19-1.63-2.4-2.37-3.64c-0.74-1.24-1.48-2.5-2.17-3.77c-0.69-1.27-1.37-2.55-1.99-3.84c0.58,1.32,1.21,2.63,1.85,3.93
					c0.65,1.3,1.34,2.6,2.04,3.88c0.7,1.28,1.47,2.55,2.26,3.79c0.76,1.19,1.59,2.31,2.46,3.41c-0.96,3.67-2.17,7.36-3.55,10.88
					c-0.96-0.68-1.87-1.47-2.68-2.34c-0.94-1.02-1.82-2.14-2.62-3.3c-0.8-1.16-1.56-2.37-2.27-3.6c-0.71-1.22-1.39-2.47-2-3.74
					c0.56,1.29,1.2,2.57,1.86,3.83c0.67,1.26,1.38,2.51,2.14,3.72c0.76,1.21,1.61,2.39,2.53,3.48c0.82,0.97,1.76,1.86,2.76,2.64
					c-1.78,4.5-3.86,8.89-6.22,13.11c-0.7-0.84-1.38-1.7-2.01-2.61c-0.79-1.14-1.56-2.3-2.27-3.49c-0.71-1.19-1.42-2.4-2.08-3.62
					c-0.67-1.22-1.31-2.44-1.92-3.69c0.56,1.27,1.16,2.52,1.78,3.77c0.62,1.25,1.28,2.5,1.95,3.73c0.67,1.23,1.39,2.45,2.14,3.64
					c0.63,1.01,1.33,1.97,2.05,2.92c-2.78,4.95-6.04,9.65-9.57,14.1c0.58,0.45,0.88,0.68,1.46,1.13c3.46-4.61,6.64-9.47,9.33-14.58
					c1.06,0.05,2.14,0.03,3.22-0.11c1.3-0.17,2.62-0.43,3.93-0.81c1.3-0.38,2.61-0.85,3.9-1.42c1.29-0.57,2.57-1.22,3.81-1.99
					c-1.26,0.71-2.55,1.3-3.84,1.8C269.01,195.41,267.7,195.82,266.41,196.14z"/>
			</g>
		</g>
	</g>
	<g>
		<g>
			
				<linearGradient id="SVGID_00000120549725388055749770000002622585318978527160_" gradientUnits="userSpaceOnUse" x1="333.4768" y1="140.9583" x2="333.4768" y2="233.6909">
				<stop  offset="0" style="stop-color:#445DEF"/>
				<stop  offset="0.327" style="stop-color:#4333EF"/>
				<stop  offset="1" style="stop-color:#4C008A"/>
			</linearGradient>
			<path style="fill:url(#SVGID_00000120549725388055749770000002622585318978527160_);" d="M363.47,233.69h-26.73
				c0-14.33-9.44-28.45-16.49-40.49c-0.23-0.38-0.45-0.77-0.68-1.16c-6.08-10.5-13.98-20.25-16.32-32.47
				c-0.68-3.55-0.81-7.4,0.85-10.61c1.77-3.43,5.37-5.62,9.11-6.58C357.75,130.97,367.06,190.43,363.47,233.69z"/>
			<g>
				<path class="st16" d="M351.98,233.69h-1.15c-0.1-6.06-0.73-12.12-1.71-18.09c-1.18-7.22-2.97-14.33-5.3-21.25
					c-4.64-13.84-11.74-26.84-21.04-38.19c-0.76-0.97-0.09-1.49,0.71-0.63c10.17,10.76,17.93,23.91,22.63,38.05
					c2.36,7.07,4.04,14.36,4.98,21.74C351.89,221.42,352.26,227.56,351.98,233.69z"/>
			</g>
		</g>
		<g>
			
				<linearGradient id="SVGID_00000029024091402587523910000002814228928508250292_" gradientUnits="userSpaceOnUse" x1="394.3602" y1="125.2844" x2="394.3602" y2="233.6909">
				<stop  offset="0" style="stop-color:#445DEF"/>
				<stop  offset="0.327" style="stop-color:#4333EF"/>
				<stop  offset="1" style="stop-color:#4C008A"/>
			</linearGradient>
			<path style="fill:url(#SVGID_00000029024091402587523910000002814228928508250292_);" d="M388.32,233.69h-21.98
				c-3.58-33.07-2.6-115.99,45.29-107.85C448.37,132.09,389.26,179.86,388.32,233.69z"/>
			<g>
				<path class="st16" d="M400.34,144.11c-2.9,3.25-5.3,6.91-7.41,10.71c-2.11,3.79-3.9,7.77-5.39,11.85
					c-1.52,4.07-2.82,8.23-3.89,12.46c-1.08,4.22-2,8.48-2.73,12.78c-1.52,8.58-2.44,17.29-3.01,26.01
					c-0.33,5.26-0.55,10.51-0.6,15.77h-1.5c-0.2-5.29-0.19-10.58,0-15.88c0.34-8.81,1.16-17.63,2.71-26.34
					c0.75-4.36,1.73-8.68,2.9-12.95c1.15-4.28,2.56-8.49,4.24-12.6c0.8-2.07,1.76-4.07,2.71-6.08c1.04-1.97,2.04-3.94,3.23-5.81
					c2.32-3.78,4.94-7.4,8.08-10.54C400.61,142.49,401.23,143.05,400.34,144.11z"/>
			</g>
		</g>
		<g>
			
				<linearGradient id="SVGID_00000082360799412520314100000010994369062012099748_" gradientUnits="userSpaceOnUse" x1="405.1019" y1="186.6376" x2="405.1019" y2="233.6909">
				<stop  offset="0" style="stop-color:#445DEF"/>
				<stop  offset="0.327" style="stop-color:#4333EF"/>
				<stop  offset="1" style="stop-color:#4C008A"/>
			</linearGradient>
			<path style="fill:url(#SVGID_00000082360799412520314100000010994369062012099748_);" d="M411.88,233.69h-22.34
				c0,0-5.89-47.08,19.4-47.05C431.95,186.65,416.58,215.75,411.88,233.69z"/>
			<g>
				<path class="st16" d="M405.22,198.26c-3.32,10.59-4.73,21.69-5.52,32.73c-0.05,0.89-0.09,1.8-0.14,2.69h-1.94
					c0.03-0.96,0.08-1.9,0.14-2.84c0.81-11.17,2.68-22.38,6.78-32.86C404.89,197.18,405.5,197.43,405.22,198.26z"/>
			</g>
		</g>
		<g>
			
				<linearGradient id="SVGID_00000057117478471673931890000006097301430900344707_" gradientUnits="userSpaceOnUse" x1="311.3348" y1="185.6078" x2="311.3348" y2="233.6909">
				<stop  offset="0" style="stop-color:#445DEF"/>
				<stop  offset="0.327" style="stop-color:#4333EF"/>
				<stop  offset="1" style="stop-color:#4C008A"/>
			</linearGradient>
			<path style="fill:url(#SVGID_00000057117478471673931890000006097301430900344707_);" d="M327.14,233.69h-17.91
				c0-22.96-25.98-45.52-6.39-47.95c6.97-0.87,11.94,2.7,15.49,8.25C327.14,207.76,327.14,233.69,327.14,233.69z"/>
			<g>
				<path class="st16" d="M320.29,233.69h-1.15c-0.42-3.48-0.95-6.97-1.61-10.41c-1-4.82-2.23-9.57-3.87-14.2
					c-0.43-1.16-0.92-2.28-1.37-3.42c-0.23-0.57-0.44-1.15-0.7-1.7l-0.82-1.64l-0.81-1.65c-0.27-0.55-0.54-1.11-0.88-1.62
					l-1.93-3.14c-0.4-0.65-0.08-0.91,0.37-0.25l2.09,3.07c0.37,0.51,0.66,1.06,0.95,1.61l0.9,1.63l0.89,1.64
					c0.28,0.55,0.51,1.13,0.77,1.69c0.49,1.15,1.02,2.27,1.48,3.43c1.78,4.65,3.11,9.46,4.12,14.33
					C319.41,226.57,319.93,230.13,320.29,233.69z"/>
			</g>
		</g>
		<g>
			
				<linearGradient id="SVGID_00000165917723286498466140000017580867686502494617_" gradientUnits="userSpaceOnUse" x1="429.2673" y1="171.4046" x2="429.2673" y2="233.6909">
				<stop  offset="0" style="stop-color:#445DEF"/>
				<stop  offset="0.327" style="stop-color:#4333EF"/>
				<stop  offset="1" style="stop-color:#4C008A"/>
			</linearGradient>
			<path style="fill:url(#SVGID_00000165917723286498466140000017580867686502494617_);" d="M423.75,233.69h-13.04
				c0-34.54,13.22-62.65,31.78-62.28C461.06,171.77,425.23,209.62,423.75,233.69z"/>
			<g>
				<path class="st16" d="M436.13,181.46c-1.93,2.29-3.58,4.81-5.12,7.39c-0.37,0.65-0.76,1.28-1.14,1.94l-1.05,1.99
					c-0.73,1.31-1.33,2.69-1.98,4.04c-2.5,5.45-4.42,11.15-5.97,16.94c-1.62,6.54-2.71,13.2-3.3,19.93h-1
					c0.42-6.81,1.45-13.61,3.11-20.24c1.58-5.85,3.6-11.61,6.24-17.07c0.68-1.35,1.32-2.73,2.09-4.03l1.12-1.98
					c0.39-0.66,0.8-1.29,1.2-1.93c1.63-2.55,3.4-5.03,5.43-7.28C436.43,180.46,436.74,180.75,436.13,181.46z"/>
			</g>
		</g>
	</g>
	<g>
		<g>
			
				<linearGradient id="SVGID_00000011002935051243376880000003364020007633988741_" gradientUnits="userSpaceOnUse" x1="210.2574" y1="-109.3155" x2="252.7673" y2="-29.8259" gradientTransform="matrix(0.8818 0.4716 -0.4716 0.8818 65.1183 136.3231)">
				<stop  offset="0" style="stop-color:#23E4FD"/>
				<stop  offset="0.4804" style="stop-color:#4089FD"/>
				<stop  offset="0.8328" style="stop-color:#534CFD"/>
				<stop  offset="1" style="stop-color:#5A35FD"/>
			</linearGradient>
			<path style="fill:url(#SVGID_00000011002935051243376880000003364020007633988741_);" d="M323.04,221.39
				c0.57-1.82-0.5-3.67-0.62-3.87c1.61,0.41,3.07-0.39,3.61-1.86c0.55-1.51,0.02-3.37-1.29-4.55c1.65-0.5,2.79-1.91,3.01-3.61
				c0.27-2.14-0.94-4.43-3.04-5.58c3.01-2.28,4.27-6.18,3.39-9.69c-1.11-4.48-5.3-6.34-5.56-6.45c1.5-2.36,1.36-5.37-0.28-7.47
				c-1.42-1.82-3.8-2.72-6.08-2.18c1.91-2.56,2.11-5.97,0.61-8.51c-1.78-3.02-5.2-3.33-5.42-3.34c1.5-3.66,1.27-7.77-0.67-10.95
				c-2.21-3.62-5.78-4.37-6.35-4.47c0.07-0.4,0.62-3.72-1.16-6.47c-1.54-2.37-5.7-4.11-8.04-1.98c-1.37-1.18-4.83-2.06-7.15-0.41
				c-2,1.42-3.29,4.39-3.26,7.6c-3.62-1.07-7.36,1.79-8.44,6.78c-1,4.62,0.62,9.88,3.73,12.31c-0.36,0.15-3.31,1.44-4.09,5.92
				c-0.62,3.56,0.48,7.69,2.74,10.4c-0.3,0.28-2.95,2.79-2.52,7.89c0.35,4.04,2.59,7.99,5.55,9.91c-1.15,3.3-0.52,7.78,1.67,11.37
				c2.41,3.93,6.22,6.05,9.36,5.44c-0.35,3.22,1.74,6.95,4.33,8.24c2.13,1.06,4.24,0.35,5.17-1.68c0.81,2.64,3.04,4.76,5.13,5.03
				c1.72,0.23,3.1-0.79,3.58-2.52c0.85,1.35,2.16,2.28,3.37,2.36c1.6,0.11,4.3-1.94,4.31-4.69
				C320.47,224.7,322.55,222.94,323.04,221.39z"/>
			<path class="st16" d="M317.2,203.2c-0.95,1.62-1.94,3.25-3.01,4.8c-0.5,0.8-1.07,1.55-1.6,2.31c-0.34,0.48-0.71,0.96-1.07,1.43
				c-3.13-5.43-4.53-8.24-6.96-14.01c0.5-0.58,1.03-1.16,1.51-1.75c0.6-0.73,1.23-1.48,1.82-2.22c1.16-1.48,2.36-3.04,3.47-4.58
				c1.11-1.54,2.19-3.15,3.2-4.77c1.01-1.61,2-3.25,2.84-4.96c-0.89,1.67-1.93,3.27-3,4.83c-1.07,1.56-2.2,3.11-3.35,4.6
				c-1.15,1.48-2.41,2.97-3.61,4.37c-0.6,0.71-1.26,1.41-1.88,2.1c-0.44,0.49-0.92,0.97-1.38,1.45c-2.17-5.29-3.11-8-4.67-13.51
				c0.96-1.14,1.92-2.3,2.83-3.48c0.98-1.26,1.94-2.57,2.88-3.88c0.93-1.31,1.83-2.66,2.7-4.01c0.87-1.35,1.72-2.72,2.49-4.13
				c-0.82,1.37-1.72,2.69-2.64,3.99c-0.92,1.3-1.87,2.59-2.85,3.83c-0.98,1.24-1.99,2.49-3.01,3.68c-0.87,1.01-1.77,2-2.68,2.97
				c-1.87-6.84-2.57-10.34-3.46-17.43c1.85-1.81,3.62-3.73,5.29-5.75c1.71-2.06,4.87-6.4,4.87-6.4c0,0-3.25,4.24-5.01,6.23
				c-1.66,1.89-3.41,3.69-5.23,5.36c-0.91-7.52-1.09-11.34-0.84-19.01c-0.26,4.84-0.28,7.26-0.08,12.07
				c-1.97-0.58-3.9-1.41-5.78-2.45c-1.94-1.07-5.62-3.82-5.62-3.82c0,0,3.63,2.91,5.55,4.06c1.89,1.14,3.85,2.07,5.87,2.73
				c0.34,7.37,0.78,11.03,2.17,18.23c-1.21-0.21-2.42-0.46-3.62-0.81c-1.37-0.39-2.74-0.85-4.09-1.4c-2.7-1.1-5.38-2.46-7.97-4.17
				c2.54,1.87,5.19,3.4,7.89,4.66c1.35,0.63,2.72,1.17,4.09,1.64c1.29,0.44,2.59,0.78,3.89,1.07c1.2,5.94,1.98,8.87,3.89,14.62
				c-3.15,0.34-6.42,0.15-9.69-0.44c-3.49-0.62-7.02-1.65-10.49-3.15c3.46,1.67,6.99,2.87,10.5,3.66c3.34,0.75,6.7,1.08,9.99,0.85
				c1.99,5.84,3.16,8.71,5.85,14.28c-1.41,0.25-2.84,0.45-4.29,0.54c-1.73,0.1-3.51,0.12-5.3,0.01c-3.57-0.23-7.23-0.84-10.9-2
				c3.67,1.34,7.36,2.13,10.97,2.51c1.81,0.19,3.62,0.25,5.39,0.22c1.53-0.03,3.06-0.18,4.56-0.39
				c5.53,10.99,12.44,20.54,20.46,29.8c0.67-0.64,1.01-0.96,1.68-1.6c-6.65-7.34-12.73-14.81-17.77-23.37
				c0.39-0.57,0.8-1.15,1.17-1.73c0.51-0.8,1.05-1.59,1.52-2.43c1.01-1.62,1.95-3.32,2.84-4.99c0.9-1.68,1.74-3.42,2.52-5.16
				c0.78-1.74,1.53-3.5,2.13-5.3c-0.66,1.78-1.46,3.5-2.31,5.19C319.05,199.89,318.15,201.58,317.2,203.2z"/>
		</g>
	</g>
	<g>
		<g>
			
				<linearGradient id="SVGID_00000064321963873666062740000004132752745862011534_" gradientUnits="userSpaceOnUse" x1="188.4421" y1="-69.7693" x2="214.9635" y2="-20.1765" gradientTransform="matrix(0.8818 0.4716 -0.4716 0.8818 65.1183 136.3231)">
				<stop  offset="0" style="stop-color:#23E4FD"/>
				<stop  offset="0.4804" style="stop-color:#4089FD"/>
				<stop  offset="0.8328" style="stop-color:#534CFD"/>
				<stop  offset="1" style="stop-color:#5A35FD"/>
			</linearGradient>
			<path style="fill:url(#SVGID_00000064321963873666062740000004132752745862011534_);" d="M277.27,215.02
				c0.36-1.13-0.31-2.29-0.38-2.41c1,0.25,1.92-0.25,2.25-1.16c0.34-0.94,0.01-2.1-0.8-2.84c1.03-0.31,1.74-1.19,1.88-2.25
				c0.17-1.34-0.58-2.76-1.9-3.48c1.88-1.42,2.66-3.86,2.12-6.05c-0.69-2.79-3.31-3.96-3.47-4.03c0.94-1.47,0.85-3.35-0.17-4.66
				c-0.89-1.13-2.37-1.7-3.79-1.36c1.19-1.6,1.32-3.72,0.38-5.31c-1.11-1.88-3.24-2.08-3.38-2.09c0.94-2.29,0.79-4.85-0.42-6.83
				c-1.38-2.26-3.61-2.73-3.96-2.79c0.04-0.25,0.39-2.32-0.72-4.04c-0.96-1.48-3.56-2.57-5.02-1.24c-0.86-0.74-3.02-1.28-4.46-0.25
				c-1.25,0.89-2.05,2.74-2.04,4.74c-2.26-0.67-4.59,1.11-5.27,4.23c-0.62,2.88,0.38,6.17,2.33,7.68c-0.22,0.09-2.06,0.9-2.55,3.69
				c-0.39,2.22,0.3,4.8,1.71,6.49c-0.19,0.17-1.84,1.74-1.57,4.92c0.22,2.52,1.61,4.99,3.46,6.18c-0.72,2.06-0.33,4.85,1.05,7.09
				c1.5,2.45,3.88,3.77,5.84,3.39c-0.22,2.01,1.08,4.34,2.7,5.14c1.33,0.66,2.65,0.22,3.23-1.05c0.51,1.65,1.9,2.97,3.2,3.14
				c1.07,0.14,1.93-0.49,2.24-1.57c0.53,0.84,1.35,1.42,2.1,1.47c1,0.07,2.69-1.21,2.69-2.92
				C275.66,217.08,276.97,215.99,277.27,215.02z"/>
			<path class="st16" d="M273.63,203.67c-0.59,1.01-1.21,2.03-1.88,2.99c-0.31,0.5-0.67,0.97-1,1.44c-0.21,0.3-0.44,0.6-0.67,0.89
				c-1.96-3.39-2.83-5.14-4.34-8.74c0.31-0.36,0.64-0.72,0.94-1.09c0.37-0.46,0.77-0.92,1.13-1.39c0.72-0.92,1.47-1.9,2.16-2.86
				c0.69-0.96,1.37-1.97,2-2.98c0.63-1.01,1.25-2.03,1.77-3.1c-0.56,1.04-1.21,2.04-1.87,3.01c-0.67,0.98-1.37,1.94-2.09,2.87
				c-0.72,0.92-1.5,1.85-2.25,2.73c-0.38,0.44-0.79,0.88-1.18,1.31c-0.27,0.3-0.57,0.6-0.86,0.9c-1.36-3.3-1.94-4.99-2.91-8.43
				c0.6-0.71,1.2-1.44,1.77-2.17c0.61-0.78,1.21-1.61,1.8-2.42c0.58-0.82,1.14-1.66,1.69-2.5c0.54-0.84,1.07-1.7,1.55-2.58
				c-0.51,0.86-1.08,1.68-1.65,2.49c-0.57,0.81-1.17,1.61-1.78,2.39c-0.61,0.78-1.24,1.55-1.88,2.29c-0.54,0.63-1.11,1.25-1.67,1.86
				c-1.17-4.27-1.6-6.45-2.16-10.87c1.15-1.13,2.26-2.33,3.3-3.59c1.07-1.28,3.04-3.99,3.04-3.99c0,0-2.03,2.64-3.12,3.89
				c-1.04,1.18-2.13,2.3-3.26,3.35c-0.57-4.69-0.68-7.08-0.53-11.86c-0.16,3.02-0.17,4.53-0.05,7.53c-1.23-0.36-2.43-0.88-3.6-1.53
				c-1.21-0.67-3.51-2.38-3.51-2.38c0,0,2.26,1.81,3.46,2.53c1.18,0.71,2.4,1.29,3.66,1.7c0.21,4.6,0.49,6.88,1.36,11.37
				c-0.75-0.13-1.51-0.29-2.26-0.5c-0.85-0.25-1.71-0.53-2.55-0.88c-1.68-0.68-3.36-1.54-4.97-2.6c1.58,1.17,3.24,2.12,4.92,2.91
				c0.84,0.39,1.7,0.73,2.55,1.03c0.8,0.28,1.61,0.49,2.43,0.67c0.75,3.71,1.24,5.54,2.43,9.12c-1.96,0.21-4.01,0.09-6.05-0.27
				c-2.18-0.39-4.38-1.03-6.55-1.96c2.16,1.04,4.36,1.79,6.55,2.28c2.08,0.47,4.18,0.68,6.23,0.53c1.24,3.65,1.97,5.44,3.65,8.91
				c-0.88,0.16-1.77,0.28-2.68,0.33c-1.08,0.06-2.19,0.08-3.31,0.01c-2.23-0.14-4.51-0.52-6.8-1.25c2.29,0.84,4.59,1.33,6.85,1.57
				c1.13,0.12,2.26,0.16,3.36,0.14c0.96-0.02,1.91-0.11,2.85-0.24c3.45,6.85,7.76,12.81,12.77,18.59c0.42-0.4,0.63-0.6,1.05-1
				c-4.15-4.58-7.94-9.24-11.08-14.58c0.24-0.36,0.5-0.72,0.73-1.08c0.32-0.5,0.65-0.99,0.95-1.51c0.63-1.01,1.21-2.07,1.77-3.11
				c0.56-1.05,1.09-2.13,1.57-3.22c0.49-1.08,0.96-2.18,1.33-3.31c-0.41,1.11-0.91,2.18-1.44,3.24
				C274.78,201.6,274.22,202.66,273.63,203.67z"/>
		</g>
	</g>
	<g>
		<g>
			
				<linearGradient id="SVGID_00000093895926754908524680000017517239974221060998_" gradientUnits="userSpaceOnUse" x1="79.0259" y1="140.9583" x2="79.0259" y2="233.6909">
				<stop  offset="0" style="stop-color:#445DEF"/>
				<stop  offset="0.327" style="stop-color:#4333EF"/>
				<stop  offset="1" style="stop-color:#4C008A"/>
			</linearGradient>
			<path style="fill:url(#SVGID_00000093895926754908524680000017517239974221060998_);" d="M109.02,233.69H82.29
				c0-14.33-9.44-28.45-16.49-40.49c-0.23-0.38-0.45-0.77-0.68-1.16c-6.08-10.5-13.98-20.25-16.32-32.47
				c-0.68-3.55-0.81-7.4,0.85-10.61c1.77-3.43,5.37-5.62,9.11-6.58C103.3,130.97,112.61,190.43,109.02,233.69z"/>
			<g>
				<path class="st16" d="M97.53,233.69h-1.15c-0.1-6.06-0.73-12.12-1.71-18.09c-1.18-7.22-2.97-14.33-5.3-21.25
					c-4.64-13.84-11.74-26.84-21.03-38.19c-0.76-0.97-0.09-1.49,0.71-0.63c10.17,10.76,17.93,23.91,22.63,38.05
					c2.36,7.07,4.04,14.36,4.98,21.74C97.44,221.42,97.81,227.56,97.53,233.69z"/>
			</g>
		</g>
		<g>
			
				<linearGradient id="SVGID_00000060722871222756557640000008406882959679497406_" gradientUnits="userSpaceOnUse" x1="139.9093" y1="125.2844" x2="139.9093" y2="233.6909">
				<stop  offset="0" style="stop-color:#445DEF"/>
				<stop  offset="0.327" style="stop-color:#4333EF"/>
				<stop  offset="1" style="stop-color:#4C008A"/>
			</linearGradient>
			<path style="fill:url(#SVGID_00000060722871222756557640000008406882959679497406_);" d="M133.87,233.69h-21.98
				c-3.58-33.07-2.6-115.99,45.29-107.85C193.92,132.09,134.81,179.86,133.87,233.69z"/>
			<g>
				<path class="st16" d="M145.89,144.11c-2.9,3.25-5.3,6.91-7.41,10.71c-2.11,3.79-3.9,7.77-5.39,11.85
					c-1.52,4.07-2.82,8.23-3.89,12.46c-1.08,4.22-2,8.48-2.73,12.78c-1.52,8.58-2.44,17.29-3.01,26.01
					c-0.33,5.26-0.55,10.51-0.6,15.77h-1.5c-0.2-5.29-0.19-10.58,0-15.88c0.34-8.81,1.16-17.63,2.71-26.34
					c0.75-4.36,1.73-8.68,2.9-12.95c1.15-4.28,2.56-8.49,4.24-12.6c0.8-2.07,1.76-4.07,2.71-6.08c1.04-1.97,2.04-3.94,3.23-5.81
					c2.32-3.78,4.94-7.4,8.08-10.54C146.16,142.49,146.78,143.05,145.89,144.11z"/>
			</g>
		</g>
		<g>
			
				<linearGradient id="SVGID_00000028312471794806845680000001704482571904070312_" gradientUnits="userSpaceOnUse" x1="151.7386" y1="183.4716" x2="151.7386" y2="233.6909">
				<stop  offset="0" style="stop-color:#445DEF"/>
				<stop  offset="0.327" style="stop-color:#4333EF"/>
				<stop  offset="1" style="stop-color:#4C008A"/>
			</linearGradient>
			<path style="fill:url(#SVGID_00000028312471794806845680000001704482571904070312_);" d="M158.97,233.69h-23.85
				c0,0-6.29-50.25,20.7-50.22C180.39,183.49,163.99,214.54,158.97,233.69z"/>
			<g>
				<path class="st16" d="M151.86,195.88c-3.55,11.3-5.05,23.14-5.89,34.93c-0.05,0.95-0.1,1.92-0.15,2.88h-2.07
					c0.03-1.02,0.08-2.02,0.15-3.03c0.87-11.92,2.86-23.88,7.24-35.07C151.51,194.73,152.16,194.99,151.86,195.88z"/>
			</g>
		</g>
		<g>
			
				<linearGradient id="SVGID_00000131326906059281352400000017622334802756668308_" gradientUnits="userSpaceOnUse" x1="62.3281" y1="171.3691" x2="62.3281" y2="233.6909">
				<stop  offset="0" style="stop-color:#445DEF"/>
				<stop  offset="0.327" style="stop-color:#4333EF"/>
				<stop  offset="1" style="stop-color:#4C008A"/>
			</linearGradient>
			<path style="fill:url(#SVGID_00000131326906059281352400000017622334802756668308_);" d="M82.82,233.69H59.6
				c0-29.76-33.67-58.99-8.28-62.15c9.03-1.13,15.48,3.5,20.07,10.69C82.82,200.08,82.82,233.69,82.82,233.69z"/>
			<g>
				<path class="st16" d="M73.93,233.69h-1.48c-0.55-4.52-1.23-9.03-2.08-13.5c-1.29-6.24-2.89-12.41-5.01-18.41
					c-0.56-1.5-1.19-2.96-1.78-4.43c-0.3-0.74-0.57-1.48-0.91-2.21l-1.07-2.13l-1.05-2.14c-0.36-0.71-0.7-1.43-1.14-2.09l-2.5-4.07
					c-0.52-0.84-0.1-1.18,0.48-0.33l2.71,3.98c0.48,0.66,0.85,1.37,1.23,2.08l1.17,2.12l1.15,2.13c0.37,0.71,0.66,1.46,1,2.19
					c0.63,1.48,1.32,2.94,1.92,4.44c2.31,6.03,4.03,12.26,5.34,18.57C72.79,224.47,73.47,229.07,73.93,233.69z"/>
			</g>
		</g>
		<g>
			
				<linearGradient id="SVGID_00000011004993399055010280000014438203351975306915_" gradientUnits="userSpaceOnUse" x1="174.8164" y1="171.4046" x2="174.8164" y2="233.6909">
				<stop  offset="0" style="stop-color:#445DEF"/>
				<stop  offset="0.327" style="stop-color:#4333EF"/>
				<stop  offset="1" style="stop-color:#4C008A"/>
			</linearGradient>
			<path style="fill:url(#SVGID_00000011004993399055010280000014438203351975306915_);" d="M169.3,233.69h-13.04
				c0-34.54,13.22-62.65,31.78-62.28C206.61,171.77,170.78,209.62,169.3,233.69z"/>
			<g>
				<path class="st16" d="M181.67,181.46c-1.93,2.29-3.58,4.81-5.12,7.39c-0.37,0.65-0.76,1.28-1.14,1.94l-1.05,1.99
					c-0.73,1.31-1.33,2.69-1.98,4.04c-2.5,5.45-4.42,11.15-5.97,16.94c-1.62,6.54-2.71,13.2-3.3,19.93h-1
					c0.42-6.81,1.45-13.61,3.11-20.24c1.58-5.85,3.6-11.61,6.24-17.07c0.68-1.35,1.32-2.73,2.09-4.03l1.12-1.98
					c0.39-0.66,0.8-1.29,1.2-1.93c1.63-2.55,3.4-5.03,5.43-7.28C181.98,180.46,182.29,180.75,181.67,181.46z"/>
			</g>
		</g>
	</g>
	<g>
		<g>
			<g>
				
					<linearGradient id="SVGID_00000075152074530245558870000003686459616119160448_" gradientUnits="userSpaceOnUse" x1="190.7032" y1="7.2979" x2="190.7032" y2="49.7657" gradientTransform="matrix(0.9652 0.2616 -0.2616 0.9652 43.6435 97.4825)">
					<stop  offset="0" style="stop-color:#23E4FD"/>
					<stop  offset="0.4804" style="stop-color:#4089FD"/>
					<stop  offset="0.8328" style="stop-color:#534CFD"/>
					<stop  offset="1" style="stop-color:#5A35FD"/>
				</linearGradient>
				<path style="fill:url(#SVGID_00000075152074530245558870000003686459616119160448_);" d="M226.74,172.73
					c0,0,12.18-13.97,8.25-17.21c-2.72-2.24-8.07,5.73-8.1,5.72c0,0,3.18-15.06-3.69-14.29c-5.21,0.88-4.44,13.59-4.48,13.6
					c0,0-3.65-7.22-6.87-4.98c-4.66,3.24,3.36,14.94,3.36,14.94c0,0-5.64-6.45-8.32-2.88c-3.52,4.68,3.98,14.9,3.98,14.9
					s-10.36-4.02-8.97,3.02c1.02,5.18,4.13,10.23,8.36,13.52c5.5,2.52,20.68-3.14,19.75-9.74c-0.57-4.06-7.71-2.28-7.71-2.28
					c5.03-2.17,15.68-8.13,13.84-14.65C234.82,167.69,226.74,172.73,226.74,172.73z"/>
				<path class="st16" d="M219.78,193.23c-1.16,0.34-2.33,0.56-3.48,0.7c-0.89,0.11-1.78,0.13-2.64,0.09
					c1.92-4.02,3.57-8.16,4.92-12.4c1.19-0.16,2.4-0.39,3.57-0.75c1.29-0.4,2.6-0.94,3.86-1.61c1.26-0.66,2.49-1.47,3.67-2.39
					c1.18-0.93,2.31-1.97,3.34-3.18c-1.06,1.16-2.21,2.15-3.4,3.03c-1.19,0.87-2.43,1.62-3.68,2.22c-1.26,0.61-2.56,1.09-3.83,1.43
					c-1.09,0.3-2.21,0.48-3.31,0.59c1.05-3.28,1.92-6.68,2.57-10.05c1.17-0.62,2.33-1.31,3.4-2.18c0.58-0.42,1.11-0.93,1.65-1.41
					c0.52-0.52,1.05-1.04,1.54-1.61c0.98-1.12,1.93-2.35,2.76-3.68c0.83-1.32,1.59-2.74,2.22-4.25c-0.66,1.48-1.46,2.86-2.32,4.14
					c-0.86,1.28-1.84,2.46-2.83,3.53c-0.5,0.54-1.04,1.03-1.56,1.52c-0.55,0.45-1.09,0.93-1.66,1.33c-0.97,0.74-2.01,1.32-3.05,1.84
					c1.15-6.64,1.72-13.17,1.75-19.91c-0.21,6.73-0.96,13.23-2.29,19.82c-0.76-0.82-1.5-1.68-2.18-2.59
					c-0.79-1.05-1.55-2.12-2.27-3.22c-0.72-1.1-1.42-2.22-2.09-3.34c-0.67-1.13-1.32-2.26-1.93-3.41c0.57,1.18,1.18,2.34,1.81,3.5
					c0.63,1.16,1.3,2.31,1.98,3.45c0.68,1.14,1.42,2.26,2.17,3.36c0.72,1.05,1.52,2.04,2.34,3.01c-0.75,3.36-1.72,6.74-2.85,9.98
					c-0.89-0.58-1.74-1.27-2.51-2.03c-0.88-0.89-1.72-1.88-2.49-2.9c-0.77-1.02-1.49-2.1-2.18-3.18c-0.68-1.09-1.34-2.19-1.94-3.32
					c0.56,1.15,1.17,2.29,1.82,3.4c0.65,1.12,1.33,2.23,2.07,3.3c0.73,1.07,1.54,2.11,2.41,3.07c0.77,0.85,1.66,1.62,2.59,2.3
					c-1.46,4.14-3.19,8.18-5.19,12.09c-0.66-0.73-1.31-1.5-1.91-2.3c-0.75-1-1.49-2.03-2.17-3.09c-0.69-1.05-1.36-2.13-2.01-3.21
					c-0.64-1.08-1.27-2.17-1.86-3.28c0.55,1.13,1.14,2.25,1.74,3.36c0.6,1.11,1.24,2.22,1.89,3.31c0.65,1.09,1.35,2.17,2.06,3.22
					c0.61,0.89,1.27,1.74,1.95,2.57c-2.36,4.58-5.15,8.95-8.2,13.09c0.54,0.39,0.82,0.58,1.36,0.97c2.98-4.29,5.7-8.8,7.96-13.52
					c0.97,0.01,1.94-0.05,2.92-0.21c1.17-0.19,2.36-0.48,3.53-0.87c1.17-0.39,2.34-0.86,3.48-1.42c1.15-0.56,2.28-1.19,3.39-1.93
					c-1.12,0.68-2.26,1.26-3.42,1.76C222.11,192.48,220.94,192.89,219.78,193.23z"/>
			</g>
		</g>
	</g>
	<g>
		<g>
			<g>
				
					<linearGradient id="SVGID_00000032628980554720787070000014030481127432856253_" gradientUnits="userSpaceOnUse" x1="160.5026" y1="6.9936" x2="160.5026" y2="74.7722" gradientTransform="matrix(0.9652 0.2616 -0.2616 0.9652 43.6435 97.4825)">
					<stop  offset="0" style="stop-color:#23E4FD"/>
					<stop  offset="0.4804" style="stop-color:#4089FD"/>
					<stop  offset="0.8328" style="stop-color:#534CFD"/>
					<stop  offset="1" style="stop-color:#5A35FD"/>
				</linearGradient>
				<path style="fill:url(#SVGID_00000032628980554720787070000014030481127432856253_);" d="M198.23,175.46
					c0,0,19.45-22.3,13.17-27.47c-4.34-3.58-12.88,9.14-12.92,9.13c0,0,5.08-24.04-5.88-22.8c-8.31,1.4-7.09,21.69-7.16,21.7
					c0,0-5.83-11.52-10.97-7.95c-7.45,5.17,5.37,23.85,5.37,23.85c0,0-9-10.3-13.28-4.6c-5.62,7.48,6.35,23.77,6.35,23.77
					s-16.53-6.41-14.31,4.81c1.63,8.27,6.58,16.33,13.34,21.57c8.78,4.02,33-5.01,31.51-15.55c-0.92-6.48-12.31-3.64-12.31-3.64
					c8.02-3.46,25.03-12.98,22.08-23.39C211.12,167.41,198.23,175.46,198.23,175.46z"/>
				<path class="st16" d="M187.13,208.16c-1.85,0.54-3.72,0.9-5.56,1.12c-1.42,0.17-2.83,0.2-4.22,0.14
					c3.06-6.41,5.69-13.02,7.86-19.79c1.91-0.25,3.83-0.62,5.7-1.2c2.05-0.64,4.15-1.51,6.16-2.57c2.01-1.06,3.97-2.34,5.85-3.82
					c1.88-1.48,3.69-3.14,5.33-5.07c-1.69,1.86-3.53,3.44-5.43,4.83c-1.9,1.39-3.87,2.58-5.88,3.55c-2.01,0.97-4.09,1.74-6.12,2.29
					c-1.74,0.47-3.53,0.76-5.29,0.94c1.67-5.23,3.06-10.66,4.11-16.05c1.87-0.99,3.71-2.09,5.43-3.47c0.92-0.67,1.77-1.49,2.64-2.26
					c0.83-0.84,1.68-1.67,2.47-2.57c1.56-1.79,3.07-3.75,4.41-5.87c1.33-2.11,2.54-4.37,3.54-6.78c-1.06,2.37-2.32,4.56-3.7,6.61
					c-1.38,2.05-2.93,3.93-4.52,5.63c-0.8,0.86-1.65,1.64-2.5,2.43c-0.88,0.72-1.73,1.49-2.65,2.11c-1.55,1.18-3.2,2.1-4.86,2.94
					c1.83-10.6,2.75-21.01,2.8-31.78c-0.34,10.74-1.54,21.11-3.66,31.64c-1.21-1.32-2.39-2.68-3.48-4.13
					c-1.26-1.67-2.48-3.38-3.62-5.14c-1.14-1.76-2.27-3.54-3.34-5.34c-1.07-1.8-2.11-3.61-3.08-5.45c0.91,1.88,1.89,3.73,2.89,5.58
					c1.01,1.85,2.07,3.69,3.16,5.5c1.09,1.82,2.26,3.6,3.47,5.36c1.16,1.68,2.42,3.26,3.74,4.8c-1.2,5.36-2.74,10.75-4.55,15.93
					c-1.42-0.93-2.78-2.02-4-3.24c-1.41-1.42-2.75-3-3.97-4.63c-1.22-1.63-2.38-3.35-3.47-5.08c-1.09-1.73-2.14-3.5-3.09-5.3
					c0.89,1.84,1.87,3.65,2.9,5.43c1.03,1.79,2.13,3.56,3.3,5.26c1.17,1.7,2.46,3.37,3.84,4.89c1.24,1.36,2.64,2.59,4.14,3.66
					c-2.33,6.61-5.1,13.06-8.29,19.3c-1.06-1.17-2.09-2.39-3.05-3.66c-1.2-1.6-2.37-3.24-3.47-4.93c-1.1-1.68-2.18-3.39-3.2-5.12
					c-1.03-1.73-2.03-3.46-2.97-5.23c0.87,1.8,1.81,3.58,2.78,5.36c0.96,1.77,1.98,3.54,3.01,5.29c1.04,1.75,2.15,3.46,3.29,5.14
					c0.97,1.42,2.02,2.78,3.12,4.11c-3.76,7.31-8.22,14.28-13.08,20.9c0.87,0.62,1.3,0.93,2.17,1.55
					c4.76-6.85,9.09-14.05,12.71-21.58c1.54,0.02,3.1-0.07,4.66-0.33c1.88-0.31,3.77-0.76,5.63-1.39c1.86-0.63,3.73-1.38,5.56-2.27
					c1.83-0.89,3.64-1.9,5.41-3.08c-1.79,1.09-3.61,2.01-5.45,2.82C190.84,206.97,188.98,207.63,187.13,208.16z"/>
			</g>
		</g>
	</g>
	<g>
		
			<linearGradient id="SVGID_00000168838025805420441620000004063792139518017682_" gradientUnits="userSpaceOnUse" x1="148.5134" y1="251.5232" x2="148.5134" y2="182.7154">
			<stop  offset="0" style="stop-color:#FFFFFF"/>
			<stop  offset="0.1756" style="stop-color:#EDF7FC"/>
			<stop  offset="0.499" style="stop-color:#D2EAF6"/>
			<stop  offset="0.7845" style="stop-color:#C1E2F3"/>
			<stop  offset="1" style="stop-color:#BBDFF2"/>
		</linearGradient>
		<path style="fill:url(#SVGID_00000168838025805420441620000004063792139518017682_);" d="M26.47,233.77
			c11.19-2.13,19.27,6.27,19.8,6.8c0.49-1.72,5.37-17.59,21.19-23.2c10-3.57,18.82-1.02,21.85,0c-2.01-5.41-0.94-11.44,2.75-15.74
			c3.98-4.63,10.41-6.52,16.4-4.75c6.76-10.45,19.18-15.86,31.4-13.69c12.05,2.17,21.73,11.31,24.59,23.24
			c3.65-5.45,10.21-8.2,16.4-6.85c5.53,1.19,9.96,5.41,11.64,10.95c7.54-7.87,18.98-10.82,29.35-7.5
			c9.24,2.91,16.29,10.35,18.89,19.59c7.42-5.86,17.42-8.08,26.71-5.16c13.9,4.38,22.65,19.13,19.62,34.05c-15.22,0-30.45,0-45.67,0
			h-18.98H9.37C11.05,242.46,17.94,235.37,26.47,233.77z"/>
		
			<linearGradient id="SVGID_00000052788986235805425460000001374288583151973778_" gradientUnits="userSpaceOnUse" x1="322.4597" y1="254.2526" x2="322.4597" y2="187.6228">
			<stop  offset="0" style="stop-color:#FFFFFF"/>
			<stop  offset="0.1756" style="stop-color:#EDF7FC"/>
			<stop  offset="0.499" style="stop-color:#D2EAF6"/>
			<stop  offset="0.7845" style="stop-color:#C1E2F3"/>
			<stop  offset="1" style="stop-color:#BBDFF2"/>
		</linearGradient>
		<path style="fill:url(#SVGID_00000052788986235805425460000001374288583151973778_);" d="M204.28,237.07
			c10.84-2.06,18.66,6.07,19.17,6.59c0.48-1.67,5.2-17.03,20.52-22.47c9.69-3.45,18.22-0.99,21.16,0
			c-1.95-5.24-0.91-11.07,2.66-15.24c3.85-4.49,10.08-6.31,15.88-4.6c6.55-10.12,18.58-15.36,30.41-13.26
			c11.67,2.1,21.04,10.96,23.82,22.51c3.53-5.28,9.88-7.94,15.88-6.63c5.36,1.15,9.65,5.24,11.27,10.6
			c7.3-7.62,18.38-10.48,28.42-7.26c8.95,2.81,15.78,10.03,18.29,18.97c7.19-5.68,16.86-7.82,25.86-4.99
			c13.46,4.24,21.94,18.52,19,32.98c-14.74,0-29.48,0-44.22,0h-18.38H187.72C189.35,245.48,196.02,238.61,204.28,237.07z"/>
		
			<linearGradient id="SVGID_00000168107080245677434530000008866685530282337424_" gradientUnits="userSpaceOnUse" x1="241.8818" y1="252.452" x2="241.8818" y2="178.7036">
			<stop  offset="0" style="stop-color:#FFFFFF"/>
			<stop  offset="0.1756" style="stop-color:#EDF7FC"/>
			<stop  offset="0.499" style="stop-color:#D2EAF6"/>
			<stop  offset="0.7845" style="stop-color:#C1E2F3"/>
			<stop  offset="1" style="stop-color:#BBDFF2"/>
		</linearGradient>
		<path style="fill:url(#SVGID_00000168107080245677434530000008866685530282337424_);" d="M111.07,233.43
			c11.99-2.28,20.65,6.72,21.22,7.29c0.53-1.85,5.76-18.85,22.71-24.87c10.72-3.82,20.17-1.1,23.42,0
			c-2.15-5.8-1.01-12.26,2.94-16.87c4.26-4.96,11.16-6.99,17.57-5.1c7.25-11.2,20.56-17,33.65-14.67
			c12.92,2.33,23.29,12.13,26.36,24.91c3.91-5.84,10.94-8.79,17.57-7.34c5.93,1.27,10.68,5.8,12.48,11.73
			c8.08-8.44,20.34-11.6,31.46-8.04c9.9,3.11,17.46,11.1,20.25,21c7.96-6.29,18.67-8.66,28.62-5.53c14.9,4.69,24.28,20.5,21.03,36.5
			c-16.32,0-32.63,0-48.95,0h-20.34H92.75C94.55,242.74,101.93,235.14,111.07,233.43z"/>
	</g>
	<g>
		<g>
			<g>
				<g>
					
						<linearGradient id="SVGID_00000114042754041432659240000009592369882803114914_" gradientUnits="userSpaceOnUse" x1="79.707" y1="183.4715" x2="79.707" y2="270.3187">
						<stop  offset="0" style="stop-color:#A5A7AA"/>
						<stop  offset="0.5169" style="stop-color:#CED1D2"/>
						<stop  offset="1" style="stop-color:#A5A7AA"/>
					</linearGradient>
					
						<rect x="76.27" y="183.47" style="fill:url(#SVGID_00000114042754041432659240000009592369882803114914_);" width="6.87" height="86.85"/>
				</g>
				<g>
					
						<linearGradient id="SVGID_00000177455293599315967060000002154537453701861285_" gradientUnits="userSpaceOnUse" x1="126.5519" y1="183.4715" x2="126.5519" y2="270.3187">
						<stop  offset="0" style="stop-color:#A5A7AA"/>
						<stop  offset="0.5169" style="stop-color:#CED1D2"/>
						<stop  offset="1" style="stop-color:#A5A7AA"/>
					</linearGradient>
					
						<rect x="123.12" y="183.47" style="fill:url(#SVGID_00000177455293599315967060000002154537453701861285_);" width="6.87" height="86.85"/>
				</g>
			</g>
			
				<linearGradient id="SVGID_00000119119620429025035590000010839845805291772306_" gradientUnits="userSpaceOnUse" x1="103.1295" y1="172.5007" x2="103.1295" y2="184.7624">
				<stop  offset="0" style="stop-color:#EA807D"/>
				<stop  offset="1" style="stop-color:#FB4E7E"/>
			</linearGradient>
			<path style="fill:url(#SVGID_00000119119620429025035590000010839845805291772306_);" d="M135.78,184.76H70.48
				c-2.46,0-4.46-2-4.46-4.46v-3.34c0-2.46,2-4.46,4.46-4.46h65.29c2.46,0,4.46,2,4.46,4.46v3.34
				C140.24,182.77,138.24,184.76,135.78,184.76z"/>
		</g>
		<g>
			<path class="st36" d="M108.65,247.74l-4.35,4.74c0,0-1.11,2.66,0.53,5.13c1.64,2.47,4.02,1.5,4.02,1.5l9.87-11.37l-6.48-1.06
				L108.65,247.74z"/>
			<polygon class="st36" points="115.66,263.85 114.27,255.19 123.55,253.55 124.57,265.45 116.92,265.45 			"/>
			<g>
				<path class="st37" d="M115.12,263v7.21h22.29c0,0,1.82-1.48-2.09-3.69c-3.91-2.22-11.08-4.85-11.08-4.85s-1.04,2.41-4.1,2.35
					C117.08,263.97,115.12,263,115.12,263z"/>
				<path class="st37" d="M109.67,258.21c0,0-2.27,6.51-1.97,7.42c0.3,0.91,4.09,1.29,4.01,4.58c0,0-6.51,0-8.33,0
					c-1.82,0-4.17-17.69-4.17-17.69s3.03-1.67,6.25-1.51C105.47,251.01,104.37,255.71,109.67,258.21z"/>
				
					<linearGradient id="SVGID_00000024681081596556958340000014153297067854427797_" gradientUnits="userSpaceOnUse" x1="132.3302" y1="137.5888" x2="132.3302" y2="217.6274">
					<stop  offset="0" style="stop-color:#6969BA"/>
					<stop  offset="0.3383" style="stop-color:#645DBA"/>
					<stop  offset="0.9448" style="stop-color:#563EBB"/>
					<stop  offset="0.9802" style="stop-color:#553CBB"/>
				</linearGradient>
				<path style="fill:url(#SVGID_00000024681081596556958340000014153297067854427797_);" d="M168.98,174.44
					c-1.58,13.35-54.65,80.78-54.65,80.78c-0.01-0.01-0.04-0.01-0.05-0.03c-5.18-2.72-7.06-7.04-7.06-7.04s19.5-45.77,23.81-53.95
					c4.32-8.18,13.72-17.95,13.72-17.95l-38.84-4.65l-7.22-7.81l-3.19-3.45l3.79-15h9.92c0,0,21.8,5.28,32.49,7.72
					C166.02,158.63,170.17,164.28,168.98,174.44z"/>
				
					<linearGradient id="SVGID_00000132079368978039193320000007307754877585701294_" gradientUnits="userSpaceOnUse" x1="101.2614" y1="149.6559" x2="101.2614" y2="282.1388">
					<stop  offset="0" style="stop-color:#6E6EC7"/>
					<stop  offset="1" style="stop-color:#553CBB"/>
				</linearGradient>
				<path style="fill:url(#SVGID_00000132079368978039193320000007307754877585701294_);" d="M101.26,149.62
					c0,0,10.59,14.25,12.04,21.18c1.46,6.93,11.72,87.26,11.72,87.26s-6.38,2.8-10.87,1.48c0,0-14.49-40.11-18.58-57.15
					c-4.09-17.04-2.27-25.45-5.45-27.72c-3.18-2.27-11.36-0.91-12.5-10.23c-1.14-9.32,5.61-19.09,5.61-19.09h16.06L101.26,149.62z"
					/>
			</g>
			<g>
				<polygon class="st40" points="111.64,70.47 94.44,68.58 96.45,50.68 114.79,53.47 				"/>
				
					<linearGradient id="SVGID_00000182516914540173972570000011506421652747411848_" gradientUnits="userSpaceOnUse" x1="114.9718" y1="27.0812" x2="114.9718" y2="68.8023">
					<stop  offset="0.2338" style="stop-color:#4333EF"/>
					<stop  offset="1" style="stop-color:#2012AE"/>
				</linearGradient>
				<path style="fill:url(#SVGID_00000182516914540173972570000011506421652747411848_);" d="M118.33,38.72
					c0.71,6.53-0.92,26.86-2.21,28.96c-1.28,2.1-4.69,4.29-4.69,4.29l4.01-29.86L118.33,38.72z"/>
				<g>
					<path class="st36" d="M90.96,54.12l-1.98,25.94c0,0,2.93,2.07,10.13,2.62c3.88,0.3,4.89-1.47,4.89-1.47l1.08-14.15L90.96,54.12
						z"/>
					<path class="st36" d="M91.35,45.04c-0.01,0.53-0.03,1.03-0.03,1.51c-0.01,0.17-0.04,0.34-0.06,0.53
						c-1.02,8.66-0.61,15.45,8.99,19.68c1.78,0.36,7.95,2.2,10.53-0.24c3.02-2.86,5.83-10.62,6.04-13.39l0.01-0.12
						c0.17-2.7-0.16-3.48-0.04-5.03c0.09-1.21,1.03-4.96,1.17-6.61c0.23-2.7-0.56-6.09-1.59-8.55c-1.92-4.59-5.62-7.53-11.66-7.99
						C90.8,23.77,91.67,35.68,91.35,45.04z"/>
					<path class="st42" d="M96.72,38.26c0-0.02,0-0.05,0.01-0.07"/>
					<g>
						<path class="st36" d="M91.5,45.59c-1.08-0.34-3.61-1.45-3.43,2.45c0.32,6.74,4.26,6.61,4.26,6.61
							c-0.16-0.96-0.41-2.33-0.58-3.9c1.11-0.56,0.21-1.38,0.22-2.16c-0.05-0.13-0.07-0.49-0.06-0.66
							C91.86,47.15,91.49,46.45,91.5,45.59z"/>
						<path class="st43" d="M91.55,48.01c0,0-1.13-1.28-2.09-0.88c-0.96,0.4-0.47,2.59,0.17,3.92c0.63,1.33,1.44,1.5,1.6,1.16
							c0.17-0.34-1.4-1.21-0.78-1.77c0.62-0.56,1.22-0.62,1.19-0.97C91.62,49.12,91.55,48.01,91.55,48.01z"/>
						<path class="st44" d="M95,41.93c-0.54,2.49-2.98,7.68-2.98,7.68l-0.88-4.87L95,41.93z"/>
					</g>
					<path class="st43" d="M103.32,67.42c-2.78-0.6-7.55-2.63-9.67-5.43c0,0,0.33,2.58,2.73,4.09
						C98.77,67.58,103.32,67.42,103.32,67.42z"/>
				</g>
				
					<linearGradient id="SVGID_00000152241338920708132500000007020549317251115956_" gradientUnits="userSpaceOnUse" x1="101.9778" y1="27.0812" x2="101.9778" y2="68.8024">
					<stop  offset="0.2338" style="stop-color:#4333EF"/>
					<stop  offset="1" style="stop-color:#2012AE"/>
				</linearGradient>
				<path style="fill:url(#SVGID_00000152241338920708132500000007020549317251115956_);" d="M100.06,33.84
					c5.74,3.41,14.39,5.1,17.39,10.9c0,0,1.42-2.92,0.77-6.95c-0.64-4.03-1.84-9.81-9.83-12.95c-8-3.14-13.61-0.46-15.98,3.37
					c0,0-4.77-0.23-6.58,6.36c-1.81,6.59,6.68,16.22,6.68,16.22L100.06,33.84z"/>
				
					<linearGradient id="SVGID_00000106134989265872682570000012904533029403430026_" gradientUnits="userSpaceOnUse" x1="90.1686" y1="27.0811" x2="90.1686" y2="68.8024">
					<stop  offset="0.2338" style="stop-color:#4333EF"/>
					<stop  offset="1" style="stop-color:#2012AE"/>
				</linearGradient>
				<path style="fill:url(#SVGID_00000106134989265872682570000012904533029403430026_);" d="M85.82,34.56
					c-1.82,6.85-7.17,27.8-3.51,30.79c3.65,3,11.94,5.3,11.94,5.3s2.21-25.96,5.03-35.06L85.82,34.56z"/>
			</g>
			<polyline class="st36" points="135.45,86.9 160.06,100.15 155.69,112.2 129.82,98.13 			"/>
			
				<linearGradient id="SVGID_00000023988789408930152850000008836639178653787809_" gradientUnits="userSpaceOnUse" x1="91.4251" y1="69.1807" x2="91.4251" y2="157.4321">
				<stop  offset="0" style="stop-color:#3E3E7A"/>
				<stop  offset="1" style="stop-color:#0D0D5A"/>
			</linearGradient>
			<path style="fill:url(#SVGID_00000023988789408930152850000008836639178653787809_);" d="M117.19,113.92
				c-2.35,8.37,2.85,23.66,5.58,34.24c0.36,1.38-15.02,1.11-29.28,3.02c-11.35,1.52-16.11,8.04-15.98,5.78
				c0.62-11.11,0.83-38.82-0.05-52.5l-1.32,9.29c0,0-2.5,0.43-8.75-0.45c-5.64-0.79-7.3-2.42-7.3-2.42s3.59-30.13,12.48-37.12
				c4.26-3.35,17.25-4.58,17.25-4.58c4.12,5.04,9.95,6.98,12.55,6.35c2.97-0.73,2.42-4.43,2.42-4.43s3.15,0.65,6.91,1.81
				c0.01,0,0.01,0.01,0.03,0.01c5.76,3.09,9.7,30.82,8.59,34.15C119.22,110.37,117.7,112.11,117.19,113.92z"/>
			<path class="st36" d="M110.98,119.99v6.77c0,0-47.26,4.84-49.52-2.82c-1.06-3.56-0.09-10.05,0.26-12.1
				c1.13,0.5,2.92,1.08,5.66,1.47c4.22,0.6,6.72,0.59,7.91,0.53c-0.16,0.41-0.36,1.27,0.37,1.64
				C76.63,115.95,110.98,119.99,110.98,119.99z"/>
			<g>
				
					<rect x="123.24" y="123.28" transform="matrix(-1 -1.224647e-16 1.224647e-16 -1 316.8021 251.6441)" class="st48" width="70.32" height="5.08"/>
				<polygon class="st48" points="139,128.36 194.35,128.36 206.73,82.71 151.38,82.71 				"/>
				<polygon class="st49" points="140.66,128.36 196.01,128.36 208.4,82.71 153.05,82.71 				"/>
			</g>
			<path class="st36" d="M110.98,126.76c3.43,1.04,7.47,1.29,10.44-0.94c2.6-1.95,8.9-2.54,11.43-2.54c2.41,0,1.73-2.96-6.88-4.02
				c-8.56-1.06-11.28-0.37-14.99,0.73c-0.95,0.28-2.96,1.22-2.96,3.29C108.02,125.35,109.63,126.35,110.98,126.76z"/>
			
				<linearGradient id="SVGID_00000102543859061954699490000009375141448816302752_" gradientUnits="userSpaceOnUse" x1="124.354" y1="72.9094" x2="124.354" y2="99.6195">
				<stop  offset="0" style="stop-color:#3E3E7A"/>
				<stop  offset="1" style="stop-color:#0D0D5A"/>
			</linearGradient>
			<path style="fill:url(#SVGID_00000102543859061954699490000009375141448816302752_);" d="M137.03,86.33
				c0,0-11.27-7.82-19.85-11.45c-1.8-0.76-3.73-1.42-5.51-1.97c0.02,0.01,0.03,0.01,0.05,0.03c3.25,2.52,4.57,17.2,6.7,22.03
				l10.59,4.65c0,0,3.02-1.59,5.28-5.66C136.43,90.11,137.03,86.33,137.03,86.33z"/>
		</g>
		<g>
			<g>
				<polyline class="st51" points="9.08,128.93 366.77,128.93 366.77,126.07 9.08,126.07 				"/>
			</g>
		</g>
		<path class="st52" d="M294,122.64c-2.12-5.02-11.48-27.15-17.71-41.88l-3.16,1.34h0c7.06,16.71,18.15,42.93,18.15,42.93l0.44,1.05
			h50.51v-3.44H294z"/>
		<g>
			<g>
				<polygon class="st36" points="407.58,251.01 404.6,247.84 396.73,253.84 405.25,259.58 409.18,256.16 				"/>
				
					<linearGradient id="SVGID_00000130606330163807061430000011662718913596319880_" gradientUnits="userSpaceOnUse" x1="382.7231" y1="138.8592" x2="382.7231" y2="183.6518">
					<stop  offset="0" style="stop-color:#3E3E7A"/>
					<stop  offset="1" style="stop-color:#0D0D5A"/>
				</linearGradient>
				<path style="fill:url(#SVGID_00000130606330163807061430000011662718913596319880_);" d="M387.89,143.11
					c0,0-52.66,16.88-55.27,35.52c-2.61,18.64,64.33,77.66,65.21,77.91c0.88,0.26,8.95-8.35,8.95-8.35s-24.28-38.14-32.56-48.93
					c-6.3-8.22-13.88-16.71-13.88-16.71s91.1-1.75,69.14-48.44L387.89,143.11z"/>
				
					<linearGradient id="SVGID_00000165205644201309666200000005276924299136128142_" gradientUnits="userSpaceOnUse" x1="407.5789" y1="251.0049" x2="407.5789" y2="270.2163">
					<stop  offset="0" style="stop-color:#3E3E7A"/>
					<stop  offset="1" style="stop-color:#0D0D5A"/>
				</linearGradient>
				<path style="fill:url(#SVGID_00000165205644201309666200000005276924299136128142_);" d="M403.38,258.21
					c0,0,2.27,6.51,1.97,7.42c-0.3,0.91-4.09,1.29-4.01,4.58c0,0,6.51,0,8.33,0s4.17-17.69,4.17-17.69s-3.03-1.67-6.25-1.51
					C407.58,251.01,408.68,255.71,403.38,258.21z"/>
			</g>
			<g>
				<g>
					<g>
						
							<linearGradient id="SVGID_00000165216241140472014520000014694524754271921595_" gradientUnits="userSpaceOnUse" x1="380.4487" y1="183.4715" x2="380.4487" y2="270.3187">
							<stop  offset="0" style="stop-color:#A5A7AA"/>
							<stop  offset="0.5169" style="stop-color:#CED1D2"/>
							<stop  offset="1" style="stop-color:#A5A7AA"/>
						</linearGradient>
						
							<rect x="377.01" y="183.47" style="fill:url(#SVGID_00000165216241140472014520000014694524754271921595_);" width="6.87" height="86.85"/>
					</g>
					<g>
						
							<linearGradient id="SVGID_00000020389303763276065680000005641741857327012491_" gradientUnits="userSpaceOnUse" x1="427.2936" y1="183.4715" x2="427.2936" y2="270.3187">
							<stop  offset="0" style="stop-color:#A5A7AA"/>
							<stop  offset="0.5169" style="stop-color:#CED1D2"/>
							<stop  offset="1" style="stop-color:#A5A7AA"/>
						</linearGradient>
						
							<rect x="423.86" y="183.47" style="fill:url(#SVGID_00000020389303763276065680000005641741857327012491_);" width="6.87" height="86.85"/>
					</g>
				</g>
				
					<linearGradient id="SVGID_00000016791965958700797420000009256037742791827901_" gradientUnits="userSpaceOnUse" x1="403.8712" y1="172.5007" x2="403.8712" y2="184.7624">
					<stop  offset="0" style="stop-color:#EA807D"/>
					<stop  offset="1" style="stop-color:#FB4E7E"/>
				</linearGradient>
				<path style="fill:url(#SVGID_00000016791965958700797420000009256037742791827901_);" d="M436.52,184.76h-65.29
					c-2.46,0-4.46-2-4.46-4.46v-3.34c0-2.46,2-4.46,4.46-4.46h65.29c2.46,0,4.46,2,4.46,4.46v3.34
					C440.98,182.77,438.98,184.76,436.52,184.76z"/>
			</g>
			<polygon class="st36" points="315.59,265.18 318.88,255.53 309.64,253.4 307.56,264.83 			"/>
			<path class="st36" d="M322.65,117.15c-2.01-0.65-4.56-1.27-6.69-1.45c-2.73-0.22-3.8,0.69-6.31,1.59
				c-0.95,0.34-3.04,0.96-3.46,1.84c-0.57,1.2,0.7,2.34,1.62,2.77c2.27,1.08,4.35,0.29,6.85,0.37c1.03,0.03,2,0.83,2.93,1.18
				c1,0.37,2.09,0.3,3.08-0.06C323,122.57,325.84,118.78,322.65,117.15z"/>
			
				<linearGradient id="SVGID_00000127762033199090579960000000038294601838179995_" gradientUnits="userSpaceOnUse" x1="370.6032" y1="151.8787" x2="370.6032" y2="268.739">
				<stop  offset="0" style="stop-color:#3E3E7A"/>
				<stop  offset="1" style="stop-color:#0D0D5A"/>
			</linearGradient>
			<path style="fill:url(#SVGID_00000127762033199090579960000000038294601838179995_);" d="M431.02,135.52
				c0,0,11.19,25.82-3.23,35.31c-14.42,9.48-72.47,11.97-74.85,15.89c-2.38,3.92-1.74,20.11-34.95,73.82l-11.94-2.14
				c0,0,21.67-82.26,26.6-88.77c4.94-6.5,59.03-24.93,59.03-24.93L431.02,135.52z"/>
			<path class="st36" d="M325.83,108.25c-0.11-2.05-1.66-2.16-4.56-2c-2.81,0.16-6.37,0.36-8.66,2.09
				c-1.44,1.09-3.79,3.25-4.15,5.11c-0.51,2.59,2.46,0.93,3.45,0.28c1.12-0.74,2.39-1.29,3.71-1.55c0.7-0.14,2.41-0.53,3.04-0.12
				c-0.79,0.7-5.81,1.41-5.31,3c0.47,1.47,6.89,0.06,9.21-1.42C324.87,112.15,325.97,110.9,325.83,108.25z"/>
			
				<linearGradient id="SVGID_00000064330980722781602580000003522838693228101506_" gradientUnits="userSpaceOnUse" x1="359.1262" y1="65.0881" x2="359.1262" y2="117.4396">
				<stop  offset="0" style="stop-color:#FF807D"/>
				<stop  offset="1" style="stop-color:#FD2D7F"/>
			</linearGradient>
			<path style="fill:url(#SVGID_00000064330980722781602580000003522838693228101506_);" d="M379.74,66.75
				c-7.68,12.58-20.23,31.56-22.41,33.02c-2.17,1.46-33.17,5.74-33.17,5.74l0.17,7.54c0,0,31.6,3.26,39.07-0.23
				c7.47-3.49,30.69-36.79,30.69-36.79L379.74,66.75z"/>
			<g>
				<path class="st36" d="M391.55,61.51c-0.54,1.06-1.73,2.3-4.21,3.35c-2.46,1.05-4.52,2-6.18,2.81c-1.17,0.56-2.13,1.06-2.9,1.47
					c-1.41,0.74-2.12,1.18-2.12,1.18l-0.23-0.65l-0.08-0.24l-1.71-5.04l-0.3-0.87l-0.61-1.56l-0.02,0.01
					c-0.35,0.11-5.68,1.82-7.6,2.04c-0.01,0-0.01,0-0.02,0c-0.25,0.02-0.43,0.03-0.54,0c-0.97-0.23-6.76-6.02-9.07-12.99
					c-2.24-6.61-2.09-15.71-2.05-16.53c0.89,0.12,2.05-1.2,2.93-1.34c3.25-0.5,6.97-0.53,8.35-0.15c1.33,0.36,1.74,2.3,3.14,4.71
					c1.4,2.37,3.82,2.91,4.64,3.8c0.79,0.9,2.24,5.36,2.8,5.74c0.59,0.43,1.49-0.39,1.49-0.39l-0.81-4.38c0,0,1.12-4.57,4.48-2.54
					c2.52,1.53,3.18,4.84,2.36,7.58l5.57,3.3l2.68,7.15l0.34,0.96c0,0,0.02,0.11,0.08,0.27c0,0.01,0.01,0.03,0.01,0.05
					C392.02,59.69,392.06,60.52,391.55,61.51z"/>
				<path class="st52" d="M354.58,35.31c0.01-0.01,0.02-0.01,0.03-0.02c1.08-0.94,1.98-1.73,3.5-1.36c1.12,0.27,1.91,0.61,3.09,0.36
					c0.87-0.19,1.54-0.76,2.35-1.01c3.1-0.93,3.44,2.65,4.55,4.57c1.4,2.37,4.04,2.78,4.86,3.68c0.79,0.89,2.24,5.35,2.8,5.73
					c0.59,0.43,1.49-0.4,1.49-0.4l-0.82-4.37c0,0,1.12-4.57,4.48-2.54c2.52,1.53,3.18,4.83,2.36,7.58l5.57,3.3
					c0,0,0.76-11.22,0.96-14.84c0.26-4.69-1.8-10.99-4.95-14.49c-2.09-2.33-5.37-3.62-8.1-1.73c-1-1.13-3.83-1.85-5.28-2.11
					c-1.45-0.26-2.94-0.03-4.37,0.3c-1.22,0.28-1.74,0.88-2.76,1.45c-0.93,0.52-2.11,0.52-3.19,0.48c-2.62-0.1-5.22-0.58-7.2,1.58
					c-0.7,0.76-0.8,1.74-1.37,2.52c-0.61,0.84-1.78,1.03-2.74,1.19c-2.52,0.43-4.84,0.53-5.28,3.55c-0.51,3.51,0.88,6.01,4.19,7.35
					C350.74,36.88,352.96,36.69,354.58,35.31z"/>
			</g>
			
				<linearGradient id="SVGID_00000136405921843419155260000004776942250935464355_" gradientUnits="userSpaceOnUse" x1="403.9334" y1="58.9794" x2="403.9334" y2="156.4782">
				<stop  offset="0" style="stop-color:#FF807D"/>
				<stop  offset="1" style="stop-color:#FD2D7F"/>
			</linearGradient>
			<path style="fill:url(#SVGID_00000136405921843419155260000004776942250935464355_);" d="M390.48,58.99
				c4.11,0.12,8.27,3.36,11.08,6.04c8.22,7.83,10.82,20.6,14.84,30.84c5.67,14.43,12.64,28.51,17.23,43.3
				c0.9,2.99,3.33,8.45,2.34,11.66c-4.65,15.2-47.32-5.07-47.32-5.07s-15.62-45.52-16.79-54.1
				C370.68,83.08,374.99,58.54,390.48,58.99z"/>
			<path class="st61" d="M389.68,144.47"/>
			
				<linearGradient id="SVGID_00000064336060173190592140000011284239521218246306_" gradientUnits="userSpaceOnUse" x1="358.3402" y1="87.1159" x2="358.3402" y2="150.798">
				<stop  offset="0" style="stop-color:#FF807D"/>
				<stop  offset="1" style="stop-color:#FD2D7F"/>
			</linearGradient>
			<path style="fill:url(#SVGID_00000064336060173190592140000011284239521218246306_);" d="M375.69,69.74
				c-0.29,0.6-12.03,32.24-17.06,34.95c-5.03,2.71-37.69,11.71-37.69,11.71l2.2,7.3c0,0,42.89-2.7,48.97-7.58
				c6.08-4.88,24.32-37.23,23.61-46.75C395.02,59.85,383.15,54.11,375.69,69.74z"/>
			<path class="st61" d="M371.69,74.56"/>
			
				<linearGradient id="SVGID_00000173859371497342896420000016998792651489934526_" gradientUnits="userSpaceOnUse" x1="305.4009" y1="261.6757" x2="305.4009" y2="270.2163">
				<stop  offset="0" style="stop-color:#3E3E7A"/>
				<stop  offset="1" style="stop-color:#0D0D5A"/>
			</linearGradient>
			<path style="fill:url(#SVGID_00000173859371497342896420000016998792651489934526_);" d="M316.76,263v7.21h-22.29
				c0,0-1.82-1.48,2.09-3.69c3.91-2.22,11.48-4.85,11.48-4.85s0.64,2.41,3.7,2.35C314.8,263.97,316.76,263,316.76,263z"/>
		</g>
		<g>
			
				<linearGradient id="SVGID_00000138570339061654705850000012562209728993380245_" gradientUnits="userSpaceOnUse" x1="39.5563" y1="134.2622" x2="39.5563" y2="270.3191">
				<stop  offset="0" style="stop-color:#A5A7AA"/>
				<stop  offset="0.5169" style="stop-color:#CED1D2"/>
				<stop  offset="1" style="stop-color:#A5A7AA"/>
			</linearGradient>
			
				<rect x="34.35" y="134.26" style="fill:url(#SVGID_00000138570339061654705850000012562209728993380245_);" width="10.41" height="136.06"/>
			
				<linearGradient id="SVGID_00000000221627690660206010000000516350115298360997_" gradientUnits="userSpaceOnUse" x1="150.1466" y1="134.2622" x2="150.1466" y2="270.3191">
				<stop  offset="0" style="stop-color:#A5A7AA"/>
				<stop  offset="0.5169" style="stop-color:#CED1D2"/>
				<stop  offset="1" style="stop-color:#A5A7AA"/>
			</linearGradient>
			
				<rect x="144.94" y="134.26" style="fill:url(#SVGID_00000000221627690660206010000000516350115298360997_);" width="10.41" height="136.06"/>
		</g>
		<g>
			
				<linearGradient id="SVGID_00000111911517007453282640000000358123514918369679_" gradientUnits="userSpaceOnUse" x1="232.2853" y1="134.2622" x2="232.2853" y2="270.3191">
				<stop  offset="0" style="stop-color:#A5A7AA"/>
				<stop  offset="0.5169" style="stop-color:#CED1D2"/>
				<stop  offset="1" style="stop-color:#A5A7AA"/>
			</linearGradient>
			
				<rect x="227.08" y="134.26" style="fill:url(#SVGID_00000111911517007453282640000000358123514918369679_);" width="10.41" height="136.06"/>
			
				<linearGradient id="SVGID_00000092438203690868848770000015482159763146304672_" gradientUnits="userSpaceOnUse" x1="342.8756" y1="134.2622" x2="342.8756" y2="270.3191">
				<stop  offset="0" style="stop-color:#A5A7AA"/>
				<stop  offset="0.5169" style="stop-color:#CED1D2"/>
				<stop  offset="1" style="stop-color:#A5A7AA"/>
			</linearGradient>
			
				<rect x="337.67" y="134.26" style="fill:url(#SVGID_00000092438203690868848770000015482159763146304672_);" width="10.41" height="136.06"/>
		</g>
		<path class="st43" d="M383.27,47.53c-0.83,1.78-3.11,2.2-3.74,2.15c-0.64-0.05,1.69,3.39,3.02,2.54
			C383.87,51.37,383.27,47.53,383.27,47.53z"/>
		<path class="st43" d="M378.42,44.15c0.04-0.91-0.01-2.54,1.37-2.26c1.41,0.28,2.07,1.6,2,2.97c-0.03,0.57-0.12,1.45-0.57,1.87
			c-0.41,0.4-1.27,0.29-1.66-0.08c-0.31-0.29-0.42-0.63-0.33-1.04c0.07-0.32,0.42-0.7,0.37-1.04
			C379.53,43.99,378.75,43.98,378.42,44.15z"/>
		<path class="st43" d="M376.89,58.47c0.06,0.69-3.68,3.5-3.68,3.5l-0.02,0.01c-0.35,0.11-5.68,1.82-7.6,2.04
			C368.6,63.32,376.83,57.78,376.89,58.47z"/>
		<g>
			<g>
				
					<linearGradient id="SVGID_00000124155475744167554600000006078108351333192083_" gradientUnits="userSpaceOnUse" x1="187.9256" y1="136.7421" x2="187.9256" y2="128.0327">
					<stop  offset="0" style="stop-color:#CED1D2"/>
					<stop  offset="1" style="stop-color:#A5A7AA"/>
				</linearGradient>
				<polyline style="fill:url(#SVGID_00000124155475744167554600000006078108351333192083_);" points="10.53,137.18 365.32,137.18 
					365.32,128.93 10.53,128.93 				"/>
			</g>
		</g>
		<polygon class="st48" points="179.99,101.6 178.34,107.69 170.96,107.69 172.61,101.6 		"/>
	</g>
	<g>
		<g>
			
				<linearGradient id="SVGID_00000114757411183303558040000011511391274258831490_" gradientUnits="userSpaceOnUse" x1="167.5142" y1="210.8696" x2="209.1339" y2="210.8696">
				<stop  offset="0" style="stop-color:#94549F"/>
				<stop  offset="1" style="stop-color:#5F249D"/>
			</linearGradient>
			<path style="fill:url(#SVGID_00000114757411183303558040000011511391274258831490_);" d="M201.77,222.92
				c-0.98,4.61-6.91,6.82-11.09,6.43c-6.34-0.58-12.25-4.78-14.93-10.51c-2.23-4.8-1.31-10.47-2.1-15.61
				c-0.55-3.6-2.63-9.76-6.15-10.89c2.33,0.03,4.9,1.54,7.31,1.82c4.53,0.54,9.01,0.35,13.56,0.5c7.29,0.25,15,0.75,18.85,7.86
				c2.23,4.12,2.53,9.85,0.79,14.17c-0.84,2.08-4.32,7.02-6.49,6.23"/>
			<path class="st70" d="M211.18,239.79c-0.59-1.87-1.57-3.66-2.23-5.53c-0.76-2.16-5.61-11.88-6.66-13.91
				c-0.03-0.06-0.06-0.12-0.09-0.18c2.82-4.15,5.34-8.79,4.78-13.98c-0.02-0.14-0.25-0.14-0.25,0.01c0.08,5.21-2.06,9.32-4.75,13.56
				c-0.45-0.85-0.91-1.7-1.4-2.54c1.5-2.05,2.54-4.21,3.22-6.72c0.64-2.34,1.74-5.04,1.48-7.5c-0.01-0.1-0.17-0.08-0.16,0.02
				c0.27,2.55-0.97,5.62-1.76,8.03c-0.41,1.27-0.89,2.55-1.6,3.7c-0.43,0.7-0.96,1.34-1.45,2.01c-0.39-0.65-0.78-1.29-1.2-1.93
				c0.2-0.35,0.35-0.73,0.52-1.08c0.72-1.5,1.35-3.02,1.88-4.59c0.99-2.94,1.59-5.96,1.62-9.06c0-0.09-0.14-0.11-0.14-0.02
				c-0.09,2.85-0.67,5.58-1.62,8.27c-0.4,1.11-0.83,2.22-1.32,3.3c-0.32,0.71-0.73,1.84-1.27,2.69c-0.58-0.85-1.19-1.67-1.84-2.46
				c1.18-2.11,1.96-4.43,2.69-6.73c0.66-2.06,1.26-4.3,0.66-6.43c-0.01-0.05-0.1-0.03-0.09,0.02c0.58,2.31-0.24,4.66-1.05,6.82
				c-0.75,2.01-1.49,4.05-2.54,5.92c-0.33-0.39-0.68-0.77-1.03-1.14c-0.25-0.26-0.5-0.5-0.76-0.75c0.71-1.97,1.59-3.86,2.1-5.9
				c0.6-2.37,0.39-4.42,0.22-6.83c-0.01-0.14-0.22-0.1-0.22,0.03c0.05,2.56,0.1,4.83-0.61,7.31c-0.49,1.72-1.24,3.34-1.87,5.01
				c-0.62-0.58-1.26-1.14-1.91-1.68c1.47-3.57,2.13-6.93,2.13-10.84c0-0.2-0.31-0.22-0.31-0.02c-0.02,2.08-0.11,4.18-0.59,6.21
				c-0.36,1.52-1.05,2.9-1.59,4.35c-0.01,0-0.01-0.01-0.02-0.01c-0.03-0.04-0.06-0.07-0.1-0.08c-0.78-0.63-1.59-1.23-2.41-1.82
				c1.41-2.74,1.03-6.19,0.85-9.14c-0.01-0.09-0.15-0.07-0.14,0.02c0.11,2.97,0.29,6.14-0.99,8.91c-0.62-0.43-1.25-0.85-1.89-1.27
				c0.49-2.67,1.07-5.37,0.36-8.05c-0.01-0.05-0.08-0.03-0.07,0.02c0.63,2.66-0.01,5.29-0.48,7.92c-0.89-0.57-1.8-1.12-2.71-1.66
				c1.04-1.63,1.2-4.29,0.67-6.08c-0.03-0.09-0.17-0.06-0.14,0.03c0.38,1.42,0.23,2.73-0.14,4.13c-0.14,0.54-0.47,1.23-0.54,1.84
				c-0.73-0.43-1.47-0.85-2.21-1.27c-0.01-0.01-0.02-0.02-0.04-0.02c-0.02-0.01-0.04-0.02-0.05-0.03c0.27-1.56,0.65-3.11,0.21-4.68
				c-0.03-0.09-0.17-0.06-0.14,0.03c0.4,1.44,0.18,3.12-0.22,4.57c-0.59-0.33-1.19-0.66-1.78-0.98c0.01-0.02,0.01-0.04,0.02-0.06
				c0.01-0.01,0.01-0.02,0.01-0.04c0.25-1.06-0.03-2.25-0.07-3.32c0-0.02-0.04-0.02-0.04,0c-0.02,1.1,0.11,2.18-0.11,3.25
				c-0.02,0.01-0.03,0.01-0.05,0.02c-0.68-0.37-1.36-0.73-2.03-1.1c0.1-0.9,0.05-1.79-0.16-2.67c-0.02-0.08-0.14-0.06-0.13,0.02
				c0.17,0.84,0.19,1.69,0.08,2.54c-0.05-0.03-0.09-0.05-0.14-0.08c-0.02-0.02-0.04-0.04-0.07-0.04c-1.28-0.69-2.54-1.37-3.79-2.06
				c-0.01-0.01-0.02,0.01-0.01,0.02c1.18,0.72,2.41,1.42,3.65,2.12c-0.93,0.72-1.86,1.13-3.05,1.17c-0.13,0-0.14,0.2-0.02,0.2
				c1.27-0.04,2.26-0.49,3.24-1.27c0.06,0.03,0.11,0.06,0.17,0.09c0,0.03-0.01,0.06-0.01,0.09c-0.02,0.14,0.2,0.16,0.22,0.02
				c0.6,0.34,1.21,0.69,1.82,1.03c-1.5,0.74-2.64,1.95-4.45,1.98c-0.1,0-0.12,0.16-0.02,0.16c1.85,0,3.14-1.16,4.68-2
				c0,0.01,0,0.02-0.01,0.03c-0.04,0.13,0.16,0.22,0.2,0.08c0-0.01,0-0.01,0.01-0.02c0.59,0.34,1.18,0.68,1.77,1.02
				c-0.01,0.03-0.02,0.06-0.03,0.09c0,0,0,0,0,0.01c-1.66,1.53-3.19,2.76-5.63,2.69c-0.07,0-0.08,0.1-0.01,0.11
				c2.11,0.14,4.81-0.83,5.9-2.77c0.7,0.41,1.4,0.83,2.09,1.26c-1.65,1.63-3.49,4.24-6.03,4.18c-0.13,0-0.14,0.2-0.02,0.2
				c2.64,0.07,4.52-2.57,6.25-4.22c0.01,0.06,0.09,0.09,0.14,0.06c0.83,0.52,1.65,1.05,2.45,1.6c-1.67,3.82-6.35,4.76-9.94,5.92
				c-0.18,0.06-0.1,0.34,0.08,0.28c3.66-1.23,8.39-2.14,10.06-6.06c0,0,0.01,0.01,0.01,0.01c0.01,0.05,0.06,0.08,0.11,0.08
				c0.55,0.39,1.1,0.78,1.64,1.18c-1.27,1.8-3.29,3.49-5.1,4.71c-2.14,1.44-4.55,2.4-7.15,2.49c-0.09,0-0.1,0.14-0.01,0.15
				c2.54,0.11,4.96-0.87,7.07-2.22c1.96-1.26,4.08-3.02,5.45-4.93c0.79,0.6,1.54,1.23,2.27,1.89c-1.8,1.99-3.47,3.94-5.77,5.41
				c-2.58,1.65-5.21,2.2-8.17,2.79c-0.14,0.03-0.1,0.24,0.04,0.21c3.07-0.53,5.6-1,8.28-2.69c2.35-1.49,4.07-3.43,5.98-5.4
				c0.04,0.03,0.07,0.07,0.11,0.1c0.02,0.04,0.05,0.07,0.09,0.09c0.66,0.62,1.29,1.26,1.88,1.93c-1.77,2.35-3.99,4.48-6.35,6.24
				c-2.75,2.06-5.96,2.4-9.24,2.96c-0.09,0.02-0.07,0.15,0.02,0.14c3.16-0.34,6.27-0.64,8.95-2.5c2.45-1.7,4.95-3.96,6.86-6.31
				c0.07,0.04,0.16,0.06,0.23,0.02c0.27,0.33,0.55,0.65,0.81,0.99c0.23,0.3,0.45,0.62,0.67,0.93c-1.43,2.53-3.78,5.01-6.02,6.81
				c-2.49,2-5.25,2.23-8.15,3.2c-0.12,0.04-0.04,0.22,0.09,0.18c3.11-0.99,5.9-1.17,8.53-3.31c1.23-1,2.26-2.17,3.35-3.31
				c0.91-0.95,1.89-1.88,2.61-2.97c0.62,0.93,1.19,1.9,1.72,2.9c-3.31,3.94-7.29,10.59-13.23,9.27c-0.08-0.02-0.12,0.1-0.04,0.12
				c5.41,1.33,10.53-4.65,13.61-8.73c0.41,0.8,0.79,1.61,1.16,2.43c-2.15,3.59-6.23,6.69-10.1,7.81c-0.09,0.03-0.07,0.17,0.02,0.14
				c2.57-0.65,4.86-1.89,6.8-3.7c1.13-1.05,2.61-2.3,3.52-3.71c0.37,0.85,0.71,1.7,1.05,2.55c-0.76,1.09-1.58,2.14-2.61,3.01
				c-1.25,1.05-2.7,1.8-4.14,2.56c-0.12,0.06-0.04,0.27,0.08,0.2c1.47-0.74,2.95-1.48,4.24-2.53c1.01-0.82,1.81-1.82,2.58-2.84
				c0.07,0.17,0.13,0.34,0.2,0.51c0.74,1.94,5.24,11.53,5.85,13.5c0.52,1.67,1.05,3.46,2.5,4.53
				C210.33,241.64,211.46,240.66,211.18,239.79z"/>
		</g>
		<g>
			
				<linearGradient id="SVGID_00000166637389706399096370000001305133893193916861_" gradientUnits="userSpaceOnUse" x1="694.6558" y1="210.2091" x2="736.2756" y2="210.2091" gradientTransform="matrix(-1 0 0 1 959.287 0)">
				<stop  offset="0" style="stop-color:#94549F"/>
				<stop  offset="1" style="stop-color:#5F249D"/>
			</linearGradient>
			<path style="fill:url(#SVGID_00000166637389706399096370000001305133893193916861_);" d="M230.37,222.26
				c0.98,4.61,6.91,6.82,11.09,6.43c6.34-0.58,12.25-4.78,14.93-10.51c2.23-4.8,1.31-10.47,2.1-15.61c0.55-3.6,2.63-9.76,6.15-10.89
				c-2.33,0.03-4.9,1.54-7.31,1.82c-4.53,0.54-9.01,0.35-13.56,0.5c-7.29,0.25-15,0.75-18.85,7.86c-2.23,4.12-2.53,9.85-0.79,14.17
				c0.84,2.08,4.32,7.02,6.49,6.23"/>
			<path class="st70" d="M220.96,239.13c0.59-1.87,1.57-3.66,2.23-5.53c0.76-2.16,5.61-11.88,6.66-13.91
				c0.03-0.06,0.06-0.12,0.09-0.18c-2.82-4.15-5.34-8.79-4.78-13.98c0.02-0.14,0.25-0.14,0.25,0.01c-0.08,5.21,2.06,9.32,4.75,13.56
				c0.45-0.85,0.91-1.7,1.4-2.54c-1.5-2.05-2.54-4.21-3.23-6.72c-0.64-2.34-1.74-5.04-1.48-7.5c0.01-0.1,0.17-0.08,0.16,0.02
				c-0.27,2.55,0.97,5.62,1.76,8.03c0.42,1.27,0.89,2.55,1.6,3.7c0.43,0.7,0.96,1.34,1.45,2.01c0.39-0.65,0.78-1.29,1.2-1.93
				c-0.2-0.35-0.35-0.73-0.52-1.08c-0.72-1.5-1.35-3.02-1.88-4.59c-0.99-2.94-1.59-5.96-1.62-9.06c0-0.09,0.14-0.11,0.14-0.02
				c0.09,2.85,0.67,5.58,1.62,8.27c0.4,1.11,0.83,2.22,1.32,3.3c0.32,0.71,0.73,1.84,1.27,2.69c0.58-0.85,1.19-1.67,1.84-2.46
				c-1.18-2.11-1.96-4.43-2.69-6.73c-0.66-2.06-1.26-4.3-0.66-6.43c0.01-0.05,0.1-0.03,0.09,0.02c-0.58,2.31,0.24,4.66,1.05,6.82
				c0.75,2.01,1.49,4.05,2.54,5.92c0.33-0.39,0.68-0.77,1.03-1.14c0.25-0.26,0.5-0.5,0.76-0.75c-0.71-1.97-1.59-3.86-2.1-5.9
				c-0.6-2.37-0.39-4.42-0.22-6.83c0.01-0.14,0.22-0.1,0.22,0.03c-0.05,2.56-0.1,4.83,0.61,7.31c0.49,1.72,1.24,3.34,1.87,5.01
				c0.62-0.58,1.26-1.14,1.91-1.68c-1.47-3.57-2.13-6.93-2.13-10.84c0-0.2,0.31-0.22,0.31-0.02c0.02,2.08,0.11,4.18,0.59,6.21
				c0.36,1.52,1.05,2.9,1.59,4.35c0.01,0,0.01-0.01,0.02-0.01c0.03-0.04,0.06-0.07,0.1-0.08c0.78-0.63,1.59-1.23,2.41-1.82
				c-1.41-2.74-1.03-6.19-0.85-9.14c0.01-0.09,0.15-0.07,0.14,0.02c-0.11,2.97-0.29,6.14,0.99,8.91c0.62-0.43,1.25-0.85,1.89-1.27
				c-0.49-2.67-1.07-5.37-0.36-8.05c0.01-0.05,0.08-0.03,0.07,0.02c-0.63,2.66,0.01,5.29,0.48,7.92c0.89-0.57,1.8-1.12,2.71-1.66
				c-1.04-1.63-1.2-4.29-0.67-6.08c0.03-0.09,0.17-0.06,0.14,0.03c-0.38,1.42-0.23,2.73,0.14,4.13c0.14,0.54,0.47,1.23,0.54,1.84
				c0.73-0.43,1.47-0.85,2.21-1.27c0.01-0.01,0.02-0.02,0.04-0.02c0.02-0.01,0.04-0.02,0.05-0.03c-0.27-1.56-0.65-3.11-0.21-4.68
				c0.03-0.09,0.17-0.06,0.14,0.03c-0.4,1.44-0.18,3.12,0.22,4.57c0.59-0.33,1.19-0.66,1.78-0.98c-0.01-0.02-0.01-0.04-0.02-0.06
				c-0.01-0.01-0.01-0.02-0.01-0.04c-0.25-1.06,0.03-2.25,0.07-3.32c0-0.02,0.04-0.02,0.04,0c0.02,1.1-0.11,2.18,0.11,3.25
				c0.02,0.01,0.03,0.01,0.05,0.02c0.68-0.37,1.36-0.73,2.03-1.1c-0.1-0.9-0.05-1.79,0.16-2.67c0.02-0.08,0.14-0.06,0.13,0.02
				c-0.17,0.84-0.19,1.7-0.08,2.54c0.05-0.03,0.09-0.05,0.14-0.08c0.02-0.02,0.04-0.04,0.07-0.04c1.28-0.69,2.54-1.37,3.79-2.06
				c0.01-0.01,0.02,0.01,0.01,0.02c-1.18,0.72-2.41,1.42-3.65,2.12c0.93,0.72,1.86,1.13,3.05,1.17c0.13,0,0.14,0.2,0.02,0.2
				c-1.27-0.04-2.26-0.49-3.24-1.27c-0.06,0.03-0.11,0.06-0.17,0.09c0,0.03,0.01,0.06,0.01,0.09c0.02,0.14-0.2,0.16-0.22,0.02
				c-0.6,0.34-1.21,0.69-1.82,1.03c1.5,0.74,2.64,1.95,4.45,1.98c0.1,0,0.12,0.16,0.02,0.16c-1.85,0-3.14-1.16-4.68-2
				c0,0.01,0,0.02,0.01,0.03c0.04,0.13-0.16,0.22-0.2,0.08c0-0.01,0-0.01-0.01-0.02c-0.59,0.34-1.18,0.68-1.77,1.02
				c0.01,0.03,0.02,0.06,0.03,0.09c0,0,0,0,0,0.01c1.66,1.53,3.19,2.76,5.63,2.69c0.07,0,0.08,0.1,0.01,0.11
				c-2.11,0.14-4.81-0.83-5.9-2.77c-0.7,0.41-1.4,0.83-2.09,1.26c1.65,1.63,3.49,4.24,6.03,4.18c0.13,0,0.14,0.2,0.02,0.2
				c-2.64,0.07-4.52-2.57-6.25-4.22c-0.01,0.06-0.09,0.09-0.14,0.06c-0.83,0.52-1.65,1.05-2.45,1.6c1.67,3.82,6.35,4.76,9.94,5.92
				c0.18,0.06,0.1,0.34-0.08,0.28c-3.66-1.23-8.39-2.14-10.06-6.06c0,0-0.01,0.01-0.01,0.01c-0.01,0.05-0.06,0.08-0.11,0.08
				c-0.55,0.39-1.1,0.78-1.64,1.18c1.27,1.8,3.29,3.49,5.1,4.71c2.14,1.44,4.55,2.4,7.15,2.5c0.09,0,0.1,0.14,0.01,0.15
				c-2.54,0.11-4.96-0.87-7.07-2.22c-1.96-1.26-4.08-3.02-5.45-4.93c-0.79,0.6-1.54,1.23-2.27,1.89c1.8,1.99,3.47,3.94,5.77,5.41
				c2.58,1.65,5.21,2.2,8.17,2.79c0.14,0.03,0.1,0.24-0.04,0.21c-3.07-0.53-5.6-1-8.28-2.69c-2.35-1.49-4.07-3.43-5.98-5.4
				c-0.04,0.03-0.07,0.07-0.11,0.11c-0.02,0.04-0.05,0.07-0.09,0.09c-0.66,0.62-1.29,1.26-1.88,1.93c1.77,2.35,3.99,4.48,6.35,6.24
				c2.75,2.06,5.96,2.4,9.24,2.96c0.09,0.02,0.07,0.15-0.02,0.14c-3.16-0.34-6.27-0.64-8.94-2.5c-2.45-1.7-4.95-3.96-6.86-6.31
				c-0.07,0.04-0.16,0.06-0.23,0.02c-0.27,0.33-0.55,0.65-0.81,0.99c-0.23,0.3-0.45,0.62-0.67,0.93c1.43,2.53,3.78,5.01,6.02,6.81
				c2.49,2,5.25,2.23,8.15,3.2c0.12,0.04,0.04,0.22-0.09,0.18c-3.11-0.99-5.9-1.17-8.53-3.31c-1.22-1-2.26-2.17-3.35-3.31
				c-0.91-0.95-1.89-1.88-2.61-2.97c-0.62,0.93-1.19,1.9-1.72,2.9c3.31,3.94,7.29,10.59,13.23,9.27c0.08-0.02,0.12,0.1,0.04,0.12
				c-5.41,1.33-10.53-4.65-13.61-8.73c-0.41,0.8-0.79,1.61-1.16,2.43c2.15,3.59,6.23,6.69,10.1,7.81c0.09,0.03,0.07,0.17-0.02,0.14
				c-2.57-0.65-4.86-1.89-6.8-3.7c-1.13-1.05-2.61-2.3-3.52-3.71c-0.37,0.85-0.71,1.7-1.05,2.55c0.76,1.09,1.58,2.14,2.61,3.01
				c1.25,1.05,2.7,1.8,4.14,2.56c0.12,0.06,0.04,0.27-0.08,0.2c-1.47-0.74-2.95-1.48-4.24-2.53c-1.01-0.82-1.81-1.82-2.58-2.84
				c-0.07,0.17-0.13,0.34-0.2,0.51c-0.74,1.94-5.24,11.53-5.85,13.5c-0.52,1.67-1.05,3.46-2.5,4.53
				C221.81,240.98,220.69,239.99,220.96,239.13z"/>
		</g>
		<g>
			
				<linearGradient id="SVGID_00000030488402262184456260000007117439664693839506_" gradientUnits="userSpaceOnUse" x1="649.1749" y1="63.9091" x2="703.1666" y2="63.9091" gradientTransform="matrix(-0.8351 0.5501 0.5501 0.8351 746.3393 -222.5317)">
				<stop  offset="0" style="stop-color:#94549F"/>
				<stop  offset="1" style="stop-color:#5F249D"/>
			</linearGradient>
			<path style="fill:url(#SVGID_00000030488402262184456260000007117439664693839506_);" d="M210.85,225.46
				c4.36,4.29,12.35,2.45,16.6-0.94c6.45-5.16,9.87-13.92,8.67-22.04c-1.01-6.79-6.05-12.28-8.87-18.41
				c-1.97-4.29-4.12-12.45-1.11-16.18c-2.5,1.69-4.21,5.16-6.61,7.19c-4.52,3.81-9.51,6.8-14.33,10.21
				c-7.72,5.47-15.71,11.52-14.81,21.96c0.52,6.05,4.28,12.48,9.26,15.91c2.39,1.65,9.68,4.52,11.48,2.11"/>
			<path class="st70" d="M212.7,250.44c-0.69-2.45-0.91-5.09-1.53-7.58c-0.71-2.88-2.4-16.87-2.72-19.82
				c-0.01-0.09-0.02-0.17-0.03-0.26c-6.01-2.49-12.06-5.71-15.16-11.73c-0.08-0.16,0.18-0.33,0.28-0.17
				c3.64,5.7,8.88,8.63,14.82,11.3c-0.12-1.24-0.23-2.5-0.3-3.75c-3.09-1.15-5.76-2.74-8.29-4.98c-2.36-2.08-5.49-4.22-6.95-7.07
				c-0.06-0.12,0.13-0.21,0.19-0.09c1.53,2.95,5.07,5.39,7.64,7.45c1.36,1.08,2.79,2.13,4.37,2.87c0.97,0.45,2,0.77,3,1.15
				c-0.05-0.98-0.07-1.96-0.07-2.94c-0.46-0.24-0.9-0.54-1.34-0.8c-1.85-1.11-3.61-2.31-5.31-3.63c-3.17-2.47-5.97-5.32-8.22-8.66
				c-0.07-0.1,0.07-0.22,0.14-0.12c2.13,3.02,4.71,5.57,7.65,7.8c1.22,0.92,2.49,1.82,3.78,2.63c0.86,0.54,2.1,1.47,3.3,2
				c0.02-1.33,0.1-2.66,0.24-3.98c-2.78-1.44-5.29-3.4-7.72-5.36c-2.18-1.76-4.43-3.76-5.31-6.5c-0.02-0.06,0.09-0.1,0.11-0.04
				c1.01,2.92,3.59,4.88,6,6.64c2.25,1.64,4.5,3.33,6.98,4.6c0.08-0.66,0.18-1.31,0.31-1.97c0.08-0.45,0.19-0.9,0.29-1.35
				c-2.17-1.62-4.48-3.05-6.49-4.89c-2.34-2.15-3.57-4.51-5.11-7.24c-0.09-0.16,0.16-0.27,0.26-0.12c1.77,2.81,3.34,5.3,5.88,7.49
				c1.76,1.51,3.73,2.73,5.6,4.09c0.25-1.07,0.55-2.13,0.87-3.18c-4.14-2.82-7.25-5.99-10.04-10.22c-0.14-0.21,0.17-0.46,0.32-0.25
				c1.51,2.24,3.1,4.45,5.07,6.31c1.47,1.39,3.21,2.39,4.83,3.58c0-0.01,0.01-0.02,0.01-0.03c0-0.06,0.02-0.12,0.05-0.16
				c0.4-1.24,0.84-2.47,1.31-3.69c-3.48-1.96-5.53-5.98-7.44-9.29c-0.06-0.11,0.11-0.18,0.17-0.08c2,3.29,4.06,6.86,7.43,8.95
				c0.36-0.91,0.75-1.82,1.15-2.72c-2.44-2.55-4.98-5.05-6.14-8.47c-0.02-0.06,0.07-0.09,0.09-0.03c1.21,3.33,3.78,5.72,6.17,8.24
				c0.56-1.25,1.14-2.5,1.75-3.74c-2.29-1.02-4.36-3.78-5.07-6.11c-0.03-0.11,0.14-0.19,0.17-0.07c0.61,1.81,1.69,3.12,3.1,4.38
				c0.54,0.48,1.39,0.99,1.9,1.6c0.49-0.99,0.98-1.97,1.49-2.95c0-0.02,0.01-0.04,0.03-0.05c0.01-0.02,0.03-0.05,0.04-0.07
				c-1.41-1.49-2.93-2.9-3.57-4.92c-0.04-0.12,0.14-0.19,0.17-0.07c0.59,1.85,2.03,3.5,3.5,4.79c0.41-0.78,0.82-1.56,1.23-2.33
				c-0.02-0.02-0.04-0.03-0.06-0.05c-0.02-0.01-0.03-0.02-0.04-0.03c-1.03-0.97-1.57-2.46-2.29-3.64c-0.01-0.02,0.02-0.05,0.04-0.03
				c0.8,1.17,1.43,2.44,2.44,3.45c0.02,0,0.04-0.01,0.07-0.01c0.47-0.88,0.95-1.76,1.42-2.64c-0.75-0.9-1.33-1.91-1.74-3.01
				c-0.04-0.1,0.11-0.17,0.15-0.07c0.42,1.03,1,1.97,1.73,2.81c0.03-0.06,0.07-0.12,0.1-0.18c0-0.04,0.02-0.07,0.05-0.09
				c0.89-1.65,1.78-3.3,2.63-4.93c0.01-0.01,0.03,0,0.02,0.01c-0.77,1.62-1.6,3.26-2.44,4.91c1.52,0.11,2.82-0.1,4.14-0.91
				c0.14-0.09,0.3,0.12,0.16,0.21c-1.41,0.86-2.8,1.08-4.42,0.94c-0.04,0.07-0.07,0.15-0.11,0.22c0.03,0.03,0.05,0.06,0.08,0.09
				c0.12,0.13-0.1,0.31-0.22,0.18c-0.41,0.8-0.82,1.61-1.24,2.42c2.15-0.27,4.25,0.23,6.23-1.03c0.11-0.07,0.25,0.09,0.13,0.17
				c-2,1.31-4.24,0.98-6.5,1.17c0.01,0.01,0.02,0.02,0.03,0.03c0.13,0.12-0.01,0.35-0.16,0.23c-0.01-0.01-0.01-0.01-0.02-0.02
				c-0.4,0.79-0.79,1.57-1.19,2.37c0.03,0.03,0.06,0.06,0.1,0.08c0,0,0,0,0,0.01c2.88,0.47,5.43,0.72,8.03-1.1
				c0.07-0.05,0.16,0.05,0.09,0.11c-2.18,1.65-5.8,2.54-8.37,1.21c-0.47,0.94-0.92,1.89-1.36,2.85c2.95,0.59,6.8,2.1,9.51,0.22
				c0.14-0.1,0.3,0.11,0.16,0.21c-2.81,1.96-6.73,0.44-9.78-0.11c0.03,0.08-0.04,0.16-0.11,0.17c-0.53,1.15-1.04,2.31-1.51,3.48
				c4.53,2.95,10.27,0.63,14.99-0.68c0.23-0.07,0.35,0.3,0.12,0.36c-4.85,1.28-10.62,3.68-15.23,0.61c0,0.01-0.01,0.01-0.01,0.02
				c0.02,0.07-0.01,0.13-0.07,0.16c-0.33,0.81-0.64,1.63-0.93,2.45c2.66,1.04,6.06,1.43,8.88,1.46c3.35,0.04,6.65-0.65,9.53-2.4
				c0.1-0.06,0.21,0.08,0.11,0.15c-2.67,1.94-5.99,2.6-9.24,2.64c-3.02,0.04-6.58-0.35-9.43-1.45c-0.42,1.21-0.79,2.44-1.12,3.67
				c3.37,0.87,6.56,1.79,10.11,1.74c3.98-0.06,7.22-1.33,10.83-2.81c0.17-0.07,0.28,0.19,0.11,0.26c-3.7,1.61-6.79,2.91-10.89,2.99
				c-3.61,0.07-6.86-0.81-10.33-1.59c-0.02,0.06-0.03,0.13-0.05,0.19c0.01,0.06-0.01,0.11-0.04,0.16c-0.27,1.14-0.49,2.28-0.66,3.43
				c3.59,1.28,7.52,2,11.33,2.23c4.45,0.27,8.17-1.65,12.13-3.39c0.11-0.05,0.18,0.12,0.08,0.17c-3.66,1.88-7.25,3.78-11.47,3.68
				c-3.87-0.09-8.19-0.75-11.94-1.94c-0.05,0.1-0.13,0.18-0.24,0.19c-0.07,0.55-0.13,1.1-0.17,1.65c-0.03,0.49-0.05,0.99-0.06,1.49
				c3.35,1.72,7.67,2.72,11.38,3.08c4.13,0.4,7.28-1.33,11.12-2.35c0.16-0.04,0.2,0.21,0.04,0.26c-4.08,1.15-7.23,2.94-11.61,2.5
				c-2.04-0.21-4-0.74-5.99-1.19c-1.66-0.38-3.38-0.69-4.95-1.35c-0.01,1.46,0.07,2.91,0.2,4.37c6.39,1.91,15.46,6.26,20.94,0.6
				c0.07-0.08,0.2,0.03,0.13,0.11c-4.92,5.3-14.73,2.48-20.97,0.26c0.13,1.16,0.29,2.31,0.48,3.46c4.89,2.36,11.53,2.8,16.51,1.26
				c0.11-0.04,0.2,0.13,0.08,0.17c-3.24,1.13-6.62,1.42-10,0.85c-1.98-0.34-4.47-0.63-6.46-1.51c0.21,1.18,0.44,2.35,0.68,3.51
				c1.61,0.64,3.23,1.19,4.97,1.39c2.1,0.25,4.22,0.02,6.31-0.19c0.18-0.02,0.23,0.26,0.05,0.28c-2.12,0.24-4.26,0.5-6.39,0.28
				c-1.68-0.17-3.26-0.68-4.83-1.24c0.05,0.23,0.1,0.46,0.15,0.69c0.58,2.63,2.55,16.23,3.3,18.8c0.63,2.18,1.32,4.5,0.52,6.69
				C214.94,251.84,213.02,251.58,212.7,250.44z"/>
		</g>
		
			<linearGradient id="SVGID_00000173154114795867116340000001707410372918731908_" gradientUnits="userSpaceOnUse" x1="188.2602" y1="257.8554" x2="244.3395" y2="257.8554">
			<stop  offset="0" style="stop-color:#6E7DD1"/>
			<stop  offset="1" style="stop-color:#5F249D"/>
		</linearGradient>
		<path style="fill:url(#SVGID_00000173154114795867116340000001707410372918731908_);" d="M237.17,274h-41.75
			c-2.43,0-4.45-1.85-4.67-4.27l-2.5-28.01h56.08l-2.5,28.01C241.63,272.14,239.6,274,237.17,274z"/>
		<polygon class="st51" points="188.86,248.48 243.74,248.48 244.34,241.71 188.26,241.71 		"/>
		
			<linearGradient id="SVGID_00000109728187027682938120000002541052883383638437_" gradientUnits="userSpaceOnUse" x1="185.1117" y1="240.7059" x2="247.4881" y2="240.7059">
			<stop  offset="0" style="stop-color:#6E7DD1"/>
			<stop  offset="1" style="stop-color:#5F249D"/>
		</linearGradient>
		<polygon style="fill:url(#SVGID_00000109728187027682938120000002541052883383638437_);" points="186.55,246.03 246.05,246.03 
			247.49,235.39 185.11,235.39 		"/>
	</g>
	<path class="st75" d="M314.83,28.19h-7.55c-0.19-2.23-2.07-4-4.34-4h-9.44c-0.22-2.66-2.46-4.77-5.18-4.77h-18.97
		c-2.71,0-4.96,2.11-5.18,4.77h-4.11c-2.28,0-4.15,1.77-4.34,4h-5.18c-2.46,0-4.46,2.01-4.46,4.46s2.01,4.46,4.46,4.46h64.29
		c2.46,0,4.46-2.01,4.46-4.46S317.29,28.19,314.83,28.19z"/>
	<path class="st75" d="M184.5,48.19h-0.81c0.01-0.1,0.01-0.2,0.01-0.3c0-2.51-2.05-4.56-4.56-4.56h-3.57c0-0.07,0.01-0.13,0.01-0.2
		c0-2.62-2.14-4.76-4.76-4.76h-0.93c-2.62,0-4.76,2.14-4.76,4.76c0,0.07,0,0.13,0.01,0.2h-4.48c-2.51,0-4.56,2.05-4.56,4.56
		c0,0.1,0,0.2,0.01,0.3h-2.29c-2.34,0-4.26,1.92-4.26,4.26c0,2.34,1.92,4.26,4.26,4.26h30.67c2.34,0,4.26-1.92,4.26-4.26
		C188.76,50.1,186.84,48.19,184.5,48.19z"/>
	<g>
		<polygon class="st76" points="153.76,64.68 154.64,66.95 156.91,67.83 154.64,68.71 153.76,70.99 152.88,68.71 150.6,67.83 
			152.88,66.95 		"/>
		<polygon class="st76" points="245.04,18.08 245.92,20.35 248.19,21.23 245.92,22.11 245.04,24.39 244.16,22.11 241.88,21.23 
			244.16,20.35 		"/>
		<polygon class="st76" points="170.85,26.59 171.41,28.05 172.87,28.61 171.41,29.17 170.85,30.63 170.29,29.17 168.83,28.61 
			170.29,28.05 		"/>
		<polygon class="st76" points="303.92,70.42 304.48,71.87 305.94,72.43 304.48,73 303.92,74.45 303.36,73 301.9,72.43 
			303.36,71.87 		"/>
		<polygon class="st76" points="227.37,91.86 227.93,93.31 229.39,93.88 227.93,94.44 227.37,95.89 226.81,94.44 225.35,93.88 
			226.81,93.31 		"/>
		<polygon class="st76" points="329.49,38.74 330.06,40.19 331.51,40.76 330.06,41.32 329.49,42.77 328.93,41.32 327.48,40.76 
			328.93,40.19 		"/>
	</g>
</g>
</svg>
