<?xml version="1.0" encoding="utf-8"?>
<!-- Generator: Adobe Illustrator 28.1.0, SVG Export Plug-In . SVG Version: 6.00 Build 0)  -->
<svg version="1.1" id="Calque_1" xmlns="http://www.w3.org/2000/svg" xmlns:xlink="http://www.w3.org/1999/xlink" x="0px" y="0px"
	 viewBox="0 0 193.25 69.12" style="enable-background:new 0 0 193.25 69.12;" xml:space="preserve">
<style type="text/css">
	.st0{fill:url(#SVGID_1_);}
	.st1{fill:url(#SVGID_00000023965590865370747570000004721502277577575827_);}
	.st2{fill:#FFFFFF;}
	.st3{fill:#FCC045;}
	
		.st4{clip-path:url(#SVGID_00000126307147951184516560000010970718833041565607_);fill:url(#SVGID_00000018922981677690128450000010186988913593613461_);}
	.st5{clip-path:url(#SVGID_00000126307147951184516560000010970718833041565607_);}
	.st6{fill:#BBB3DA;}
	.st7{clip-path:url(#SVGID_00000047043568295853093720000000478750544385620108_);}
	.st8{fill:url(#SVGID_00000114784270062869260770000002644007034173664952_);}
	.st9{clip-path:url(#SVGID_00000137131187953204528240000014471097188085932194_);}
	.st10{fill:#FAFBFC;}
	.st11{fill:url(#SVGID_00000047031611030858071930000006292805048535059613_);}
	.st12{clip-path:url(#SVGID_00000111180139083444558690000012416889293706114232_);}
	
		.st13{clip-path:url(#SVGID_00000158017881888394540750000012432296911510409903_);fill:url(#SVGID_00000180355162235502018910000007682398278487566484_);}
	.st14{clip-path:url(#SVGID_00000158017881888394540750000012432296911510409903_);}
	.st15{clip-path:url(#SVGID_00000024719170145811409940000012458189154099458953_);}
	.st16{fill:url(#SVGID_00000072978413303137769450000010832612054680605099_);}
	.st17{clip-path:url(#SVGID_00000057834405287592548360000011673153587006067329_);}
	.st18{fill:url(#SVGID_00000157270401827044036220000007288830947105688491_);}
	.st19{clip-path:url(#SVGID_00000181774465028753382420000004685637513667029182_);}
	.st20{fill:url(#SVGID_00000026137805950236067250000007676133326611882670_);}
	.st21{fill:url(#SVGID_00000072257701147786072900000015430410792401161866_);}
	.st22{fill:url(#SVGID_00000108999575353305620570000016917995389592569278_);}
	.st23{fill:url(#SVGID_00000017502035973777082150000000430785074500839071_);}
	.st24{fill:url(#SVGID_00000057828230172809054670000008399574979807881356_);}
	.st25{fill:url(#SVGID_00000023978155013187222030000016196603036585039244_);}
	.st26{fill:url(#SVGID_00000111164676295226590200000012133537200633858975_);}
	.st27{fill:url(#SVGID_00000090281871218787413360000011751135153449584566_);}
	.st28{fill:url(#SVGID_00000112620508795189726080000006225482842356539266_);}
	.st29{fill:url(#SVGID_00000139284743074740150800000013488555933639043980_);}
	.st30{fill:url(#SVGID_00000139281173135834928160000013772089825777113994_);}
	.st31{fill:url(#SVGID_00000031173885772068920800000012082459247505535677_);}
	.st32{fill:url(#SVGID_00000106850614155219024470000012577232084796875178_);}
	.st33{fill:url(#SVGID_00000085944781864284036790000003900288048096769195_);}
	.st34{fill:url(#SVGID_00000155118184906742128300000002384190421039142325_);}
	.st35{fill:url(#SVGID_00000168113347435131726240000010443657803244006793_);}
	.st36{fill:url(#SVGID_00000047748620066204361090000011623915697819602850_);}
	.st37{fill:url(#SVGID_00000029761316829694968430000008089326570111608507_);}
	.st38{fill:url(#SVGID_00000132070537440047740780000002192386011071679387_);}
	.st39{fill:url(#SVGID_00000110470591935906626790000011680339606410681523_);}
	.st40{fill:url(#SVGID_00000138535718576897241120000013713548732778307725_);}
	.st41{fill:url(#SVGID_00000041265544285311666370000008910782347140744832_);}
	.st42{fill:url(#SVGID_00000059998087633277217740000016139876257052059797_);}
	.st43{fill:url(#SVGID_00000120528447363114188730000004661402249867735170_);}
	.st44{fill:url(#SVGID_00000067932686330536497850000017739686550167188381_);}
	.st45{fill:url(#SVGID_00000091008700389809014940000002256501340671696791_);}
	.st46{fill:url(#SVGID_00000106146419994585261430000006398386226869263490_);}
	.st47{fill:url(#SVGID_00000018955121392257689220000012947271566307213460_);}
	.st48{fill:url(#SVGID_00000132783769974450523250000015136031340718596777_);}
	.st49{fill:url(#SVGID_00000125570639418657453300000003336530114903581352_);}
	.st50{fill:url(#SVGID_00000039813299743395082370000011935100856239219337_);}
	.st51{fill:url(#SVGID_00000170243934364461399550000017214945807517017494_);}
	.st52{fill:url(#SVGID_00000003815507022212221990000012419956774534600632_);}
	
		.st53{clip-path:url(#SVGID_00000102533997054834987670000000051648169627860147_);fill:url(#SVGID_00000037671889753108161250000010840018226409510276_);}
	.st54{clip-path:url(#SVGID_00000102533997054834987670000000051648169627860147_);}
	.st55{clip-path:url(#SVGID_00000096020645897717333720000000755355530508861584_);}
	.st56{fill:url(#SVGID_00000105413588295164997180000001880380449674384316_);}
	.st57{clip-path:url(#SVGID_00000132055269268494134320000007794563881598063496_);}
	.st58{fill:url(#SVGID_00000080902990813714061090000014065102604401141946_);}
	.st59{clip-path:url(#SVGID_00000083056555508090453700000014818708120715467429_);}
	
		.st60{clip-path:url(#SVGID_00000010992844822511238910000003990650330161831087_);fill:url(#SVGID_00000077282992364043028930000014398339403334371760_);}
	.st61{clip-path:url(#SVGID_00000010992844822511238910000003990650330161831087_);}
	.st62{clip-path:url(#SVGID_00000029725862092881763900000010734475478615126166_);}
	.st63{fill:url(#SVGID_00000183937989005028454690000013878433331052684462_);}
	.st64{clip-path:url(#SVGID_00000113346053726923081910000007667872369358321813_);}
	.st65{fill:url(#SVGID_00000100344049770224006050000008601884120482597293_);}
	.st66{clip-path:url(#SVGID_00000138567354328060652340000003707071321750497948_);}
	.st67{fill:url(#SVGID_00000007407782126062248150000001791428391942922159_);}
	.st68{fill:url(#SVGID_00000101083417320275077110000014819653037625696183_);}
	.st69{fill:url(#SVGID_00000118377614832607361270000000446065484614509203_);}
	.st70{fill:url(#SVGID_00000152255166511525190670000008398320851032915333_);}
	.st71{fill:url(#SVGID_00000016045899198634346890000006279415165967877820_);}
	.st72{fill:url(#SVGID_00000003808343676530507440000006217743155322121146_);}
	.st73{fill:url(#SVGID_00000018199835903810762430000000034010162597837502_);}
	.st74{fill:url(#SVGID_00000125579341658877057030000001373367578761355138_);}
	.st75{fill:url(#SVGID_00000171681154446337460670000003243558289465201566_);}
	.st76{fill:url(#SVGID_00000142138400543230477420000006728132375569133220_);}
	.st77{fill:url(#SVGID_00000110471491329992667900000015338087976056748193_);}
	.st78{fill:url(#SVGID_00000148634276400094601130000005750926998663914899_);}
	.st79{fill:url(#SVGID_00000070096932773999028220000001394896817473963967_);}
	.st80{fill:url(#SVGID_00000129173707773816936350000001112387556613685655_);}
	.st81{fill:url(#SVGID_00000068635147769192404260000009371130908326394277_);}
	.st82{fill:url(#SVGID_00000031175296913558722800000014836849431819967378_);}
	.st83{fill:url(#SVGID_00000087374369509518981430000000235697249617453448_);}
	.st84{fill:url(#SVGID_00000051374018576247371160000011226035623656178105_);}
	.st85{fill:url(#SVGID_00000126310397869454371290000004931291731324565174_);}
	.st86{fill:url(#SVGID_00000050642345916365625250000004055742075557079997_);}
	.st87{fill:url(#SVGID_00000150795318946898163570000001238729945764073900_);}
	.st88{fill:url(#SVGID_00000036223905071171142560000015496349400399051650_);}
	.st89{fill:url(#SVGID_00000040548804597762364030000006111860098718520732_);}
	.st90{fill:url(#SVGID_00000062176687823731928060000011412153998096504731_);}
	.st91{fill:url(#SVGID_00000160875019251298665100000001785495812525974694_);}
	.st92{fill:url(#SVGID_00000065054071761442592320000017406093137628627594_);}
	.st93{fill:url(#SVGID_00000009578825795283529820000009684280339947732868_);}
	.st94{fill:url(#SVGID_00000066511424970225625590000013940953923716819635_);}
	.st95{fill:url(#SVGID_00000166656897843965079870000012135395065132773527_);}
	.st96{fill:url(#SVGID_00000137837880549158285520000011896818407048881588_);}
	.st97{fill:url(#SVGID_00000093157820484653957060000014090771678877294982_);}
	.st98{fill:url(#SVGID_00000072984368757874881030000012065139430544317060_);}
	.st99{fill:url(#SVGID_00000028313090702025782150000014140396109129713086_);}
</style>
<g>
	<path class="st3" d="M58.53,13.92c-5.19-5.63-12.16-8.64-20.89-9.06c0.02,0.11,0.04,0.23,0.05,0.33c0.06,0.74-0.03,1.49-0.25,2.25
		c2.12,0.98,3.83,3.63,5.13,7.98c1.68,5.61,2.52,12.76,2.52,21.47c0,8.7-0.84,15.88-2.52,21.54c-1.68,5.66-4.04,8.49-7.08,8.49
		c-2.94,0-5.24-2.83-6.92-8.49c-0.02-0.07-0.04-0.15-0.06-0.22c-1.98,1.5-3.94,3.03-5.71,4.77c-0.9,0.88-1.7,1.84-2.44,2.85
		c4.32,2.19,9.36,3.3,15.13,3.3c9.64,0,17.3-3.07,22.96-9.2c5.66-6.13,8.49-13.81,8.49-23.04C66.94,27.66,64.13,20,58.53,13.92z"/>
	<g>
		<defs>
			<path id="SVGID_00000039846932242415674760000017560075510364920195_" d="M16.87,43h7.19c0,0,1.35-3.69-0.41-6.29
				c-3.59-5.31,1.31-8.09,3.19-9.56c2.83-2.22,4.36-5.41,0.2-6.8c-4.17-1.39,0.02-7.85,5.11-10.77c4.98-2.86,2.78-13.37-8.58-8.17
				c-6.78,3.1-5.72,10.29-6.04,14.05c-0.33,3.76-5.92,4.07-4,8.66c1.63,3.92,4.74,6.78,2.37,9.48C13.52,36.3,13.27,39.33,16.87,43z"
				/>
		</defs>
		<clipPath id="SVGID_00000152957688110554683470000014907978254340656303_">
			<use xlink:href="#SVGID_00000039846932242415674760000017560075510364920195_"  style="overflow:visible;"/>
		</clipPath>
		<linearGradient id="SVGID_1_" gradientUnits="userSpaceOnUse" x1="29.5895" y1="1.1629" x2="15.2786" y2="41.836">
			<stop  offset="0" style="stop-color:#8E7FBA"/>
			<stop  offset="0.9964" style="stop-color:#5A62AA"/>
		</linearGradient>
		<path style="clip-path:url(#SVGID_00000152957688110554683470000014907978254340656303_);fill:url(#SVGID_1_);" d="M16.87,43h7.19
			c0,0,1.35-3.69-0.41-6.29c-3.59-5.31,1.31-8.09,3.19-9.56c2.83-2.22,4.08-5.08,0.67-6.94c-3.86-2.1-0.46-7.7,4.64-10.62
			c4.98-2.86,2.78-13.37-8.58-8.17c-6.78,3.1-5.72,10.29-6.04,14.05c-0.33,3.76-5.92,4.07-4,8.66c1.63,3.92,4.74,6.78,2.37,9.48
			C13.52,36.3,13.27,39.33,16.87,43z"/>
		<g style="clip-path:url(#SVGID_00000152957688110554683470000014907978254340656303_);">
			<path class="st6" d="M19.98,43.67c-0.02-0.09-1.68-9.37-0.56-19.08c0.66-5.7,2.14-10.43,4.4-14.06
				c2.83-4.54,6.89-7.36,12.07-8.37l0.03,0.15C24.27,4.59,20.6,15.69,19.57,24.61c-1.12,9.68,0.54,18.94,0.56,19.03L19.98,43.67z"/>
			<path class="st6" d="M22.71,12.48C22.08,7.44,24,0.29,24.02,0.22l0.15,0.04c-0.02,0.07-1.93,7.19-1.3,12.2L22.71,12.48z"/>
			<path class="st6" d="M24.68,9.51L24.6,9.37c5.17-3.22,10.01-1.67,10.06-1.66l-0.05,0.15C34.56,7.85,29.79,6.33,24.68,9.51z"/>
			<path class="st6" d="M19.18,30.98l-0.15-0.04c1.71-7.22,11.57-9.04,11.67-9.04l0,0.16C30.61,22.07,20.88,23.83,19.18,30.98z"/>
			<path class="st6" d="M19.13,27.94c-0.94-4.53-5.87-7.66-5.92-7.69l0.08-0.13c0.05,0.03,5.03,3.19,5.99,7.79L19.13,27.94z"/>
			<path class="st6" d="M19.9,42.18l-0.16-0.01c0.23-2.87,4.15-5.04,4.31-5.14l0.08,0.14C24.09,37.19,20.12,39.4,19.9,42.18z"/>
			<path class="st6" d="M19.47,39.99c-0.36-2.12-3.61-4.51-4.68-5.3c-0.21-0.16-0.3-0.22-0.33-0.25l0.12-0.1
				c0.02,0.02,0.15,0.12,0.3,0.23c1.08,0.8,4.37,3.22,4.75,5.4L19.47,39.99z"/>
		</g>
	</g>
	<g>
		<defs>
			<path id="SVGID_00000145020962657826110700000005509733646814616970_" d="M30.35,68.8c0,0-9.2-0.37-29.57-12.08
				c-14.38-8.27-1.68-12.7-1.68-12.7l0.43-9.67l14.29,2.58l-5.68-9.72L0.22,9.82l5.29-4.54h7.42l9.49,7.04l9.37,17.36l3.47,12.46
				l1.42,20.59L30.35,68.8z"/>
		</defs>
		<clipPath id="SVGID_00000000216572628120268970000017660116188621278394_">
			<use xlink:href="#SVGID_00000145020962657826110700000005509733646814616970_"  style="overflow:visible;"/>
		</clipPath>
		<g style="clip-path:url(#SVGID_00000000216572628120268970000017660116188621278394_);">
			<g>
				<g>
					<g>
						
							<linearGradient id="SVGID_00000176746588973576336640000016398631070997629608_" gradientUnits="userSpaceOnUse" x1="26.1114" y1="49.2952" x2="-6.2474" y2="-6.6584">
							<stop  offset="0" style="stop-color:#FCC045"/>
							<stop  offset="0.9964" style="stop-color:#EE7058"/>
						</linearGradient>
						<path style="fill:url(#SVGID_00000176746588973576336640000016398631070997629608_);" d="M19.11,58.51
							c-1.46,2.3-0.7,4.9,0.12,6.69c0.25,0.03,0.38,0.12,0.62,0.22c2.19,0.85,4.54,1.28,6.81,1.75c0.49,0.1,0.97,0.12,1.47,0.19
							l0.51,0.05c0,0,3.27-6.94,0.44-8.99c-2.83-2.05-0.88-7.84-0.2-11.04c1.86-8.7-7.75-9.15-6.25-20.52
							c0.4-3.02,2.17-8.66-0.07-11.4c-2.54-3.13-5.02-0.72-6.58-3.26C13.54,8.22,8.97,6.31,5.66,9.62
							c-3.27,3.27-0.84,10.97,6.8,17.91c4.92,5.6,4.81,7.07,3.91,10.55c-0.64,2.44-3.86,8.6-0.83,11.63
							C18.57,52.74,20.78,55.88,19.11,58.51z"/>
						<g>
							<defs>
								<path id="SVGID_00000072271957702532155070000006794216492549659830_" d="M20.43,67.4h8.21c0,0,3.27-6.94,0.44-8.99
									c-2.83-2.05-0.88-7.84-0.2-11.04c1.86-8.7-7.75-9.15-6.25-20.52c0.4-3.02,2.16-8.66-0.07-11.4
									c-2.54-3.13-5.02-0.72-6.58-3.26C13.54,8.22,8.97,6.31,5.66,9.62c-3.27,3.27-0.84,10.97,6.8,17.91
									c4.92,5.6,4.81,7.07,3.91,10.55c-0.64,2.44-3.86,8.6-0.83,11.63s5.24,6.16,3.57,8.79C16.57,62.52,20.43,67.4,20.43,67.4z"/>
							</defs>
							<clipPath id="SVGID_00000101099593026232110410000005175440489762667402_">
								<use xlink:href="#SVGID_00000072271957702532155070000006794216492549659830_"  style="overflow:visible;"/>
							</clipPath>
							<g style="clip-path:url(#SVGID_00000101099593026232110410000005175440489762667402_);">
								<path class="st10" d="M24,56.12c-0.39-4.81-1.08-9.47-2.06-13.91c-1.26-5.66-3.01-11.05-5.21-16.03
									c-1.77-4.01-3.84-7.77-6.14-11.18c-1.62-2.4-3.34-4.6-5.12-6.54C5.14,8.11,4.81,7.79,4.48,7.47C4.05,7.04,3.6,6.6,3.22,6.14
									L3.08,6.25c0.39,0.47,0.84,0.91,1.28,1.34c0.32,0.32,0.66,0.64,0.96,0.98c1.77,1.94,3.49,4.13,5.1,6.52
									c2.3,3.4,4.36,7.15,6.13,11.15c2.2,4.97,3.95,10.35,5.2,16c0.99,4.47,1.68,9.16,2.07,14.01
									C23.88,56.21,23.94,56.17,24,56.12z"/>
								<path class="st10" d="M18.98,32.41c-2.23-7.03,2.1-18.86,2.14-18.98l0.17,0.06c-0.04,0.12-4.35,11.89-2.14,18.87
									L18.98,32.41z"/>
								<path class="st10" d="M23.46,52.47c-0.93-4.84-9.2-9.6-9.28-9.65l0.09-0.15c0.08,0.05,8.42,4.85,9.37,9.77L23.46,52.47z"/>
								<path class="st10" d="M23.76,55.3c-0.04-3.3,1.66-7.82,4.78-12.71c0.07-0.11,0.13-0.2,0.14-0.22l0.07,0.03h0.1
									c0,0.03,0,0.03-0.16,0.28c-3.11,4.87-4.8,9.34-4.75,12.61L23.76,55.3z"/>
								<path class="st10" d="M24.19,64.68c-1.05-3.36-5.94-5.28-5.99-5.3l0.06-0.16c0.05,0.02,5.02,1.98,6.09,5.41L24.19,64.68z"/>
								<path class="st10" d="M24.46,66.58l-0.17-0.06c1.02-2.75,2.86-5.29,5.62-7.78l0.12,0.13
									C27.29,61.33,25.47,63.86,24.46,66.58z"/>
								<path class="st10" d="M11.75,17.13c-1.45-3.83-2.09-8.18-2.3-9.61C9.41,7.27,9.39,7.07,9.38,7.04l0.17-0.06
									c0.01,0.04,0.03,0.16,0.08,0.51c0.21,1.43,0.85,5.76,2.29,9.57L11.75,17.13z"/>
								<path class="st10" d="M15.02,22.97c-2.3-2.96-10.06-3.89-10.14-3.9l0.02-0.18c0.32,0.04,7.91,0.95,10.26,3.97L15.02,22.97z"
									/>
							</g>
						</g>
					</g>
					<g>
						
							<linearGradient id="SVGID_00000077297455608629098710000014439733049278950574_" gradientUnits="userSpaceOnUse" x1="7.7413" y1="39.6873" x2="25.7294" y2="69.3004">
							<stop  offset="3.597120e-03" style="stop-color:#CA8DBD"/>
							<stop  offset="1" style="stop-color:#7A6FB1"/>
						</linearGradient>
						<path style="fill:url(#SVGID_00000077297455608629098710000014439733049278950574_);" d="M19.01,66.28
							c0.03,0.01,0.06,0.03,0.09,0.04c2.2,0.85,4.54,1.28,6.81,1.75c0.31,0.06,0.62,0.12,0.92,0.16c0.41-1.15,0.73-2.84-0.75-3.3
							c-2.29-0.7-2.31-4.74-1.67-6.16c0.79-1.76,2.55-5.9-0.97-7.04c-2.93-0.95-5.02-0.97-5.19-4.75c-0.18-3.78-2.22-6.16-5.65-5.96
							c-3.61,0.21-6.53-4.62-9.51-3.04c-5.18,2.76-0.57,11.13,5.68,13.6c6.25,2.46,2.64,4.69,2.44,7.79
							c-0.26,4.22,5.46,3.37,6.95,5.04C18.68,64.98,18.92,65.63,19.01,66.28z"/>
						<g>
							<defs>
								<path id="SVGID_00000055699294111939722070000015120159016608893631_" d="M18.83,68.61h7.87c0.46-1.11,1.04-3.17-0.6-3.67
									c-2.29-0.7-2.31-4.74-1.67-6.16c0.79-1.76,2.55-5.9-0.97-7.04c-2.93-0.95-5.02-0.97-5.19-4.75
									c-0.18-3.78-2.22-6.16-5.65-5.96c-3.61,0.21-6.53-4.62-9.51-3.04c-5.18,2.76-0.57,11.13,5.68,13.6
									c6.25,2.46,2.64,4.69,2.44,7.79c-0.26,4.22,5.46,3.37,6.95,5.04C19.34,65.72,19.11,67.51,18.83,68.61z"/>
							</defs>
							<clipPath id="SVGID_00000093898956356759781110000012455037770042447290_">
								<use xlink:href="#SVGID_00000055699294111939722070000015120159016608893631_"  style="overflow:visible;"/>
							</clipPath>
							<g style="clip-path:url(#SVGID_00000093898956356759781110000012455037770042447290_);">
								<path class="st10" d="M22.53,67.37C20.13,55.2,11.83,44.24,0.88,38.79l0.08-0.16c11,5.48,19.33,16.48,21.74,28.71
									L22.53,67.37z"/>
								<path class="st10" d="M20.82,60.82l-0.18,0c0.02-4.98,4.29-8.83,4.33-8.86l0.12,0.13C25.05,52.13,20.84,55.92,20.82,60.82z"
									/>
								<path class="st10" d="M22.02,65.14c-2.29-4.3-11.22-4.95-11.31-4.95l0.01-0.18c0.09,0.01,9.11,0.66,11.45,5.05L22.02,65.14z
									"/>
								<path class="st10" d="M14.64,50.18c-1.58-3.69,0.83-9.31,0.86-9.36l0.16,0.07c-0.02,0.06-2.41,5.61-0.86,9.22L14.64,50.18z"
									/>
								<path class="st10" d="M9.22,44.41c-3.75-2.33-9.61-1.07-9.67-1.06l-0.04-0.17c0.06-0.01,5.99-1.29,9.8,1.08L9.22,44.41z"/>
							</g>
						</g>
					</g>
				</g>
			</g>
		</g>
	</g>
	<g>
		<g>
			<g>
				
					<linearGradient id="SVGID_00000009557119605748517220000008805091754534208407_" gradientUnits="userSpaceOnUse" x1="59.5294" y1="5.2654" x2="200.1943" y2="80.0871">
					<stop  offset="3.597000e-03" style="stop-color:#5A62AA"/>
					<stop  offset="1" style="stop-color:#8E7FBA"/>
				</linearGradient>
				<path style="fill:url(#SVGID_00000009557119605748517220000008805091754534208407_);" d="M71.37,16.54h-4.06
					c0.32-0.59,0.48-1.18,0.48-1.75v-3.83c0-0.58-0.16-1.16-0.48-1.75l3.55-0.89v1.7c0.32-0.83,0.96-1.3,1.93-1.42
					c0.03,0,0.08,0,0.15-0.01c0.07-0.01,0.13-0.01,0.18-0.01c0.56,0,1.09,0.13,1.59,0.38c0.5,0.25,0.85,0.65,1.05,1.19
					c0.37-1.05,1.19-1.57,2.46-1.57c2.01,0,3.02,1.21,3.02,3.63v2.72c0,0.54,0.16,1.08,0.48,1.62h-1.98c-1,0-1.5-0.6-1.5-1.8v-3.27
					c0-1.47-0.35-2.22-1.04-2.26c-0.32-0.02-0.61,0.16-0.86,0.52s-0.38,0.96-0.38,1.79v3.4c0,0.54,0.16,1.08,0.48,1.62h-1.98
					c-1.01,0-1.52-0.6-1.52-1.8v-3.27v-0.18c0-0.1,0-0.19,0-0.28c0-0.08,0-0.2-0.01-0.34c-0.01-0.14-0.02-0.27-0.04-0.39
					c-0.02-0.12-0.05-0.24-0.1-0.37c-0.05-0.13-0.11-0.23-0.17-0.32c-0.06-0.08-0.14-0.16-0.24-0.22c-0.1-0.06-0.22-0.09-0.36-0.09
					c-0.02,0-0.04,0-0.08,0.01c-0.03,0.01-0.06,0.01-0.08,0.01c-0.32,0.07-0.58,0.36-0.76,0.88c-0.19,0.52-0.26,1.05-0.23,1.61v2.99
					C70.89,15.36,71.05,15.95,71.37,16.54z"/>
				
					<linearGradient id="SVGID_00000030473683507769943610000005359640035695551396_" gradientUnits="userSpaceOnUse" x1="61.5827" y1="1.4053" x2="202.2476" y2="76.227">
					<stop  offset="3.597000e-03" style="stop-color:#5A62AA"/>
					<stop  offset="1" style="stop-color:#8E7FBA"/>
				</linearGradient>
				<path style="fill:url(#SVGID_00000030473683507769943610000005359640035695551396_);" d="M82.56,10.57
					c-0.32-0.79-0.68-1.4-1.09-1.8h4.06c-0.24,0.44-0.19,1.04,0.13,1.8c0.44,1.1,0.99,2.32,1.65,3.65c0.19-0.44,0.39-0.93,0.61-1.46
					c0.22-0.53,0.41-1.01,0.58-1.43c0.17-0.42,0.27-0.68,0.3-0.76c0.17-0.42,0.27-0.74,0.29-0.94c0.03-0.2-0.03-0.49-0.17-0.86h1.62
					c-0.37,0.37-0.74,0.97-1.09,1.8l-2.56,6.11c-0.49,1.18-0.94,2.11-1.36,2.77c-0.41,0.66-0.84,1.07-1.28,1.22
					c-0.24,0.07-0.49,0.1-0.76,0.1c-0.61,0-1.07-0.16-1.39-0.48c-0.07-0.07-0.08-0.14-0.03-0.2c0.05-0.09,0.27-0.57,0.67-1.46
					c0.4-0.89,0.63-1.4,0.7-1.53c0.02-0.05,0.05-0.05,0.1,0c0.17,0.96,0.35,1.55,0.53,1.75c0.1,0.12,0.23,0.18,0.38,0.18
					c0.1,0,0.21-0.03,0.33-0.08c0.34-0.15,0.82-0.91,1.45-2.28l-0.71,0.31c-0.03,0.02-0.08,0.03-0.13,0.03
					c-0.14,0-0.22-0.06-0.25-0.18c-0.12-0.27-0.38-0.9-0.79-1.88c-0.41-0.98-0.79-1.9-1.14-2.75
					C82.87,11.33,82.65,10.79,82.56,10.57z"/>
			</g>
		</g>
		<g>
			
				<linearGradient id="SVGID_00000144324760305894914220000000569074077263247501_" gradientUnits="userSpaceOnUse" x1="53.9629" y1="15.7305" x2="194.6278" y2="90.5522">
				<stop  offset="3.597000e-03" style="stop-color:#5A62AA"/>
				<stop  offset="1" style="stop-color:#8E7FBA"/>
			</linearGradient>
			<path style="fill:url(#SVGID_00000144324760305894914220000000569074077263247501_);" d="M106.29,10.68c-1.33-1.22-3-1.83-5-1.83
				h-0.33c-0.74,0-1.37,0.11-1.89,0.33c-2.74,0.89-5.29,3.09-7.66,6.61c-2.37,3.52-4.18,7.61-5.44,12.27l-0.01-6.43
				c0,0-2.74,1.35-4.54,0.8c0,0-2.88-0.46-0.52-3.9H69.1c0.77,1.47,3.42,6.97,3.42,12.91v18.51c0,2.52-0.7,5.07-2.11,7.66h17.77
				c-1.41-2.59-2.11-5.15-2.11-7.66v-8.66c0.07-2.07,0.24-4.13,0.5-6.16c0.26-2.04,0.7-4.24,1.33-6.61
				c0.63-2.37,1.56-4.33,2.78-5.89c1.22-1.56,2.68-2.44,4.39-2.67c2.15,0,3.59,1.07,4.33,3.22c0.07,0,0.22,0.02,0.44,0.06
				c0.22,0.04,0.41,0.06,0.56,0.06c2.22,0,4.09-0.74,5.61-2.22c1.52-1.48,2.28-3.22,2.28-5.22
				C108.29,13.63,107.62,11.9,106.29,10.68z"/>
			
				<linearGradient id="SVGID_00000030485608270611388100000001555457129132331446_" gradientUnits="userSpaceOnUse" x1="54.0028" y1="15.6554" x2="194.6677" y2="90.4771">
				<stop  offset="3.597000e-03" style="stop-color:#5A62AA"/>
				<stop  offset="1" style="stop-color:#8E7FBA"/>
			</linearGradient>
			<path style="fill:url(#SVGID_00000030485608270611388100000001555457129132331446_);" d="M108.29,23.18
				c-2.37,2.74-6.44,4.11-12.22,4.11c-0.96,0-1.74-0.04-2.33-0.11c0.74,1.56,1.11,4.11,1.11,7.66v15.11c0,2.3-0.7,4.85-2.11,7.66
				h17.77c-1.41-2.59-2.11-5.15-2.11-7.66L108.29,23.18z"/>
			
				<linearGradient id="SVGID_00000158004581491237061240000005682424155134599568_" gradientUnits="userSpaceOnUse" x1="60.6653" y1="3.13" x2="201.3301" y2="77.9518">
				<stop  offset="3.597000e-03" style="stop-color:#5A62AA"/>
				<stop  offset="1" style="stop-color:#8E7FBA"/>
			</linearGradient>
			<path style="fill:url(#SVGID_00000158004581491237061240000005682424155134599568_);" d="M136.28,23.51
				c-1.63-0.45-3.26-0.67-4.89-0.67c-4.07,0-7.72,1.19-10.94,3.55c-3.22,2.37-5.39,5.52-6.5,9.44c-1.33,4.74-0.74,9.29,1.78,13.66
				c2.52,4.37,6.18,7.22,11,8.55c1.63,0.44,3.29,0.67,5,0.67c4,0,7.61-1.18,10.83-3.55c3.22-2.37,5.39-5.52,6.5-9.44
				c1.33-4.74,0.74-9.27-1.78-13.61C144.75,27.79,141.09,24.92,136.28,23.51z M134.67,52.56c-0.7,3.15-1.72,4.72-3.05,4.72
				c-2.67,0-4.07-5.48-4.22-16.44c-0.15-10.96,1.18-16.44,4-16.44c1.48-0.07,2.54,1.39,3.17,4.39c0.63,3,0.98,6.98,1.05,11.94
				C135.68,45.47,135.37,49.41,134.67,52.56z"/>
			
				<linearGradient id="SVGID_00000155868285948754380740000013141282277595041970_" gradientUnits="userSpaceOnUse" x1="68.6667" y1="-11.9126" x2="209.3316" y2="62.9091">
				<stop  offset="3.597000e-03" style="stop-color:#5A62AA"/>
				<stop  offset="1" style="stop-color:#8E7FBA"/>
			</linearGradient>
			<path style="fill:url(#SVGID_00000155868285948754380740000013141282277595041970_);" d="M191.14,50.5V39.39
				c0-4.96-1.19-8.96-3.55-12c-2.37-3.04-5.93-4.55-10.66-4.55c-4.15,0.22-7.11,2.19-8.89,5.89v-7l-15.55,3.89
				c1.41,2.59,2.11,5.15,2.11,7.66v16.77c0,2.52-0.7,5.07-2.11,7.66h17.77c-1.41-2.59-2.11-5.15-2.11-7.66V36.51
				c-0.15-2.59,0.18-4.94,1-7.05c0.81-2.11,2.04-3.28,3.67-3.5c3.48,0,5.22,3.15,5.22,9.44v14.33c0,5.33,2.18,8,6.55,8h8.66
				C191.85,55.35,191.14,52.94,191.14,50.5z"/>
		</g>
		<g>
			
				<linearGradient id="SVGID_00000105407577266166735150000001112913937009373580_" gradientUnits="userSpaceOnUse" x1="37.2337" y1="47.1814" x2="177.8986" y2="122.0031">
				<stop  offset="3.597000e-03" style="stop-color:#5A62AA"/>
				<stop  offset="1" style="stop-color:#8E7FBA"/>
			</linearGradient>
			<path style="fill:url(#SVGID_00000105407577266166735150000001112913937009373580_);" d="M70.6,62.33v4.14h1.42v0.68h-2.14v-4.82
				H70.6z"/>
			
				<linearGradient id="SVGID_00000070095367601205095550000002138955359312408449_" gradientUnits="userSpaceOnUse" x1="38.5626" y1="44.6831" x2="179.2274" y2="119.5049">
				<stop  offset="3.597000e-03" style="stop-color:#5A62AA"/>
				<stop  offset="1" style="stop-color:#8E7FBA"/>
			</linearGradient>
			<path style="fill:url(#SVGID_00000070095367601205095550000002138955359312408449_);" d="M73.35,62.12l0.62,0.24l-0.89,1.79
				l-0.47-0.2L73.35,62.12z"/>
			
				<linearGradient id="SVGID_00000142159746565837735100000017815571434234873265_" gradientUnits="userSpaceOnUse" x1="38.6565" y1="44.5065" x2="179.3214" y2="119.3283">
				<stop  offset="3.597000e-03" style="stop-color:#5A62AA"/>
				<stop  offset="1" style="stop-color:#8E7FBA"/>
			</linearGradient>
			<path style="fill:url(#SVGID_00000142159746565837735100000017815571434234873265_);" d="M78.02,63.01h-1.93v1.16h1.88v0.68
				h-1.88v1.61h1.93v0.68h-2.66v-4.82h2.66V63.01z"/>
			
				<linearGradient id="SVGID_00000078006064316863898030000009800142721460237998_" gradientUnits="userSpaceOnUse" x1="39.5595" y1="42.809" x2="180.2243" y2="117.6307">
				<stop  offset="3.597000e-03" style="stop-color:#5A62AA"/>
				<stop  offset="1" style="stop-color:#8E7FBA"/>
			</linearGradient>
			<path style="fill:url(#SVGID_00000078006064316863898030000009800142721460237998_);" d="M80.43,64.63l-1.33-2.3h0.83l0.92,1.63
				l0.97-1.63h0.83l-1.39,2.3l1.46,2.52H81.9l-1.07-1.84l-1.1,1.84h-0.82L80.43,64.63z"/>
			
				<linearGradient id="SVGID_00000110454461491472258950000003963463598487290516_" gradientUnits="userSpaceOnUse" x1="40.4099" y1="41.2102" x2="181.0747" y2="116.0319">
				<stop  offset="3.597000e-03" style="stop-color:#5A62AA"/>
				<stop  offset="1" style="stop-color:#8E7FBA"/>
			</linearGradient>
			<path style="fill:url(#SVGID_00000110454461491472258950000003963463598487290516_);" d="M84.54,65.19v1.96h-0.73v-4.82h0.82
				c0.4,0,0.71,0.03,0.91,0.08c0.21,0.06,0.39,0.16,0.55,0.32c0.28,0.27,0.42,0.61,0.42,1.02c0,0.44-0.15,0.79-0.44,1.05
				c-0.3,0.26-0.69,0.39-1.2,0.39H84.54z M84.54,64.51h0.27c0.67,0,1-0.26,1-0.77c0-0.5-0.34-0.75-1.03-0.75h-0.24V64.51z"/>
			
				<linearGradient id="SVGID_00000181784066096274645670000011498921708040551591_" gradientUnits="userSpaceOnUse" x1="41.3815" y1="39.3836" x2="182.0464" y2="114.2053">
				<stop  offset="3.597000e-03" style="stop-color:#5A62AA"/>
				<stop  offset="1" style="stop-color:#8E7FBA"/>
			</linearGradient>
			<path style="fill:url(#SVGID_00000181784066096274645670000011498921708040551591_);" d="M90.37,63.01h-1.93v1.16h1.88v0.68
				h-1.88v1.61h1.93v0.68h-2.66v-4.82h2.66V63.01z"/>
			
				<linearGradient id="SVGID_00000127761836571849337710000007115045337278192019_" gradientUnits="userSpaceOnUse" x1="42.1614" y1="37.9173" x2="182.8263" y2="112.739">
				<stop  offset="3.597000e-03" style="stop-color:#5A62AA"/>
				<stop  offset="1" style="stop-color:#8E7FBA"/>
			</linearGradient>
			<path style="fill:url(#SVGID_00000127761836571849337710000007115045337278192019_);" d="M93.41,65.09l1.49,2.05h-0.89
				l-1.38-1.97H92.5v1.97h-0.73v-4.82h0.85c0.64,0,1.1,0.12,1.38,0.36c0.31,0.27,0.47,0.62,0.47,1.05c0,0.34-0.1,0.63-0.29,0.88
				C93.99,64.87,93.73,65.02,93.41,65.09z M92.5,64.54h0.23c0.69,0,1.03-0.26,1.03-0.79c0-0.49-0.33-0.74-1-0.74H92.5V64.54z"/>
			
				<linearGradient id="SVGID_00000182499606839548815770000010109275231551846581_" gradientUnits="userSpaceOnUse" x1="43.2538" y1="35.8636" x2="183.9187" y2="110.6853">
				<stop  offset="3.597000e-03" style="stop-color:#5A62AA"/>
				<stop  offset="1" style="stop-color:#8E7FBA"/>
			</linearGradient>
			<path style="fill:url(#SVGID_00000182499606839548815770000010109275231551846581_);" d="M97.34,63.01v4.14h-0.73v-4.14h-1.11
				v-0.68h2.94v0.68H97.34z"/>
			
				<linearGradient id="SVGID_00000047760758167543576470000001293178766110757254_" gradientUnits="userSpaceOnUse" x1="44.4966" y1="33.5271" x2="185.1615" y2="108.3488">
				<stop  offset="3.597000e-03" style="stop-color:#5A62AA"/>
				<stop  offset="1" style="stop-color:#8E7FBA"/>
			</linearGradient>
			<path style="fill:url(#SVGID_00000047760758167543576470000001293178766110757254_);" d="M104.37,63.01h-1.68v1.16h1.62v0.68
				h-1.62v2.29h-0.73v-4.82h2.41V63.01z"/>
			
				<linearGradient id="SVGID_00000118368095452348729800000007548129357951788427_" gradientUnits="userSpaceOnUse" x1="45.5509" y1="31.545" x2="186.2158" y2="106.3668">
				<stop  offset="3.597000e-03" style="stop-color:#5A62AA"/>
				<stop  offset="1" style="stop-color:#8E7FBA"/>
			</linearGradient>
			<path style="fill:url(#SVGID_00000118368095452348729800000007548129357951788427_);" d="M105.43,64.71
				c0-0.68,0.25-1.26,0.75-1.75c0.49-0.49,1.09-0.73,1.79-0.73c0.69,0,1.28,0.25,1.77,0.74c0.49,0.49,0.74,1.08,0.74,1.77
				c0,0.69-0.25,1.28-0.74,1.76c-0.5,0.48-1.1,0.73-1.8,0.73c-0.62,0-1.18-0.22-1.68-0.65C105.7,66.11,105.43,65.49,105.43,64.71z
				 M106.16,64.72c0,0.53,0.18,0.97,0.54,1.31c0.36,0.34,0.77,0.52,1.23,0.52c0.51,0,0.93-0.17,1.28-0.52
				c0.35-0.35,0.52-0.78,0.52-1.29c0-0.51-0.17-0.94-0.52-1.29c-0.34-0.35-0.76-0.52-1.27-0.52c-0.5,0-0.93,0.17-1.27,0.52
				C106.33,63.79,106.16,64.22,106.16,64.72z"/>
			
				<linearGradient id="SVGID_00000138573645165321901600000004910891634364226436_" gradientUnits="userSpaceOnUse" x1="46.5835" y1="29.6038" x2="187.2484" y2="104.4255">
				<stop  offset="3.597000e-03" style="stop-color:#5A62AA"/>
				<stop  offset="1" style="stop-color:#8E7FBA"/>
			</linearGradient>
			<path style="fill:url(#SVGID_00000138573645165321901600000004910891634364226436_);" d="M113.46,65.09l1.49,2.05h-0.89
				l-1.38-1.97h-0.13v1.97h-0.73v-4.82h0.85c0.64,0,1.1,0.12,1.38,0.36c0.31,0.27,0.47,0.62,0.47,1.05c0,0.34-0.1,0.63-0.29,0.88
				C114.04,64.87,113.78,65.02,113.46,65.09z M112.55,64.54h0.23c0.69,0,1.03-0.26,1.03-0.79c0-0.49-0.33-0.74-1-0.74h-0.26V64.54z"
				/>
			
				<linearGradient id="SVGID_00000134236511409150949170000011922238659546035376_" gradientUnits="userSpaceOnUse" x1="47.8745" y1="27.1768" x2="188.5393" y2="101.9985">
				<stop  offset="3.597000e-03" style="stop-color:#5A62AA"/>
				<stop  offset="1" style="stop-color:#8E7FBA"/>
			</linearGradient>
			<path style="fill:url(#SVGID_00000134236511409150949170000011922238659546035376_);" d="M115.95,67.15l1.01-5.18l1.65,3.75
				l1.71-3.75l0.91,5.18h-0.75l-0.47-2.91l-1.43,3.13l-1.39-3.13l-0.52,2.91H115.95z"/>
			
				<linearGradient id="SVGID_00000088813540945245550450000009730399585571504775_" gradientUnits="userSpaceOnUse" x1="49.0112" y1="25.0397" x2="189.6761" y2="99.8614">
				<stop  offset="3.597000e-03" style="stop-color:#5A62AA"/>
				<stop  offset="1" style="stop-color:#8E7FBA"/>
			</linearGradient>
			<path style="fill:url(#SVGID_00000088813540945245550450000009730399585571504775_);" d="M125.55,65.97h-2.06l-0.54,1.17h-0.78
				l2.38-5.12l2.3,5.12h-0.8L125.55,65.97z M125.25,65.29l-0.71-1.64l-0.75,1.64H125.25z"/>
			
				<linearGradient id="SVGID_00000019643566150592474080000016872043054041632940_" gradientUnits="userSpaceOnUse" x1="50.2257" y1="22.7564" x2="190.8906" y2="97.5781">
				<stop  offset="3.597000e-03" style="stop-color:#5A62AA"/>
				<stop  offset="1" style="stop-color:#8E7FBA"/>
			</linearGradient>
			<path style="fill:url(#SVGID_00000019643566150592474080000016872043054041632940_);" d="M128.96,63.01v4.14h-0.73v-4.14h-1.11
				v-0.68h2.94v0.68H128.96z"/>
			
				<linearGradient id="SVGID_00000124132144564762316760000009014278551570310784_" gradientUnits="userSpaceOnUse" x1="50.7497" y1="21.7713" x2="191.4146" y2="96.593">
				<stop  offset="3.597000e-03" style="stop-color:#5A62AA"/>
				<stop  offset="1" style="stop-color:#8E7FBA"/>
			</linearGradient>
			<path style="fill:url(#SVGID_00000124132144564762316760000009014278551570310784_);" d="M131.89,62.33v4.82h-0.73v-4.82H131.89z
				"/>
			
				<linearGradient id="SVGID_00000146499330535827213780000012577833213442812347_" gradientUnits="userSpaceOnUse" x1="51.6871" y1="20.0091" x2="192.3519" y2="94.8308">
				<stop  offset="3.597000e-03" style="stop-color:#5A62AA"/>
				<stop  offset="1" style="stop-color:#8E7FBA"/>
			</linearGradient>
			<path style="fill:url(#SVGID_00000146499330535827213780000012577833213442812347_);" d="M133.25,64.71
				c0-0.68,0.25-1.26,0.75-1.75c0.49-0.49,1.09-0.73,1.79-0.73c0.69,0,1.28,0.25,1.77,0.74c0.49,0.49,0.74,1.08,0.74,1.77
				c0,0.69-0.25,1.28-0.74,1.76c-0.5,0.48-1.1,0.73-1.8,0.73c-0.62,0-1.18-0.22-1.68-0.65C133.52,66.11,133.25,65.49,133.25,64.71z
				 M133.99,64.72c0,0.53,0.18,0.97,0.54,1.31c0.36,0.34,0.77,0.52,1.23,0.52c0.51,0,0.93-0.17,1.28-0.52
				c0.35-0.35,0.52-0.78,0.52-1.29c0-0.51-0.17-0.94-0.52-1.29c-0.34-0.35-0.76-0.52-1.27-0.52c-0.5,0-0.93,0.17-1.27,0.52
				C134.16,63.79,133.99,64.22,133.99,64.72z"/>
			
				<linearGradient id="SVGID_00000129172035192717692080000004371188747860063113_" gradientUnits="userSpaceOnUse" x1="53.0098" y1="17.5223" x2="193.6747" y2="92.344">
				<stop  offset="3.597000e-03" style="stop-color:#5A62AA"/>
				<stop  offset="1" style="stop-color:#8E7FBA"/>
			</linearGradient>
			<path style="fill:url(#SVGID_00000129172035192717692080000004371188747860063113_);" d="M139.65,67.15V62l3.51,3.68v-3.35h0.73
				v5.11l-3.51-3.67v3.37H139.65z"/>
			
				<linearGradient id="SVGID_00000026851412143652593450000014120711282294410388_" gradientUnits="userSpaceOnUse" x1="54.6578" y1="14.4241" x2="195.3227" y2="89.2458">
				<stop  offset="3.597000e-03" style="stop-color:#5A62AA"/>
				<stop  offset="1" style="stop-color:#8E7FBA"/>
			</linearGradient>
			<path style="fill:url(#SVGID_00000026851412143652593450000014120711282294410388_);" d="M150.57,63.01h-1.93v1.16h1.88v0.68
				h-1.88v1.61h1.93v0.68h-2.66v-4.82h2.66V63.01z"/>
			
				<linearGradient id="SVGID_00000026145869453939164530000003627264344589702837_" gradientUnits="userSpaceOnUse" x1="55.5952" y1="12.6618" x2="196.2601" y2="87.4835">
				<stop  offset="3.597000e-03" style="stop-color:#5A62AA"/>
				<stop  offset="1" style="stop-color:#8E7FBA"/>
			</linearGradient>
			<path style="fill:url(#SVGID_00000026145869453939164530000003627264344589702837_);" d="M153.31,63.01v4.14h-0.73v-4.14h-1.11
				v-0.68h2.94v0.68H153.31z"/>
			
				<linearGradient id="SVGID_00000080165861292651387480000010932240823612625840_" gradientUnits="userSpaceOnUse" x1="57.0712" y1="9.8868" x2="197.7361" y2="84.7086">
				<stop  offset="3.597000e-03" style="stop-color:#5A62AA"/>
				<stop  offset="1" style="stop-color:#8E7FBA"/>
			</linearGradient>
			<path style="fill:url(#SVGID_00000080165861292651387480000010932240823612625840_);" d="M161.49,62.59v0.86
				c-0.42-0.35-0.86-0.53-1.3-0.53c-0.5,0-0.91,0.18-1.25,0.53c-0.34,0.35-0.51,0.79-0.51,1.3c0,0.51,0.17,0.93,0.51,1.28
				c0.34,0.35,0.76,0.52,1.25,0.52c0.26,0,0.47-0.04,0.65-0.12c0.1-0.04,0.2-0.1,0.31-0.17c0.11-0.07,0.22-0.16,0.34-0.26v0.88
				c-0.42,0.24-0.85,0.35-1.31,0.35c-0.69,0-1.28-0.24-1.76-0.72c-0.49-0.48-0.73-1.07-0.73-1.75c0-0.61,0.2-1.16,0.61-1.64
				c0.5-0.59,1.15-0.88,1.94-0.88C160.67,62.23,161.08,62.35,161.49,62.59z"/>
			
				<linearGradient id="SVGID_00000001641484010152165280000008120365865580155578_" gradientUnits="userSpaceOnUse" x1="58.1552" y1="7.8489" x2="198.8201" y2="82.6707">
				<stop  offset="3.597000e-03" style="stop-color:#5A62AA"/>
				<stop  offset="1" style="stop-color:#8E7FBA"/>
			</linearGradient>
			<path style="fill:url(#SVGID_00000001641484010152165280000008120365865580155578_);" d="M162.58,64.71
				c0-0.68,0.25-1.26,0.75-1.75c0.49-0.49,1.09-0.73,1.79-0.73c0.69,0,1.28,0.25,1.77,0.74c0.49,0.49,0.74,1.08,0.74,1.77
				c0,0.69-0.25,1.28-0.74,1.76c-0.5,0.48-1.1,0.73-1.8,0.73c-0.62,0-1.18-0.22-1.68-0.65C162.85,66.11,162.58,65.49,162.58,64.71z
				 M163.31,64.72c0,0.53,0.18,0.97,0.54,1.31c0.36,0.34,0.77,0.52,1.23,0.52c0.51,0,0.93-0.17,1.28-0.52
				c0.35-0.35,0.52-0.78,0.52-1.29c0-0.51-0.17-0.94-0.52-1.29c-0.34-0.35-0.76-0.52-1.27-0.52c-0.5,0-0.93,0.17-1.27,0.52
				C163.49,63.79,163.31,64.22,163.31,64.72z"/>
			
				<linearGradient id="SVGID_00000165193841369614813640000003708271129521047992_" gradientUnits="userSpaceOnUse" x1="59.3073" y1="5.683" x2="199.9722" y2="80.5047">
				<stop  offset="3.597000e-03" style="stop-color:#5A62AA"/>
				<stop  offset="1" style="stop-color:#8E7FBA"/>
			</linearGradient>
			<path style="fill:url(#SVGID_00000165193841369614813640000003708271129521047992_);" d="M170.14,63.01v4.14h-0.73v-4.14h-1.11
				v-0.68h2.94v0.68H170.14z"/>
			
				<linearGradient id="SVGID_00000113320036439465564330000011242110468904323748_" gradientUnits="userSpaceOnUse" x1="59.8973" y1="4.5739" x2="200.5621" y2="79.3957">
				<stop  offset="3.597000e-03" style="stop-color:#5A62AA"/>
				<stop  offset="1" style="stop-color:#8E7FBA"/>
			</linearGradient>
			<path style="fill:url(#SVGID_00000113320036439465564330000011242110468904323748_);" d="M174.91,65.97h-2.06l-0.54,1.17h-0.78
				l2.38-5.12l2.3,5.12h-0.8L174.91,65.97z M174.61,65.29l-0.71-1.64l-0.75,1.64H174.61z"/>
			
				<linearGradient id="SVGID_00000171678497002197098330000002872452731071964081_" gradientUnits="userSpaceOnUse" x1="61.1119" y1="2.2905" x2="201.7767" y2="77.1122">
				<stop  offset="3.597000e-03" style="stop-color:#5A62AA"/>
				<stop  offset="1" style="stop-color:#8E7FBA"/>
			</linearGradient>
			<path style="fill:url(#SVGID_00000171678497002197098330000002872452731071964081_);" d="M178.32,63.01v4.14h-0.73v-4.14h-1.11
				v-0.68h2.94v0.68H178.32z"/>
			
				<linearGradient id="SVGID_00000174560033179548178480000001751027969949786241_" gradientUnits="userSpaceOnUse" x1="61.6359" y1="1.3053" x2="202.3007" y2="76.1271">
				<stop  offset="3.597000e-03" style="stop-color:#5A62AA"/>
				<stop  offset="1" style="stop-color:#8E7FBA"/>
			</linearGradient>
			<path style="fill:url(#SVGID_00000174560033179548178480000001751027969949786241_);" d="M181.25,62.33v4.82h-0.73v-4.82H181.25z
				"/>
			
				<linearGradient id="SVGID_00000124871841156045150540000009444446023405073799_" gradientUnits="userSpaceOnUse" x1="62.5732" y1="-0.4569" x2="203.2381" y2="74.3649">
				<stop  offset="3.597000e-03" style="stop-color:#5A62AA"/>
				<stop  offset="1" style="stop-color:#8E7FBA"/>
			</linearGradient>
			<path style="fill:url(#SVGID_00000124871841156045150540000009444446023405073799_);" d="M182.61,64.71
				c0-0.68,0.25-1.26,0.75-1.75c0.49-0.49,1.09-0.73,1.79-0.73c0.69,0,1.28,0.25,1.77,0.74c0.49,0.49,0.74,1.08,0.74,1.77
				c0,0.69-0.25,1.28-0.74,1.76c-0.5,0.48-1.1,0.73-1.8,0.73c-0.62,0-1.18-0.22-1.68-0.65C182.89,66.11,182.61,65.49,182.61,64.71z
				 M183.35,64.72c0,0.53,0.18,0.97,0.54,1.31c0.36,0.34,0.77,0.52,1.23,0.52c0.51,0,0.93-0.17,1.28-0.52
				c0.35-0.35,0.52-0.78,0.52-1.29c0-0.51-0.17-0.94-0.52-1.29c-0.34-0.35-0.76-0.52-1.27-0.52c-0.5,0-0.93,0.17-1.27,0.52
				C183.52,63.79,183.35,64.22,183.35,64.72z"/>
			
				<linearGradient id="SVGID_00000079450684578005435240000018383786864866193547_" gradientUnits="userSpaceOnUse" x1="63.896" y1="-2.9437" x2="204.5608" y2="71.8781">
				<stop  offset="3.597000e-03" style="stop-color:#5A62AA"/>
				<stop  offset="1" style="stop-color:#8E7FBA"/>
			</linearGradient>
			<path style="fill:url(#SVGID_00000079450684578005435240000018383786864866193547_);" d="M189.01,67.15V62l3.51,3.68v-3.35h0.73
				v5.11l-3.51-3.67v3.37H189.01z"/>
		</g>
	</g>
</g>
</svg>
