<?xml version="1.0" encoding="utf-8"?>
<!-- Generator: Adobe Illustrator 28.1.0, SVG Export Plug-In . SVG Version: 6.00 Build 0)  -->
<svg version="1.1" id="Calque_1" xmlns="http://www.w3.org/2000/svg" xmlns:xlink="http://www.w3.org/1999/xlink" x="0px" y="0px"
	 viewBox="0 0 192.88 69.12" style="enable-background:new 0 0 192.88 69.12;" xml:space="preserve">
<style type="text/css">
	.st0{fill:url(#SVGID_1_);}
	.st1{fill:url(#SVGID_00000165926935678461027650000016763029702270678202_);}
	.st2{fill:#FFFFFF;}
	.st3{fill:#FCC045;}
	
		.st4{clip-path:url(#SVGID_00000165225976061530626430000013682769669863850114_);fill:url(#SVGID_00000013875142178794610600000016099762794203209402_);}
	.st5{clip-path:url(#SVGID_00000165225976061530626430000013682769669863850114_);}
	.st6{fill:#BBB3DA;}
	.st7{clip-path:url(#SVGID_00000020400868633181491230000017032427680593593774_);}
	.st8{fill:url(#SVGID_00000165225573428209064800000004848760804206727852_);}
	.st9{clip-path:url(#SVGID_00000029752619274518423740000018154299285373031340_);}
	.st10{fill:#FAFBFC;}
	.st11{fill:url(#SVGID_00000027576762103701635440000009849688370868833681_);}
	.st12{clip-path:url(#SVGID_00000094599585617500891240000008893147494610094779_);}
	
		.st13{clip-path:url(#SVGID_00000061448823010398935760000015339732235139771039_);fill:url(#SVGID_00000181809261985751475750000005953050302629948077_);}
	.st14{clip-path:url(#SVGID_00000061448823010398935760000015339732235139771039_);}
	.st15{clip-path:url(#SVGID_00000115491531846739156030000008281587001650325890_);}
	.st16{fill:url(#SVGID_00000085236671531775301290000013582425123012692359_);}
	.st17{clip-path:url(#SVGID_00000083770799205534987330000013847204567135889311_);}
	.st18{fill:url(#SVGID_00000090989794120655232830000004081433683099867536_);}
	.st19{clip-path:url(#SVGID_00000060028271700107567790000018147399629102369963_);}
	.st20{fill:url(#SVGID_00000008141589972550508350000010055378972818862749_);}
	.st21{fill:url(#SVGID_00000059285153980282550360000013824348279878331820_);}
	.st22{fill:url(#SVGID_00000005265173968884951880000016818822778442916742_);}
	.st23{fill:url(#SVGID_00000054245207624786275940000011680021342729158022_);}
	.st24{fill:url(#SVGID_00000052818159975692682340000004892716703096881318_);}
	.st25{fill:url(#SVGID_00000109752135445823138710000011235031223307565988_);}
	.st26{fill:url(#SVGID_00000173153055044888824770000006101308776349015442_);}
	.st27{fill:url(#SVGID_00000092445948457063674800000005615387800475297706_);}
	.st28{fill:url(#SVGID_00000129918207243974212580000016635077014599834292_);}
	.st29{fill:url(#SVGID_00000124869740408666769160000016728231412171674554_);}
	.st30{fill:url(#SVGID_00000124134149775331038360000002882380873809781688_);}
	.st31{fill:url(#SVGID_00000069370797618960122320000001526359005939144121_);}
	.st32{fill:url(#SVGID_00000071558668925006167430000007282550333699723673_);}
	.st33{fill:url(#SVGID_00000065062526794397048910000004916543235818297998_);}
	.st34{fill:url(#SVGID_00000032650024204453018920000004042734880535127997_);}
	.st35{fill:url(#SVGID_00000140009755262764129850000016804144857194074539_);}
	.st36{fill:url(#SVGID_00000013166061955826680500000015396887101612022446_);}
	.st37{fill:url(#SVGID_00000165194284231999599090000010110370280489157031_);}
	.st38{fill:url(#SVGID_00000165919090075164527370000016056376066858115513_);}
	.st39{fill:url(#SVGID_00000001653609443602318960000001620394996104853435_);}
	.st40{fill:url(#SVGID_00000175314473097253499520000003292280125498163077_);}
	.st41{fill:url(#SVGID_00000101104124514692602260000017551776238796692889_);}
	.st42{fill:url(#SVGID_00000138552378813885254680000008076730069082941064_);}
	.st43{fill:url(#SVGID_00000026126917632178593010000004920414060329572512_);}
	.st44{fill:url(#SVGID_00000085929145166219067960000010906829003004370600_);}
	.st45{fill:url(#SVGID_00000033360205392231049650000015696736694305649048_);}
	.st46{fill:url(#SVGID_00000047036651869414730060000000340144128906174632_);}
	.st47{fill:url(#SVGID_00000183965202893701242970000012284270037438316213_);}
	.st48{fill:url(#SVGID_00000018946430346852212760000004807058991830846139_);}
	.st49{fill:url(#SVGID_00000011750345057200403180000016282618921073738132_);}
	.st50{fill:url(#SVGID_00000024698330660913748240000017298181349788316570_);}
	.st51{fill:url(#SVGID_00000062191833019070867090000011672782889583186069_);}
	.st52{fill:url(#SVGID_00000035507933190464721360000001891054943323121593_);}
	
		.st53{clip-path:url(#SVGID_00000102530784264169474940000007387036523544689333_);fill:url(#SVGID_00000140705923752820842710000009455236216463463296_);}
	.st54{clip-path:url(#SVGID_00000102530784264169474940000007387036523544689333_);}
	.st55{clip-path:url(#SVGID_00000085948875020642804600000001489881464864251273_);}
	.st56{fill:url(#SVGID_00000067214845369619991770000005587775840191215004_);}
	.st57{clip-path:url(#SVGID_00000165931187086133525310000010443372622118979220_);}
	.st58{fill:url(#SVGID_00000078034759145138747080000016025732480300950715_);}
	.st59{clip-path:url(#SVGID_00000103262401799740471960000017888234899647724217_);}
	
		.st60{clip-path:url(#SVGID_00000124126713822898679430000003785825993360540815_);fill:url(#SVGID_00000027593758797581097000000002585290323584710021_);}
	.st61{clip-path:url(#SVGID_00000124126713822898679430000003785825993360540815_);}
	.st62{clip-path:url(#SVGID_00000103252868055351067460000014265592271792315577_);}
	.st63{fill:url(#SVGID_00000070811454652302280710000000444723577230739089_);}
	.st64{clip-path:url(#SVGID_00000147205734880466024770000017002660096743013000_);}
	.st65{fill:url(#SVGID_00000135656607717660932110000006308855475678831024_);}
	.st66{clip-path:url(#SVGID_00000052820653904275128260000015133329051720698519_);}
	.st67{fill:url(#SVGID_00000153680114293824030750000011631585940919289746_);}
	.st68{fill:url(#SVGID_00000150077131837225738690000005656298639905761462_);}
	.st69{fill:url(#SVGID_00000029765113074423282350000011157132879208853123_);}
	.st70{fill:url(#SVGID_00000053505035703098662710000000289647978320839306_);}
	.st71{fill:url(#SVGID_00000134960481915945291390000009539681364995809710_);}
	.st72{fill:url(#SVGID_00000091012377406259562060000016585837504141058967_);}
	.st73{fill:url(#SVGID_00000038395603577626560140000000900870412425104550_);}
	.st74{fill:url(#SVGID_00000107570552196348567740000012626420428455182213_);}
	.st75{fill:url(#SVGID_00000097501622477486892170000008489396520721889683_);}
	.st76{fill:url(#SVGID_00000041998007222045855630000007526694865348619711_);}
	.st77{fill:url(#SVGID_00000064351494454649021180000016433745594806816142_);}
	.st78{fill:url(#SVGID_00000085942819199451651850000017160605555516306084_);}
	.st79{fill:url(#SVGID_00000168099205867415508880000008935131490882767008_);}
	.st80{fill:url(#SVGID_00000173847884873832818310000004117234625457980587_);}
	.st81{fill:url(#SVGID_00000106146681577488713600000014556305138616224902_);}
	.st82{fill:url(#SVGID_00000123427433283355010240000003644843422681084603_);}
	.st83{fill:url(#SVGID_00000153703470063836334260000010603998079775112098_);}
	.st84{fill:url(#SVGID_00000060735742523648730550000008613232304901707147_);}
	.st85{fill:url(#SVGID_00000085934356947924840220000008562420262192101814_);}
	.st86{fill:url(#SVGID_00000095337060964864659200000001193933968913674938_);}
	.st87{fill:url(#SVGID_00000116201601509265358710000002093839340678560646_);}
	.st88{fill:url(#SVGID_00000039848711054960075310000016060478561560855210_);}
	.st89{fill:url(#SVGID_00000170262713019571571110000014312550091705403028_);}
	.st90{fill:url(#SVGID_00000007393770051978673090000009971522093732291760_);}
	.st91{fill:url(#SVGID_00000030445826352419277330000017722485771383778196_);}
	.st92{fill:url(#SVGID_00000069392284390025647210000003672967080850803863_);}
	.st93{fill:url(#SVGID_00000109722697729082581110000002869380971869741715_);}
	.st94{fill:url(#SVGID_00000137836526519394788060000008563614620704955778_);}
	.st95{fill:url(#SVGID_00000062181209849390524920000017813386751263070861_);}
	.st96{fill:url(#SVGID_00000132089786186538883080000004851101801738570160_);}
	.st97{fill:url(#SVGID_00000084501816290333441330000015090818647251936658_);}
	.st98{fill:url(#SVGID_00000159448512453917723250000001371460442227166849_);}
	.st99{fill:url(#SVGID_00000175301444181100104820000014472838287937096358_);}
</style>
<g>
	<path class="st3" d="M58.16,13.92C52.97,8.29,46,5.28,37.26,4.86c0.02,0.11,0.04,0.23,0.05,0.33c0.06,0.74-0.03,1.49-0.25,2.25
		c2.12,0.98,3.83,3.63,5.13,7.98c1.68,5.61,2.52,12.76,2.52,21.47c0,8.7-0.84,15.88-2.52,21.54c-1.68,5.66-4.04,8.49-7.08,8.49
		c-2.94,0-5.24-2.83-6.92-8.49c-0.02-0.07-0.04-0.15-0.06-0.22c-1.98,1.5-3.94,3.03-5.71,4.77c-0.9,0.88-1.7,1.84-2.44,2.85
		c4.32,2.19,9.36,3.3,15.13,3.3c9.64,0,17.3-3.07,22.96-9.2c5.66-6.13,8.49-13.81,8.49-23.04C66.57,27.66,63.76,20,58.16,13.92z"/>
	<g>
		<defs>
			<path id="SVGID_00000133520310453088271820000000329685877283646131_" d="M16.5,43h7.19c0,0,1.35-3.69-0.41-6.29
				c-3.59-5.31,1.31-8.09,3.19-9.56c2.83-2.22,4.36-5.41,0.2-6.8c-4.17-1.39,0.02-7.85,5.11-10.77c4.98-2.86,2.78-13.37-8.58-8.17
				c-6.78,3.1-5.72,10.29-6.04,14.05c-0.33,3.76-5.92,4.07-4,8.66c1.63,3.92,4.74,6.78,2.37,9.48C13.15,36.3,12.9,39.33,16.5,43z"/>
		</defs>
		<clipPath id="SVGID_00000148642800656665318610000000537857673084706997_">
			<use xlink:href="#SVGID_00000133520310453088271820000000329685877283646131_"  style="overflow:visible;"/>
		</clipPath>
		<linearGradient id="SVGID_1_" gradientUnits="userSpaceOnUse" x1="29.2191" y1="1.1629" x2="14.9082" y2="41.836">
			<stop  offset="0" style="stop-color:#8E7FBA"/>
			<stop  offset="0.9964" style="stop-color:#5A62AA"/>
		</linearGradient>
		<path style="clip-path:url(#SVGID_00000148642800656665318610000000537857673084706997_);fill:url(#SVGID_1_);" d="M16.5,43h7.19
			c0,0,1.35-3.69-0.41-6.29c-3.59-5.31,1.31-8.09,3.19-9.56c2.83-2.22,4.08-5.08,0.67-6.94c-3.86-2.1-0.46-7.7,4.64-10.62
			c4.98-2.86,2.78-13.37-8.58-8.17c-6.78,3.1-5.72,10.29-6.04,14.05c-0.33,3.76-5.92,4.07-4,8.66c1.63,3.92,4.74,6.78,2.37,9.48
			C13.15,36.3,12.9,39.33,16.5,43z"/>
		<g style="clip-path:url(#SVGID_00000148642800656665318610000000537857673084706997_);">
			<path class="st6" d="M19.61,43.67c-0.02-0.09-1.68-9.37-0.56-19.08c0.66-5.7,2.14-10.43,4.4-14.06
				c2.83-4.54,6.89-7.36,12.07-8.37l0.03,0.15C23.9,4.59,20.23,15.69,19.2,24.61c-1.12,9.68,0.54,18.94,0.56,19.03L19.61,43.67z"/>
			<path class="st6" d="M22.34,12.48c-0.63-5.04,1.29-12.19,1.31-12.26l0.15,0.04c-0.02,0.07-1.93,7.19-1.3,12.2L22.34,12.48z"/>
			<path class="st6" d="M24.31,9.51l-0.08-0.13C29.4,6.15,34.24,7.7,34.29,7.72l-0.05,0.15C34.19,7.85,29.42,6.33,24.31,9.51z"/>
			<path class="st6" d="M18.81,30.98l-0.15-0.04c1.71-7.22,11.57-9.04,11.67-9.04l0,0.16C30.24,22.07,20.51,23.83,18.81,30.98z"/>
			<path class="st6" d="M18.76,27.94c-0.94-4.53-5.87-7.66-5.92-7.69l0.08-0.13c0.05,0.03,5.03,3.19,5.99,7.79L18.76,27.94z"/>
			<path class="st6" d="M19.53,42.18l-0.16-0.01c0.23-2.87,4.15-5.04,4.31-5.14l0.08,0.14C23.72,37.19,19.75,39.4,19.53,42.18z"/>
			<path class="st6" d="M19.1,39.99c-0.36-2.12-3.61-4.51-4.68-5.3c-0.21-0.16-0.3-0.22-0.33-0.25l0.12-0.1
				c0.02,0.02,0.15,0.12,0.3,0.23c1.08,0.8,4.37,3.22,4.75,5.4L19.1,39.99z"/>
		</g>
	</g>
	<g>
		<g>
			<path class="st2" d="M71,16.54h-4.06c0.32-0.59,0.48-1.18,0.48-1.75v-3.83c0-0.58-0.16-1.16-0.48-1.75l3.55-0.89v1.7
				c0.32-0.83,0.96-1.3,1.93-1.42c0.03,0,0.08,0,0.15-0.01c0.07-0.01,0.13-0.01,0.18-0.01c0.56,0,1.09,0.13,1.59,0.38
				c0.5,0.25,0.85,0.65,1.05,1.19c0.37-1.05,1.19-1.57,2.46-1.57c2.01,0,3.02,1.21,3.02,3.63v2.72c0,0.54,0.16,1.08,0.48,1.62h-1.98
				c-1,0-1.5-0.6-1.5-1.8v-3.27c0-1.47-0.35-2.22-1.04-2.26c-0.32-0.02-0.61,0.16-0.86,0.52s-0.38,0.96-0.38,1.79v3.4
				c0,0.54,0.16,1.08,0.48,1.62H74.1c-1.01,0-1.52-0.6-1.52-1.8v-3.27v-0.18c0-0.1,0-0.19,0-0.28c0-0.08,0-0.2-0.01-0.34
				c-0.01-0.14-0.02-0.27-0.04-0.39c-0.02-0.12-0.05-0.24-0.1-0.37c-0.05-0.13-0.11-0.23-0.17-0.32c-0.06-0.08-0.14-0.16-0.24-0.22
				c-0.1-0.06-0.22-0.09-0.36-0.09c-0.02,0-0.04,0-0.08,0.01c-0.03,0.01-0.06,0.01-0.08,0.01c-0.32,0.07-0.58,0.36-0.76,0.88
				c-0.19,0.52-0.26,1.05-0.23,1.61v2.99C70.52,15.36,70.68,15.95,71,16.54z"/>
			<path class="st2" d="M82.19,10.57c-0.32-0.79-0.68-1.4-1.09-1.8h4.06c-0.24,0.44-0.19,1.04,0.13,1.8
				c0.44,1.1,0.99,2.32,1.65,3.65c0.19-0.44,0.39-0.93,0.61-1.46c0.22-0.53,0.41-1.01,0.58-1.43c0.17-0.42,0.27-0.68,0.3-0.76
				c0.17-0.42,0.27-0.74,0.29-0.94c0.03-0.2-0.03-0.49-0.17-0.86h1.62c-0.37,0.37-0.74,0.97-1.09,1.8l-2.56,6.11
				c-0.49,1.18-0.94,2.11-1.36,2.77c-0.41,0.66-0.84,1.07-1.28,1.22c-0.24,0.07-0.49,0.1-0.76,0.1c-0.61,0-1.07-0.16-1.39-0.48
				c-0.07-0.07-0.08-0.14-0.03-0.2c0.05-0.09,0.27-0.57,0.67-1.46c0.4-0.89,0.63-1.4,0.7-1.53c0.02-0.05,0.05-0.05,0.1,0
				c0.17,0.96,0.35,1.55,0.53,1.75c0.1,0.12,0.23,0.18,0.38,0.18c0.1,0,0.21-0.03,0.33-0.08c0.34-0.15,0.82-0.91,1.45-2.28
				l-0.71,0.31c-0.03,0.02-0.08,0.03-0.13,0.03c-0.14,0-0.22-0.06-0.25-0.18c-0.12-0.27-0.38-0.9-0.79-1.88
				c-0.41-0.98-0.79-1.9-1.14-2.75C82.5,11.33,82.28,10.79,82.19,10.57z"/>
		</g>
	</g>
	<g>
		<defs>
			<path id="SVGID_00000173134030355011029040000001378084869072568450_" d="M29.98,68.8c0,0-9.2-0.37-29.57-12.08
				c-14.38-8.27-1.68-12.7-1.68-12.7l0.43-9.67l14.29,2.58l-5.68-9.72L-0.15,9.82l5.29-4.54h7.42l9.49,7.04l9.37,17.36l3.47,12.46
				l1.42,20.59L29.98,68.8z"/>
		</defs>
		<clipPath id="SVGID_00000102530056073343411180000014714485134722945200_">
			<use xlink:href="#SVGID_00000173134030355011029040000001378084869072568450_"  style="overflow:visible;"/>
		</clipPath>
		<g style="clip-path:url(#SVGID_00000102530056073343411180000014714485134722945200_);">
			<g>
				<g>
					<g>
						
							<linearGradient id="SVGID_00000000204756221612533510000010553275952996994456_" gradientUnits="userSpaceOnUse" x1="25.741" y1="49.2952" x2="-6.6177" y2="-6.6584">
							<stop  offset="0" style="stop-color:#FCC045"/>
							<stop  offset="0.9964" style="stop-color:#EE7058"/>
						</linearGradient>
						<path style="fill:url(#SVGID_00000000204756221612533510000010553275952996994456_);" d="M18.74,58.51
							c-1.46,2.3-0.7,4.9,0.12,6.69c0.25,0.03,0.38,0.12,0.62,0.22c2.19,0.85,4.54,1.28,6.81,1.75c0.49,0.1,0.97,0.12,1.47,0.19
							l0.51,0.05c0,0,3.27-6.94,0.44-8.99c-2.83-2.05-0.88-7.84-0.2-11.04c1.86-8.7-7.75-9.15-6.25-20.52
							c0.4-3.02,2.17-8.66-0.07-11.4c-2.54-3.13-5.02-0.72-6.58-3.26C13.17,8.22,8.6,6.31,5.29,9.62
							c-3.27,3.27-0.84,10.97,6.8,17.91c4.92,5.6,4.81,7.07,3.91,10.55c-0.64,2.44-3.86,8.6-0.83,11.63
							C18.2,52.74,20.41,55.88,18.74,58.51z"/>
						<g>
							<defs>
								<path id="SVGID_00000032637357752796424730000006232981795023521425_" d="M20.06,67.4h8.21c0,0,3.27-6.94,0.44-8.99
									c-2.83-2.05-0.88-7.84-0.2-11.04c1.86-8.7-7.75-9.15-6.25-20.52c0.4-3.02,2.16-8.66-0.07-11.4
									c-2.54-3.13-5.02-0.72-6.58-3.26C13.17,8.22,8.6,6.31,5.29,9.62c-3.27,3.27-0.84,10.97,6.8,17.91
									c4.92,5.6,4.81,7.07,3.91,10.55c-0.64,2.44-3.86,8.6-0.83,11.63s5.24,6.16,3.57,8.79C16.2,62.52,20.06,67.4,20.06,67.4z"/>
							</defs>
							<clipPath id="SVGID_00000008849618450184470330000003924565387285425814_">
								<use xlink:href="#SVGID_00000032637357752796424730000006232981795023521425_"  style="overflow:visible;"/>
							</clipPath>
							<g style="clip-path:url(#SVGID_00000008849618450184470330000003924565387285425814_);">
								<path class="st10" d="M23.63,56.12c-0.39-4.81-1.08-9.47-2.06-13.91c-1.26-5.66-3.01-11.05-5.21-16.03
									c-1.77-4.01-3.84-7.77-6.14-11.18c-1.62-2.4-3.34-4.6-5.12-6.54C4.77,8.11,4.44,7.79,4.11,7.47
									C3.68,7.04,3.23,6.6,2.85,6.14L2.71,6.25C3.1,6.72,3.55,7.17,3.99,7.59c0.32,0.32,0.66,0.64,0.96,0.98
									c1.77,1.94,3.49,4.13,5.1,6.52c2.3,3.4,4.36,7.15,6.13,11.15c2.2,4.97,3.95,10.35,5.2,16c0.99,4.47,1.68,9.16,2.07,14.01
									C23.51,56.21,23.57,56.17,23.63,56.12z"/>
								<path class="st10" d="M18.61,32.41c-2.23-7.03,2.1-18.86,2.14-18.98l0.17,0.06c-0.04,0.12-4.35,11.89-2.14,18.87
									L18.61,32.41z"/>
								<path class="st10" d="M23.09,52.47c-0.93-4.84-9.2-9.6-9.28-9.65l0.09-0.15c0.08,0.05,8.42,4.85,9.37,9.77L23.09,52.47z"/>
								<path class="st10" d="M23.39,55.3c-0.04-3.3,1.66-7.82,4.78-12.71c0.07-0.11,0.13-0.2,0.14-0.22l0.07,0.03h0.1
									c0,0.03,0,0.03-0.16,0.28c-3.11,4.87-4.8,9.34-4.75,12.61L23.39,55.3z"/>
								<path class="st10" d="M23.82,64.68c-1.05-3.36-5.94-5.28-5.99-5.3l0.06-0.16c0.05,0.02,5.02,1.98,6.09,5.41L23.82,64.68z"/>
								<path class="st10" d="M24.09,66.58l-0.17-0.06c1.02-2.75,2.86-5.29,5.62-7.78l0.12,0.13C26.92,61.33,25.1,63.86,24.09,66.58
									z"/>
								<path class="st10" d="M11.38,17.13c-1.45-3.83-2.09-8.18-2.3-9.61C9.04,7.27,9.02,7.07,9.01,7.04l0.17-0.06
									C9.19,7.02,9.2,7.14,9.25,7.49c0.21,1.43,0.85,5.76,2.29,9.57L11.38,17.13z"/>
								<path class="st10" d="M14.65,22.97c-2.3-2.96-10.06-3.89-10.14-3.9l0.02-0.18c0.32,0.04,7.91,0.95,10.26,3.97L14.65,22.97z"
									/>
							</g>
						</g>
					</g>
					<g>
						
							<linearGradient id="SVGID_00000056425863532070257060000008035868198031720597_" gradientUnits="userSpaceOnUse" x1="7.371" y1="39.6873" x2="25.3591" y2="69.3004">
							<stop  offset="3.597120e-03" style="stop-color:#CA8DBD"/>
							<stop  offset="1" style="stop-color:#7A6FB1"/>
						</linearGradient>
						<path style="fill:url(#SVGID_00000056425863532070257060000008035868198031720597_);" d="M18.64,66.28
							c0.03,0.01,0.06,0.03,0.09,0.04c2.2,0.85,4.54,1.28,6.81,1.75c0.31,0.06,0.62,0.12,0.92,0.16c0.41-1.15,0.73-2.84-0.75-3.3
							c-2.29-0.7-2.31-4.74-1.67-6.16c0.79-1.76,2.55-5.9-0.97-7.04c-2.93-0.95-5.02-0.97-5.19-4.75c-0.18-3.78-2.22-6.16-5.65-5.96
							c-3.61,0.21-6.53-4.62-9.51-3.04c-5.18,2.76-0.57,11.13,5.68,13.6c6.25,2.46,2.64,4.69,2.44,7.79
							c-0.26,4.22,5.46,3.37,6.95,5.04C18.31,64.98,18.55,65.63,18.64,66.28z"/>
						<g>
							<defs>
								<path id="SVGID_00000175304713459632258100000006209571357238935740_" d="M18.45,68.61h7.87c0.46-1.11,1.04-3.17-0.6-3.67
									c-2.29-0.7-2.31-4.74-1.67-6.16c0.79-1.76,2.55-5.9-0.97-7.04c-2.93-0.95-5.02-0.97-5.19-4.75
									c-0.18-3.78-2.22-6.16-5.65-5.96c-3.61,0.21-6.53-4.62-9.51-3.04c-5.18,2.76-0.57,11.13,5.68,13.6
									c6.25,2.46,2.64,4.69,2.44,7.79c-0.26,4.22,5.46,3.37,6.95,5.04C18.97,65.72,18.74,67.51,18.45,68.61z"/>
							</defs>
							<clipPath id="SVGID_00000109020227640256507600000008284971893735090845_">
								<use xlink:href="#SVGID_00000175304713459632258100000006209571357238935740_"  style="overflow:visible;"/>
							</clipPath>
							<g style="clip-path:url(#SVGID_00000109020227640256507600000008284971893735090845_);">
								<path class="st10" d="M22.16,67.37C19.76,55.2,11.46,44.24,0.51,38.79l0.08-0.16c11,5.48,19.33,16.48,21.74,28.71
									L22.16,67.37z"/>
								<path class="st10" d="M20.45,60.82l-0.18,0c0.02-4.98,4.29-8.83,4.33-8.86l0.12,0.13C24.68,52.13,20.47,55.92,20.45,60.82z"
									/>
								<path class="st10" d="M21.65,65.14c-2.29-4.3-11.22-4.95-11.31-4.95l0.01-0.18c0.09,0.01,9.11,0.66,11.45,5.05L21.65,65.14z
									"/>
								<path class="st10" d="M14.26,50.18c-1.58-3.69,0.83-9.31,0.86-9.36l0.16,0.07c-0.02,0.06-2.41,5.61-0.86,9.22L14.26,50.18z"
									/>
								<path class="st10" d="M8.85,44.41c-3.75-2.33-9.61-1.07-9.67-1.06l-0.04-0.17c0.06-0.01,5.99-1.29,9.8,1.08L8.85,44.41z"/>
							</g>
						</g>
					</g>
				</g>
			</g>
		</g>
	</g>
	<g>
		<path class="st2" d="M105.92,10.68c-1.33-1.22-3-1.83-5-1.83h-0.33c-0.74,0-1.37,0.11-1.89,0.33c-2.74,0.89-5.29,3.09-7.66,6.61
			c-2.37,3.52-4.18,7.61-5.44,12.27l-0.01-6.43c0,0-2.74,1.35-4.54,0.8c0,0-2.88-0.46-0.52-3.9h-11.8
			c0.77,1.47,3.42,6.97,3.42,12.91v18.51c0,2.52-0.7,5.07-2.11,7.66h17.77c-1.41-2.59-2.11-5.15-2.11-7.66v-8.66
			c0.07-2.07,0.24-4.13,0.5-6.16c0.26-2.04,0.7-4.24,1.33-6.61c0.63-2.37,1.56-4.33,2.78-5.89c1.22-1.56,2.68-2.44,4.39-2.67
			c2.15,0,3.59,1.07,4.33,3.22c0.07,0,0.22,0.02,0.44,0.06c0.22,0.04,0.41,0.06,0.56,0.06c2.22,0,4.09-0.74,5.61-2.22
			c1.52-1.48,2.28-3.22,2.28-5.22C107.92,13.63,107.25,11.9,105.92,10.68z"/>
		<path class="st2" d="M107.92,23.18c-2.37,2.74-6.44,4.11-12.22,4.11c-0.96,0-1.74-0.04-2.33-0.11c0.74,1.56,1.11,4.11,1.11,7.66
			v15.11c0,2.3-0.7,4.85-2.11,7.66h17.77c-1.41-2.59-2.11-5.15-2.11-7.66L107.92,23.18z"/>
		<path class="st2" d="M135.91,23.51c-1.63-0.45-3.26-0.67-4.89-0.67c-4.07,0-7.72,1.19-10.94,3.55c-3.22,2.37-5.39,5.52-6.5,9.44
			c-1.33,4.74-0.74,9.29,1.78,13.66c2.52,4.37,6.18,7.22,11,8.55c1.63,0.44,3.29,0.67,5,0.67c4,0,7.61-1.18,10.83-3.55
			c3.22-2.37,5.39-5.52,6.5-9.44c1.33-4.74,0.74-9.27-1.78-13.61C144.38,27.79,140.72,24.92,135.91,23.51z M134.29,52.56
			c-0.7,3.15-1.72,4.72-3.05,4.72c-2.67,0-4.07-5.48-4.22-16.44c-0.15-10.96,1.18-16.44,4-16.44c1.48-0.07,2.54,1.39,3.17,4.39
			c0.63,3,0.98,6.98,1.05,11.94C135.31,45.47,135,49.41,134.29,52.56z"/>
		<path class="st2" d="M190.77,50.5V39.39c0-4.96-1.19-8.96-3.55-12c-2.37-3.04-5.93-4.55-10.66-4.55
			c-4.15,0.22-7.11,2.19-8.89,5.89v-7l-15.55,3.89c1.41,2.59,2.11,5.15,2.11,7.66v16.77c0,2.52-0.7,5.07-2.11,7.66h17.77
			c-1.41-2.59-2.11-5.15-2.11-7.66V36.51c-0.15-2.59,0.18-4.94,1-7.05c0.81-2.11,2.04-3.28,3.67-3.5c3.48,0,5.22,3.15,5.22,9.44
			v14.33c0,5.33,2.18,8,6.55,8h8.66C191.48,55.35,190.77,52.94,190.77,50.5z"/>
	</g>
	<g>
		<path class="st2" d="M70.23,62.33v4.14h1.42v0.68H69.5v-4.82H70.23z"/>
		<path class="st2" d="M72.98,62.12l0.62,0.24l-0.89,1.79l-0.47-0.2L72.98,62.12z"/>
		<path class="st2" d="M77.65,63.01h-1.93v1.16h1.88v0.68h-1.88v1.61h1.93v0.68h-2.66v-4.82h2.66V63.01z"/>
		<path class="st2" d="M80.06,64.63l-1.33-2.3h0.83l0.92,1.63l0.97-1.63h0.83l-1.39,2.3l1.46,2.52h-0.81l-1.07-1.84l-1.1,1.84h-0.82
			L80.06,64.63z"/>
		<path class="st2" d="M84.17,65.19v1.96h-0.73v-4.82h0.82c0.4,0,0.71,0.03,0.91,0.08c0.21,0.06,0.39,0.16,0.55,0.32
			c0.28,0.27,0.42,0.61,0.42,1.02c0,0.44-0.15,0.79-0.44,1.05c-0.3,0.26-0.69,0.39-1.2,0.39H84.17z M84.17,64.51h0.27
			c0.67,0,1-0.26,1-0.77c0-0.5-0.34-0.75-1.03-0.75h-0.24V64.51z"/>
		<path class="st2" d="M90,63.01h-1.93v1.16h1.88v0.68h-1.88v1.61H90v0.68h-2.66v-4.82H90V63.01z"/>
		<path class="st2" d="M93.04,65.09l1.49,2.05h-0.89l-1.38-1.97h-0.13v1.97h-0.73v-4.82h0.85c0.64,0,1.1,0.12,1.38,0.36
			c0.31,0.27,0.47,0.62,0.47,1.05c0,0.34-0.1,0.63-0.29,0.88C93.62,64.87,93.36,65.02,93.04,65.09z M92.13,64.54h0.23
			c0.69,0,1.03-0.26,1.03-0.79c0-0.49-0.33-0.74-1-0.74h-0.26V64.54z"/>
		<path class="st2" d="M96.97,63.01v4.14h-0.73v-4.14h-1.11v-0.68h2.94v0.68H96.97z"/>
		<path class="st2" d="M104,63.01h-1.68v1.16h1.62v0.68h-1.62v2.29h-0.73v-4.82H104V63.01z"/>
		<path class="st2" d="M105.06,64.71c0-0.68,0.25-1.26,0.75-1.75c0.49-0.49,1.09-0.73,1.79-0.73c0.69,0,1.28,0.25,1.77,0.74
			c0.49,0.49,0.74,1.08,0.74,1.77c0,0.69-0.25,1.28-0.74,1.76c-0.5,0.48-1.1,0.73-1.8,0.73c-0.62,0-1.18-0.22-1.68-0.65
			C105.33,66.11,105.06,65.49,105.06,64.71z M105.79,64.72c0,0.53,0.18,0.97,0.54,1.31c0.36,0.34,0.77,0.52,1.23,0.52
			c0.51,0,0.93-0.17,1.28-0.52c0.35-0.35,0.52-0.78,0.52-1.29c0-0.51-0.17-0.94-0.52-1.29c-0.34-0.35-0.76-0.52-1.27-0.52
			c-0.5,0-0.93,0.17-1.27,0.52C105.96,63.79,105.79,64.22,105.79,64.72z"/>
		<path class="st2" d="M113.09,65.09l1.49,2.05h-0.89l-1.38-1.97h-0.13v1.97h-0.73v-4.82h0.85c0.64,0,1.1,0.12,1.38,0.36
			c0.31,0.27,0.47,0.62,0.47,1.05c0,0.34-0.1,0.63-0.29,0.88C113.67,64.87,113.41,65.02,113.09,65.09z M112.18,64.54h0.23
			c0.69,0,1.03-0.26,1.03-0.79c0-0.49-0.33-0.74-1-0.74h-0.26V64.54z"/>
		<path class="st2" d="M115.58,67.15l1.01-5.18l1.65,3.75l1.71-3.75l0.91,5.18h-0.75l-0.47-2.91l-1.43,3.13l-1.39-3.13l-0.52,2.91
			H115.58z"/>
		<path class="st2" d="M125.18,65.97h-2.06l-0.54,1.17h-0.78l2.38-5.12l2.3,5.12h-0.8L125.18,65.97z M124.88,65.29l-0.71-1.64
			l-0.75,1.64H124.88z"/>
		<path class="st2" d="M128.59,63.01v4.14h-0.73v-4.14h-1.11v-0.68h2.94v0.68H128.59z"/>
		<path class="st2" d="M131.52,62.33v4.82h-0.73v-4.82H131.52z"/>
		<path class="st2" d="M132.88,64.71c0-0.68,0.25-1.26,0.75-1.75c0.49-0.49,1.09-0.73,1.79-0.73c0.69,0,1.28,0.25,1.77,0.74
			c0.49,0.49,0.74,1.08,0.74,1.77c0,0.69-0.25,1.28-0.74,1.76c-0.5,0.48-1.1,0.73-1.8,0.73c-0.62,0-1.18-0.22-1.68-0.65
			C133.15,66.11,132.88,65.49,132.88,64.71z M133.61,64.72c0,0.53,0.18,0.97,0.54,1.31c0.36,0.34,0.77,0.52,1.23,0.52
			c0.51,0,0.93-0.17,1.28-0.52c0.35-0.35,0.52-0.78,0.52-1.29c0-0.51-0.17-0.94-0.52-1.29c-0.34-0.35-0.76-0.52-1.27-0.52
			c-0.5,0-0.93,0.17-1.27,0.52C133.79,63.79,133.61,64.22,133.61,64.72z"/>
		<path class="st2" d="M139.28,67.15V62l3.51,3.68v-3.35h0.73v5.11l-3.51-3.67v3.37H139.28z"/>
		<path class="st2" d="M150.2,63.01h-1.93v1.16h1.88v0.68h-1.88v1.61h1.93v0.68h-2.66v-4.82h2.66V63.01z"/>
		<path class="st2" d="M152.94,63.01v4.14h-0.73v-4.14h-1.11v-0.68h2.94v0.68H152.94z"/>
		<path class="st2" d="M161.12,62.59v0.86c-0.42-0.35-0.86-0.53-1.3-0.53c-0.5,0-0.91,0.18-1.25,0.53c-0.34,0.35-0.51,0.79-0.51,1.3
			c0,0.51,0.17,0.93,0.51,1.28c0.34,0.35,0.76,0.52,1.25,0.52c0.26,0,0.47-0.04,0.65-0.12c0.1-0.04,0.2-0.1,0.31-0.17
			c0.11-0.07,0.22-0.16,0.34-0.26v0.88c-0.42,0.24-0.85,0.35-1.31,0.35c-0.69,0-1.28-0.24-1.76-0.72c-0.49-0.48-0.73-1.07-0.73-1.75
			c0-0.61,0.2-1.16,0.61-1.64c0.5-0.59,1.15-0.88,1.94-0.88C160.3,62.23,160.71,62.35,161.12,62.59z"/>
		<path class="st2" d="M162.21,64.71c0-0.68,0.25-1.26,0.75-1.75c0.49-0.49,1.09-0.73,1.79-0.73c0.69,0,1.28,0.25,1.77,0.74
			c0.49,0.49,0.74,1.08,0.74,1.77c0,0.69-0.25,1.28-0.74,1.76c-0.5,0.48-1.1,0.73-1.8,0.73c-0.62,0-1.18-0.22-1.68-0.65
			C162.48,66.11,162.21,65.49,162.21,64.71z M162.94,64.72c0,0.53,0.18,0.97,0.54,1.31c0.36,0.34,0.77,0.52,1.23,0.52
			c0.51,0,0.93-0.17,1.28-0.52c0.35-0.35,0.52-0.78,0.52-1.29c0-0.51-0.17-0.94-0.52-1.29c-0.34-0.35-0.76-0.52-1.27-0.52
			c-0.5,0-0.93,0.17-1.27,0.52C163.12,63.79,162.94,64.22,162.94,64.72z"/>
		<path class="st2" d="M169.77,63.01v4.14h-0.73v-4.14h-1.11v-0.68h2.94v0.68H169.77z"/>
		<path class="st2" d="M174.54,65.97h-2.06l-0.54,1.17h-0.78l2.38-5.12l2.3,5.12h-0.8L174.54,65.97z M174.24,65.29l-0.71-1.64
			l-0.75,1.64H174.24z"/>
		<path class="st2" d="M177.95,63.01v4.14h-0.73v-4.14h-1.11v-0.68h2.94v0.68H177.95z"/>
		<path class="st2" d="M180.88,62.33v4.82h-0.73v-4.82H180.88z"/>
		<path class="st2" d="M182.24,64.71c0-0.68,0.25-1.26,0.75-1.75c0.49-0.49,1.09-0.73,1.79-0.73c0.69,0,1.28,0.25,1.77,0.74
			c0.49,0.49,0.74,1.08,0.74,1.77c0,0.69-0.25,1.28-0.74,1.76c-0.5,0.48-1.1,0.73-1.8,0.73c-0.62,0-1.18-0.22-1.68-0.65
			C182.52,66.11,182.24,65.49,182.24,64.71z M182.98,64.72c0,0.53,0.18,0.97,0.54,1.31c0.36,0.34,0.77,0.52,1.23,0.52
			c0.51,0,0.93-0.17,1.28-0.52c0.35-0.35,0.52-0.78,0.52-1.29c0-0.51-0.17-0.94-0.52-1.29c-0.34-0.35-0.76-0.52-1.27-0.52
			c-0.5,0-0.93,0.17-1.27,0.52C183.15,63.79,182.98,64.22,182.98,64.72z"/>
		<path class="st2" d="M188.64,67.15V62l3.51,3.68v-3.35h0.73v5.11l-3.51-3.67v3.37H188.64z"/>
	</g>
</g>
</svg>
